<ttFont>
    <TTGlyph name=".notdef" xMin="2" yMin="0" xMax="1020" yMax="1434">
      <contour>
        <pt x="2" y="1434" on="1"/>
        <pt x="1020" y="1434" on="1"/>
        <pt x="1020" y="0" on="1"/>
        <pt x="2" y="0" on="1"/>
      </contour>
      <contour>
        <pt x="856" y="1331" on="1"/>
        <pt x="160" y="1331" on="1"/>
        <pt x="508" y="809" on="1"/>
      </contour>
      <contour>
        <pt x="918" y="195" on="1"/>
        <pt x="918" y="1239" on="1"/>
        <pt x="575" y="717" on="1"/>
      </contour>
      <contour>
        <pt x="856" y="102" on="1"/>
        <pt x="508" y="625" on="1"/>
        <pt x="160" y="102" on="1"/>
      </contour>
      <contour>
        <pt x="98" y="195" on="1"/>
        <pt x="453" y="717" on="1"/>
        <pt x="98" y="1239" on="1"/>
      </contour>
    </TTGlyph>
    <TTGlyph name="A" xMin="10" yMin="0" xMax="1212" yMax="1500">
      <contour>
        <pt x="847" y="597" on="1"/>
        <pt x="611" y="1282" on="1"/>
        <pt x="375" y="597" on="1"/>
      </contour>
      <contour>
        <pt x="694" y="1500" on="1"/>
        <pt x="1212" y="0" on="1"/>
        <pt x="1053" y="0" on="1"/>
        <pt x="899" y="447" on="1"/>
        <pt x="323" y="447" on="1"/>
        <pt x="169" y="0" on="1"/>
        <pt x="10" y="0" on="1"/>
        <pt x="528" y="1500" on="1"/>
      </contour>
    </TTGlyph>
    <TTGlyph name="B" xMin="161" yMin="0" xMax="1201" yMax="1500">
      <contour>
        <pt x="311" y="710" on="1"/>
        <pt x="311" y="150" on="1"/>
        <pt x="711" y="150" on="1"/>
        <pt x="881" y="150" on="0"/>
        <pt x="966" y="220" on="1"/>
        <pt x="1051" y="290" on="0"/>
        <pt x="1051" y="430" on="1"/>
        <pt x="1051" y="570" on="0"/>
        <pt x="966" y="640" on="1"/>
        <pt x="881" y="710" on="0"/>
        <pt x="711" y="710" on="1"/>
      </contour>
      <contour>
        <pt x="661" y="860" on="1"/>
        <pt x="831" y="860" on="0"/>
        <pt x="916" y="921" on="1"/>
        <pt x="1001" y="983" on="0"/>
        <pt x="1001" y="1105" on="1"/>
        <pt x="1001" y="1228" on="0"/>
        <pt x="916" y="1289" on="1"/>
        <pt x="831" y="1350" on="0"/>
        <pt x="661" y="1350" on="1"/>
        <pt x="311" y="1350" on="1"/>
        <pt x="311" y="860" on="1"/>
      </contour>
      <contour>
        <pt x="161" y="1500" on="1"/>
        <pt x="661" y="1500" on="1"/>
        <pt x="906" y="1500" on="0"/>
        <pt x="1029" y="1401" on="1"/>
        <pt x="1151" y="1303" on="0"/>
        <pt x="1151" y="1105" on="1"/>
        <pt x="1151" y="1001" on="0"/>
        <pt x="1083" y="847" on="0"/>
        <pt x="1014" y="797" on="1"/>
        <pt x="1108" y="747" on="0"/>
        <pt x="1154" y="655" on="1"/>
        <pt x="1201" y="563" on="0"/>
        <pt x="1201" y="430" on="1"/>
        <pt x="1201" y="215" on="0"/>
        <pt x="1079" y="108" on="1"/>
        <pt x="956" y="0" on="0"/>
        <pt x="711" y="0" on="1"/>
        <pt x="161" y="0" on="1"/>
      </contour>
    </TTGlyph>
    <TTGlyph name="C" xMin="76" yMin="0" xMax="1209" yMax="1500">
      <contour>
        <pt x="876" y="0" on="0"/>
        <pt x="676" y="0" on="1"/>
        <pt x="376" y="0" on="0"/>
        <pt x="226" y="188" on="1"/>
        <pt x="76" y="375" on="0"/>
        <pt x="76" y="750" on="1"/>
        <pt x="76" y="1125" on="0"/>
        <pt x="226" y="1313" on="1"/>
        <pt x="376" y="1500" on="0"/>
        <pt x="676" y="1500" on="1"/>
        <pt x="864" y="1500" on="0"/>
        <pt x="993" y="1427" on="1"/>
        <pt x="1122" y="1353" on="0"/>
        <pt x="1192" y="1206" on="1"/>
        <pt x="1063" y="1124" on="1"/>
        <pt x="1010" y="1245" on="0"/>
        <pt x="913" y="1305" on="1"/>
        <pt x="817" y="1365" on="0"/>
        <pt x="676" y="1365" on="1"/>
        <pt x="451" y="1365" on="0"/>
        <pt x="339" y="1211" on="1"/>
        <pt x="226" y="1058" on="0"/>
        <pt x="226" y="750" on="1"/>
        <pt x="226" y="443" on="0"/>
        <pt x="339" y="289" on="1"/>
        <pt x="451" y="135" on="0"/>
        <pt x="676" y="135" on="1"/>
        <pt x="824" y="135" on="0"/>
        <pt x="923" y="202" on="1"/>
        <pt x="1023" y="268" on="0"/>
        <pt x="1073" y="401" on="1"/>
        <pt x="1209" y="333" on="1"/>
        <pt x="1143" y="167" on="0"/>
        <pt x="1009" y="83" on="1"/>
      </contour>
    </TTGlyph>
    <TTGlyph name="D" xMin="161" yMin="0" xMax="1251" yMax="1500">
      <contour>
        <pt x="881" y="1350" on="0"/>
        <pt x="661" y="1350" on="1"/>
        <pt x="311" y="1350" on="1"/>
        <pt x="311" y="150" on="1"/>
        <pt x="611" y="150" on="1"/>
        <pt x="856" y="150" on="0"/>
        <pt x="979" y="300" on="1"/>
        <pt x="1101" y="450" on="0"/>
        <pt x="1101" y="750" on="1"/>
        <pt x="1101" y="1050" on="0"/>
        <pt x="991" y="1200" on="1"/>
      </contour>
      <contour>
        <pt x="1251" y="750" on="1"/>
        <pt x="1251" y="375" on="0"/>
        <pt x="1091" y="188" on="1"/>
        <pt x="931" y="0" on="0"/>
        <pt x="611" y="0" on="1"/>
        <pt x="161" y="0" on="1"/>
        <pt x="161" y="1500" on="1"/>
        <pt x="661" y="1500" on="1"/>
        <pt x="956" y="1500" on="0"/>
        <pt x="1104" y="1313" on="1"/>
        <pt x="1251" y="1125" on="0"/>
      </contour>
    </TTGlyph>
    <TTGlyph name="E" xMin="161" yMin="0" xMax="1201" yMax="1500">
      <contour>
        <pt x="311" y="723" on="1"/>
        <pt x="311" y="150" on="1"/>
        <pt x="1201" y="150" on="1"/>
        <pt x="1201" y="0" on="1"/>
        <pt x="161" y="0" on="1"/>
        <pt x="161" y="1500" on="1"/>
        <pt x="1181" y="1500" on="1"/>
        <pt x="1181" y="1350" on="1"/>
        <pt x="311" y="1350" on="1"/>
        <pt x="311" y="873" on="1"/>
        <pt x="1151" y="873" on="1"/>
        <pt x="1151" y="723" on="1"/>
      </contour>
    </TTGlyph>
    <TTGlyph name="F" xMin="161" yMin="0" xMax="1180" yMax="1500">
      <contour>
        <pt x="311" y="873" on="1"/>
        <pt x="1070" y="873" on="1"/>
        <pt x="1070" y="723" on="1"/>
        <pt x="311" y="723" on="1"/>
        <pt x="311" y="0" on="1"/>
        <pt x="161" y="0" on="1"/>
        <pt x="161" y="1500" on="1"/>
        <pt x="1180" y="1500" on="1"/>
        <pt x="1180" y="1350" on="1"/>
        <pt x="311" y="1350" on="1"/>
      </contour>
    </TTGlyph>
    <TTGlyph name="G" xMin="76" yMin="0" xMax="1200" yMax="1500">
      <contour>
        <pt x="1050" y="425" on="1"/>
        <pt x="1050" y="608" on="1"/>
        <pt x="674" y="608" on="1"/>
        <pt x="674" y="758" on="1"/>
        <pt x="1200" y="758" on="1"/>
        <pt x="1200" y="0" on="1"/>
        <pt x="1050" y="0" on="1"/>
        <pt x="1050" y="134" on="1"/>
        <pt x="907" y="0" on="0"/>
        <pt x="661" y="0" on="1"/>
        <pt x="369" y="0" on="0"/>
        <pt x="222" y="188" on="1"/>
        <pt x="76" y="375" on="0"/>
        <pt x="76" y="750" on="1"/>
        <pt x="76" y="1125" on="0"/>
        <pt x="222" y="1313" on="1"/>
        <pt x="369" y="1500" on="0"/>
        <pt x="661" y="1500" on="1"/>
        <pt x="1025" y="1500" on="0"/>
        <pt x="1162" y="1210" on="1"/>
        <pt x="1022" y="1143" on="1"/>
        <pt x="916" y="1350" on="0"/>
        <pt x="661" y="1350" on="1"/>
        <pt x="444" y="1350" on="0"/>
        <pt x="335" y="1200" on="1"/>
        <pt x="226" y="1050" on="0"/>
        <pt x="226" y="750" on="1"/>
        <pt x="226" y="450" on="0"/>
        <pt x="335" y="300" on="1"/>
        <pt x="444" y="150" on="0"/>
        <pt x="661" y="150" on="1"/>
        <pt x="955" y="150" on="0"/>
      </contour>
    </TTGlyph>
    <TTGlyph name="H" xMin="161" yMin="0" xMax="1217" yMax="1500">
      <contour>
        <pt x="311" y="693" on="1"/>
        <pt x="311" y="0" on="1"/>
        <pt x="161" y="0" on="1"/>
        <pt x="161" y="1500" on="1"/>
        <pt x="311" y="1500" on="1"/>
        <pt x="311" y="843" on="1"/>
        <pt x="1067" y="843" on="1"/>
        <pt x="1067" y="1500" on="1"/>
        <pt x="1217" y="1500" on="1"/>
        <pt x="1217" y="0" on="1"/>
        <pt x="1067" y="0" on="1"/>
        <pt x="1067" y="693" on="1"/>
      </contour>
    </TTGlyph>
    <TTGlyph name="I" xMin="103" yMin="0" xMax="553" yMax="1500">
      <contour>
        <pt x="253" y="1350" on="1"/>
        <pt x="103" y="1350" on="1"/>
        <pt x="103" y="1500" on="1"/>
        <pt x="553" y="1500" on="1"/>
        <pt x="553" y="1350" on="1"/>
        <pt x="403" y="1350" on="1"/>
        <pt x="403" y="150" on="1"/>
        <pt x="553" y="150" on="1"/>
        <pt x="553" y="0" on="1"/>
        <pt x="103" y="0" on="1"/>
        <pt x="103" y="150" on="1"/>
        <pt x="253" y="150" on="1"/>
      </contour>
    </TTGlyph>
    <TTGlyph name="J" xMin="57" yMin="0" xMax="865" yMax="1500">
      <contour>
        <pt x="570" y="1350" on="1"/>
        <pt x="415" y="1350" on="1"/>
        <pt x="415" y="1500" on="1"/>
        <pt x="865" y="1500" on="1"/>
        <pt x="865" y="1350" on="1"/>
        <pt x="720" y="1350" on="1"/>
        <pt x="720" y="400" on="1"/>
        <pt x="720" y="0" on="0"/>
        <pt x="389" y="0" on="1"/>
        <pt x="57" y="0" on="0"/>
        <pt x="57" y="380" on="1"/>
        <pt x="207" y="380" on="1"/>
        <pt x="207" y="150" on="0"/>
        <pt x="389" y="150" on="1"/>
        <pt x="570" y="150" on="0"/>
        <pt x="570" y="400" on="1"/>
      </contour>
    </TTGlyph>
    <TTGlyph name="K" xMin="161" yMin="0" xMax="1221" yMax="1500">
      <contour>
        <pt x="1036" y="0" on="1"/>
        <pt x="498" y="805" on="1"/>
        <pt x="311" y="626" on="1"/>
        <pt x="311" y="0" on="1"/>
        <pt x="161" y="0" on="1"/>
        <pt x="161" y="1500" on="1"/>
        <pt x="311" y="1500" on="1"/>
        <pt x="311" y="833" on="1"/>
        <pt x="1004" y="1500" on="1"/>
        <pt x="1221" y="1500" on="1"/>
        <pt x="608" y="911" on="1"/>
        <pt x="1216" y="0" on="1"/>
      </contour>
    </TTGlyph>
    <TTGlyph name="L" xMin="161" yMin="0" xMax="1020" yMax="1500">
      <contour>
        <pt x="311" y="150" on="1"/>
        <pt x="1020" y="150" on="1"/>
        <pt x="1020" y="0" on="1"/>
        <pt x="161" y="0" on="1"/>
        <pt x="161" y="1500" on="1"/>
        <pt x="311" y="1500" on="1"/>
      </contour>
    </TTGlyph>
    <TTGlyph name="M" xMin="161" yMin="0" xMax="1455" yMax="1500">
      <contour>
        <pt x="1243" y="1500" on="1"/>
        <pt x="1455" y="1500" on="1"/>
        <pt x="1455" y="0" on="1"/>
        <pt x="1305" y="0" on="1"/>
        <pt x="1305" y="1218" on="1"/>
        <pt x="889" y="0" on="1"/>
        <pt x="727" y="0" on="1"/>
        <pt x="311" y="1218" on="1"/>
        <pt x="311" y="0" on="1"/>
        <pt x="161" y="0" on="1"/>
        <pt x="161" y="1500" on="1"/>
        <pt x="373" y="1500" on="1"/>
        <pt x="808" y="225" on="1"/>
      </contour>
    </TTGlyph>
    <TTGlyph name="N" xMin="161" yMin="0" xMax="1232" yMax="1500">
      <contour>
        <pt x="311" y="1267" on="1"/>
        <pt x="311" y="0" on="1"/>
        <pt x="161" y="0" on="1"/>
        <pt x="161" y="1500" on="1"/>
        <pt x="349" y="1500" on="1"/>
        <pt x="1082" y="235" on="1"/>
        <pt x="1082" y="1500" on="1"/>
        <pt x="1232" y="1500" on="1"/>
        <pt x="1232" y="0" on="1"/>
        <pt x="1045" y="0" on="1"/>
      </contour>
    </TTGlyph>
    <TTGlyph name="O" xMin="76" yMin="0" xMax="1246" yMax="1500">
      <contour>
        <pt x="369" y="1500" on="0"/>
        <pt x="661" y="1500" on="1"/>
        <pt x="954" y="1500" on="0"/>
        <pt x="1100" y="1313" on="1"/>
        <pt x="1246" y="1125" on="0"/>
        <pt x="1246" y="750" on="1"/>
        <pt x="1246" y="375" on="0"/>
        <pt x="1100" y="188" on="1"/>
        <pt x="954" y="0" on="0"/>
        <pt x="661" y="0" on="1"/>
        <pt x="369" y="0" on="0"/>
        <pt x="222" y="188" on="1"/>
        <pt x="76" y="375" on="0"/>
        <pt x="76" y="750" on="1"/>
        <pt x="76" y="1125" on="0"/>
        <pt x="222" y="1313" on="1"/>
      </contour>
      <contour>
        <pt x="879" y="1350" on="0"/>
        <pt x="661" y="1350" on="1"/>
        <pt x="444" y="1350" on="0"/>
        <pt x="335" y="1200" on="1"/>
        <pt x="226" y="1050" on="0"/>
        <pt x="226" y="750" on="1"/>
        <pt x="226" y="450" on="0"/>
        <pt x="335" y="300" on="1"/>
        <pt x="444" y="150" on="0"/>
        <pt x="661" y="150" on="1"/>
        <pt x="879" y="150" on="0"/>
        <pt x="987" y="300" on="1"/>
        <pt x="1096" y="450" on="0"/>
        <pt x="1096" y="750" on="1"/>
        <pt x="1096" y="1050" on="0"/>
        <pt x="987" y="1200" on="1"/>
      </contour>
    </TTGlyph>
    <TTGlyph name="P" xMin="161" yMin="0" xMax="1191" yMax="1500">
      <contour>
        <pt x="1191" y="1090" on="1"/>
        <pt x="1191" y="885" on="0"/>
        <pt x="1067" y="783" on="1"/>
        <pt x="944" y="680" on="0"/>
        <pt x="696" y="680" on="1"/>
        <pt x="311" y="680" on="1"/>
        <pt x="311" y="0" on="1"/>
        <pt x="161" y="0" on="1"/>
        <pt x="161" y="1500" on="1"/>
        <pt x="696" y="1500" on="1"/>
        <pt x="944" y="1500" on="0"/>
        <pt x="1067" y="1398" on="1"/>
        <pt x="1191" y="1295" on="0"/>
      </contour>
      <contour>
        <pt x="311" y="830" on="1"/>
        <pt x="696" y="830" on="1"/>
        <pt x="869" y="830" on="0"/>
        <pt x="955" y="895" on="1"/>
        <pt x="1041" y="960" on="0"/>
        <pt x="1041" y="1090" on="1"/>
        <pt x="1041" y="1220" on="0"/>
        <pt x="955" y="1285" on="1"/>
        <pt x="869" y="1350" on="0"/>
        <pt x="696" y="1350" on="1"/>
        <pt x="311" y="1350" on="1"/>
      </contour>
    </TTGlyph>
    <TTGlyph name="Q" xMin="76" yMin="0" xMax="1328" yMax="1500">
      <contour>
        <pt x="1017" y="348" on="1"/>
        <pt x="1096" y="495" on="0"/>
        <pt x="1096" y="750" on="1"/>
        <pt x="1096" y="1050" on="0"/>
        <pt x="987" y="1200" on="1"/>
        <pt x="879" y="1350" on="0"/>
        <pt x="661" y="1350" on="1"/>
        <pt x="444" y="1350" on="0"/>
        <pt x="335" y="1200" on="1"/>
        <pt x="226" y="1050" on="0"/>
        <pt x="226" y="750" on="1"/>
        <pt x="226" y="450" on="0"/>
        <pt x="335" y="300" on="1"/>
        <pt x="444" y="150" on="0"/>
        <pt x="661" y="150" on="1"/>
        <pt x="821" y="150" on="0"/>
        <pt x="922" y="231" on="1"/>
        <pt x="674" y="412" on="1"/>
        <pt x="762" y="534" on="1"/>
      </contour>
      <contour>
        <pt x="1053" y="136" on="1"/>
        <pt x="910" y="0" on="0"/>
        <pt x="661" y="0" on="1"/>
        <pt x="369" y="0" on="0"/>
        <pt x="222" y="188" on="1"/>
        <pt x="76" y="375" on="0"/>
        <pt x="76" y="750" on="1"/>
        <pt x="76" y="1125" on="0"/>
        <pt x="222" y="1313" on="1"/>
        <pt x="369" y="1500" on="0"/>
        <pt x="661" y="1500" on="1"/>
        <pt x="954" y="1500" on="0"/>
        <pt x="1100" y="1313" on="1"/>
        <pt x="1246" y="1125" on="0"/>
        <pt x="1246" y="750" on="1"/>
        <pt x="1246" y="437" on="0"/>
        <pt x="1144" y="255" on="1"/>
        <pt x="1328" y="121" on="1"/>
        <pt x="1240" y="0" on="1"/>
      </contour>
    </TTGlyph>
    <TTGlyph name="R" xMin="161" yMin="0" xMax="1242" yMax="1500">
      <contour>
        <pt x="311" y="830" on="1"/>
        <pt x="696" y="830" on="1"/>
        <pt x="869" y="830" on="0"/>
        <pt x="955" y="895" on="1"/>
        <pt x="1041" y="960" on="0"/>
        <pt x="1041" y="1090" on="1"/>
        <pt x="1041" y="1220" on="0"/>
        <pt x="955" y="1285" on="1"/>
        <pt x="869" y="1350" on="0"/>
        <pt x="696" y="1350" on="1"/>
        <pt x="311" y="1350" on="1"/>
      </contour>
      <contour>
        <pt x="1076" y="0" on="1"/>
        <pt x="748" y="681" on="1"/>
        <pt x="722" y="680" on="0"/>
        <pt x="696" y="680" on="1"/>
        <pt x="311" y="680" on="1"/>
        <pt x="311" y="0" on="1"/>
        <pt x="161" y="0" on="1"/>
        <pt x="161" y="1500" on="1"/>
        <pt x="696" y="1500" on="1"/>
        <pt x="944" y="1500" on="0"/>
        <pt x="1067" y="1398" on="1"/>
        <pt x="1191" y="1295" on="0"/>
        <pt x="1191" y="1090" on="1"/>
        <pt x="1191" y="934" on="0"/>
        <pt x="1119" y="837" on="1"/>
        <pt x="1047" y="740" on="0"/>
        <pt x="903" y="703" on="1"/>
        <pt x="1242" y="0" on="1"/>
      </contour>
    </TTGlyph>
    <TTGlyph name="S" xMin="87" yMin="0" xMax="1143" yMax="1500">
      <contour>
        <pt x="615" y="1500" on="1"/>
        <pt x="1113" y="1500" on="0"/>
        <pt x="1113" y="1100" on="1"/>
        <pt x="963" y="1100" on="1"/>
        <pt x="963" y="1350" on="0"/>
        <pt x="615" y="1350" on="1"/>
        <pt x="267" y="1350" on="0"/>
        <pt x="267" y="1147" on="1"/>
        <pt x="267" y="943" on="0"/>
        <pt x="510" y="892" on="1"/>
        <pt x="754" y="839" on="1"/>
        <pt x="1143" y="756" on="0"/>
        <pt x="1143" y="399" on="1"/>
        <pt x="1143" y="0" on="0"/>
        <pt x="615" y="0" on="1"/>
        <pt x="87" y="0" on="0"/>
        <pt x="87" y="500" on="1"/>
        <pt x="237" y="500" on="1"/>
        <pt x="237" y="150" on="0"/>
        <pt x="615" y="150" on="1"/>
        <pt x="993" y="150" on="0"/>
        <pt x="993" y="399" on="1"/>
        <pt x="993" y="649" on="0"/>
        <pt x="720" y="708" on="1"/>
        <pt x="476" y="761" on="1"/>
        <pt x="117" y="834" on="0"/>
        <pt x="117" y="1147" on="1"/>
        <pt x="117" y="1500" on="0"/>
      </contour>
    </TTGlyph>
    <TTGlyph name="T" xMin="10" yMin="0" xMax="1066" yMax="1500">
      <contour>
        <pt x="464" y="1350" on="1"/>
        <pt x="10" y="1350" on="1"/>
        <pt x="10" y="1500" on="1"/>
        <pt x="1066" y="1500" on="1"/>
        <pt x="1066" y="1350" on="1"/>
        <pt x="614" y="1350" on="1"/>
        <pt x="614" y="0" on="1"/>
        <pt x="464" y="0" on="1"/>
      </contour>
    </TTGlyph>
    <TTGlyph name="U" xMin="143" yMin="0" xMax="1243" yMax="1500">
      <contour>
        <pt x="693" y="0" on="1"/>
        <pt x="143" y="0" on="0"/>
        <pt x="143" y="500" on="1"/>
        <pt x="143" y="1500" on="1"/>
        <pt x="293" y="1500" on="1"/>
        <pt x="293" y="500" on="1"/>
        <pt x="293" y="150" on="0"/>
        <pt x="693" y="150" on="1"/>
        <pt x="1093" y="150" on="0"/>
        <pt x="1093" y="500" on="1"/>
        <pt x="1093" y="1500" on="1"/>
        <pt x="1243" y="1500" on="1"/>
        <pt x="1243" y="500" on="1"/>
        <pt x="1243" y="0" on="0"/>
      </contour>
    </TTGlyph>
    <TTGlyph name="V" xMin="10" yMin="0" xMax="1212" yMax="1500">
      <contour>
        <pt x="1053" y="1500" on="1"/>
        <pt x="1212" y="1500" on="1"/>
        <pt x="694" y="0" on="1"/>
        <pt x="528" y="0" on="1"/>
        <pt x="10" y="1500" on="1"/>
        <pt x="169" y="1500" on="1"/>
        <pt x="611" y="218" on="1"/>
      </contour>
    </TTGlyph>
    <TTGlyph name="W" xMin="10" yMin="0" xMax="1989" yMax="1500">
      <contour>
        <pt x="1079" y="1500" on="1"/>
        <pt x="1456" y="217" on="1"/>
        <pt x="1832" y="1500" on="1"/>
        <pt x="1989" y="1500" on="1"/>
        <pt x="1548" y="0" on="1"/>
        <pt x="1363" y="0" on="1"/>
        <pt x="1000" y="1236" on="1"/>
        <pt x="636" y="0" on="1"/>
        <pt x="451" y="0" on="1"/>
        <pt x="10" y="1500" on="1"/>
        <pt x="167" y="1500" on="1"/>
        <pt x="544" y="217" on="1"/>
        <pt x="920" y="1500" on="1"/>
      </contour>
    </TTGlyph>
    <TTGlyph name="X" xMin="18" yMin="0" xMax="1240" yMax="1500">
      <contour>
        <pt x="629" y="619" on="1"/>
        <pt x="201" y="0" on="1"/>
        <pt x="18" y="0" on="1"/>
        <pt x="538" y="751" on="1"/>
        <pt x="20" y="1500" on="1"/>
        <pt x="203" y="1500" on="1"/>
        <pt x="629" y="884" on="1"/>
        <pt x="1055" y="1500" on="1"/>
        <pt x="1238" y="1500" on="1"/>
        <pt x="721" y="751" on="1"/>
        <pt x="1240" y="0" on="1"/>
        <pt x="1057" y="0" on="1"/>
      </contour>
    </TTGlyph>
    <TTGlyph name="Y" xMin="10" yMin="9" xMax="1202" yMax="1500">
      <contour>
        <pt x="531" y="631" on="1"/>
        <pt x="10" y="1500" on="1"/>
        <pt x="185" y="1500" on="1"/>
        <pt x="606" y="797" on="1"/>
        <pt x="1027" y="1500" on="1"/>
        <pt x="1202" y="1500" on="1"/>
        <pt x="681" y="631" on="1"/>
        <pt x="681" y="9" on="1"/>
        <pt x="531" y="9" on="1"/>
      </contour>
    </TTGlyph>
    <TTGlyph name="Z" xMin="76" yMin="0" xMax="1117" yMax="1500">
      <contour>
        <pt x="930" y="1350" on="1"/>
        <pt x="76" y="1350" on="1"/>
        <pt x="76" y="1500" on="1"/>
        <pt x="1117" y="1500" on="1"/>
        <pt x="1117" y="1350" on="1"/>
        <pt x="264" y="150" on="1"/>
        <pt x="1117" y="150" on="1"/>
        <pt x="1117" y="0" on="1"/>
        <pt x="76" y="0" on="1"/>
        <pt x="76" y="150" on="1"/>
      </contour>
    </TTGlyph>
    <TTGlyph name="a" xMin="69" yMin="0" xMax="969" yMax="1140">
      <contour>
        <pt x="819" y="620" on="1"/>
        <pt x="732" y="584" on="0"/>
        <pt x="594" y="565" on="1"/>
        <pt x="407" y="539" on="0"/>
        <pt x="313" y="478" on="1"/>
        <pt x="219" y="417" on="0"/>
        <pt x="219" y="321" on="1"/>
        <pt x="219" y="236" on="0"/>
        <pt x="274" y="193" on="1"/>
        <pt x="329" y="150" on="0"/>
        <pt x="439" y="150" on="1"/>
        <pt x="546" y="150" on="0"/>
        <pt x="641" y="204" on="1"/>
        <pt x="736" y="258" on="0"/>
        <pt x="819" y="365" on="1"/>
      </contour>
      <contour>
        <pt x="69" y="850" on="1"/>
        <pt x="69" y="995" on="0"/>
        <pt x="182" y="1068" on="1"/>
        <pt x="294" y="1140" on="0"/>
        <pt x="519" y="1140" on="1"/>
        <pt x="744" y="1140" on="0"/>
        <pt x="857" y="1063" on="1"/>
        <pt x="969" y="985" on="0"/>
        <pt x="969" y="830" on="1"/>
        <pt x="969" y="0" on="1"/>
        <pt x="819" y="0" on="1"/>
        <pt x="819" y="186" on="1"/>
        <pt x="736" y="93" on="0"/>
        <pt x="641" y="47" on="1"/>
        <pt x="546" y="0" on="0"/>
        <pt x="439" y="0" on="1"/>
        <pt x="254" y="0" on="0"/>
        <pt x="162" y="80" on="1"/>
        <pt x="69" y="161" on="0"/>
        <pt x="69" y="321" on="1"/>
        <pt x="69" y="477" on="0"/>
        <pt x="194" y="571" on="1"/>
        <pt x="318" y="666" on="0"/>
        <pt x="567" y="698" on="1"/>
        <pt x="819" y="732" on="0"/>
        <pt x="819" y="790" on="1"/>
        <pt x="819" y="830" on="1"/>
        <pt x="819" y="910" on="0"/>
        <pt x="744" y="950" on="1"/>
        <pt x="669" y="990" on="0"/>
        <pt x="519" y="990" on="1"/>
        <pt x="369" y="990" on="0"/>
        <pt x="294" y="955" on="1"/>
        <pt x="219" y="920" on="0"/>
        <pt x="219" y="850" on="1"/>
      </contour>
    </TTGlyph>
    <TTGlyph name="ampersand" xMin="67" yMin="-31" xMax="1445" yMax="1520">
      <contour>
        <pt x="1445" y="0" on="1"/>
        <pt x="1189" y="0" on="1"/>
        <pt x="985" y="213" on="1"/>
        <pt x="883" y="83" on="0"/>
        <pt x="668" y="-31" on="0"/>
        <pt x="532" y="-31" on="1"/>
        <pt x="330" y="-31" on="0"/>
        <pt x="67" y="212" on="0"/>
        <pt x="67" y="409" on="1"/>
        <pt x="67" y="495" on="0"/>
        <pt x="115" y="629" on="0"/>
        <pt x="155" y="683" on="1"/>
        <pt x="194" y="735" on="0"/>
        <pt x="296" y="814" on="0"/>
        <pt x="343" y="843" on="1"/>
        <pt x="242" y="911" on="0"/>
        <pt x="142" y="1061" on="0"/>
        <pt x="142" y="1175" on="1"/>
        <pt x="142" y="1246" on="0"/>
        <pt x="199" y="1367" on="0"/>
        <pt x="245" y="1413" on="1"/>
        <pt x="293" y="1460" on="0"/>
        <pt x="446" y="1520" on="0"/>
        <pt x="537" y="1520" on="1"/>
        <pt x="703" y="1520" on="0"/>
        <pt x="913" y="1345" on="0"/>
        <pt x="913" y="1211" on="1"/>
        <pt x="913" y="1162" on="0"/>
        <pt x="888" y="1057" on="0"/>
        <pt x="855" y="1008" on="1"/>
        <pt x="822" y="959" on="0"/>
        <pt x="715" y="873" on="0"/>
        <pt x="626" y="841" on="1"/>
        <pt x="978" y="479" on="1"/>
        <pt x="992" y="561" on="0"/>
        <pt x="998" y="754" on="0"/>
        <pt x="998" y="909" on="1"/>
        <pt x="1193" y="909" on="1"/>
        <pt x="1193" y="813" on="1"/>
        <pt x="1193" y="717" on="0"/>
        <pt x="1144" y="476" on="0"/>
        <pt x="1088" y="368" on="1"/>
      </contour>
      <contour>
        <pt x="898" y="301" on="1"/>
        <pt x="438" y="772" on="1"/>
        <pt x="413" y="756" on="0"/>
        <pt x="363" y="712" on="0"/>
        <pt x="333" y="668" on="1"/>
        <pt x="309" y="633" on="0"/>
        <pt x="272" y="520" on="0"/>
        <pt x="272" y="457" on="1"/>
        <pt x="272" y="315" on="0"/>
        <pt x="441" y="132" on="0"/>
        <pt x="585" y="132" on="1"/>
        <pt x="681" y="132" on="0"/>
        <pt x="835" y="213" on="0"/>
      </contour>
      <contour>
        <pt x="532" y="912" on="1"/>
        <pt x="588" y="931" on="0"/>
        <pt x="661" y="995" on="0"/>
        <pt x="681" y="1033" on="1"/>
        <pt x="699" y="1068" on="0"/>
        <pt x="717" y="1146" on="0"/>
        <pt x="717" y="1191" on="1"/>
        <pt x="717" y="1288" on="0"/>
        <pt x="604" y="1394" on="0"/>
        <pt x="529" y="1394" on="1"/>
        <pt x="440" y="1394" on="0"/>
        <pt x="338" y="1274" on="0"/>
        <pt x="338" y="1184" on="1"/>
        <pt x="338" y="1144" on="0"/>
        <pt x="353" y="1087" on="0"/>
        <pt x="377" y="1049" on="1"/>
        <pt x="398" y="1018" on="0"/>
        <pt x="473" y="948" on="0"/>
      </contour>
    </TTGlyph>
    <TTGlyph name="asciicircum" xMin="133" yMin="722" xMax="913" yMax="1500">
      <contour>
        <pt x="446" y="1500" on="1"/>
        <pt x="596" y="1500" on="1"/>
        <pt x="913" y="722" on="1"/>
        <pt x="772" y="722" on="1"/>
        <pt x="522" y="1336" on="1"/>
        <pt x="274" y="722" on="1"/>
        <pt x="133" y="722" on="1"/>
      </contour>
    </TTGlyph>
    <TTGlyph name="asciitilde" xMin="150" yMin="250" xMax="1050" yMax="650">
      <contour>
        <pt x="800" y="250" on="1"/>
        <pt x="651" y="250" on="0"/>
        <pt x="576" y="375" on="1"/>
        <pt x="538" y="438" on="1"/>
        <pt x="500" y="500" on="0"/>
        <pt x="400" y="500" on="1"/>
        <pt x="301" y="500" on="0"/>
        <pt x="301" y="400" on="1"/>
        <pt x="301" y="250" on="1"/>
        <pt x="150" y="250" on="1"/>
        <pt x="150" y="401" on="1"/>
        <pt x="150" y="650" on="0"/>
        <pt x="397" y="650" on="1"/>
        <pt x="400" y="650" on="1"/>
        <pt x="549" y="650" on="0"/>
        <pt x="626" y="525" on="1"/>
        <pt x="663" y="463" on="1"/>
        <pt x="700" y="400" on="0"/>
        <pt x="801" y="400" on="1"/>
        <pt x="900" y="400" on="0"/>
        <pt x="900" y="500" on="1"/>
        <pt x="900" y="650" on="1"/>
        <pt x="1050" y="650" on="1"/>
        <pt x="1050" y="500" on="1"/>
        <pt x="1050" y="251" on="0"/>
      </contour>
    </TTGlyph>
    <TTGlyph name="asterisk" xMin="112" yMin="630" xMax="1007" yMax="1556">
      <contour>
        <pt x="1007" y="887" on="1"/>
        <pt x="942" y="777" on="1"/>
        <pt x="615" y="994" on="1"/>
        <pt x="622" y="630" on="1"/>
        <pt x="497" y="630" on="1"/>
        <pt x="503" y="994" on="1"/>
        <pt x="178" y="776" on="1"/>
        <pt x="112" y="886" on="1"/>
        <pt x="466" y="1093" on="1"/>
        <pt x="112" y="1300" on="1"/>
        <pt x="178" y="1410" on="1"/>
        <pt x="504" y="1191" on="1"/>
        <pt x="497" y="1556" on="1"/>
        <pt x="622" y="1556" on="1"/>
        <pt x="614" y="1191" on="1"/>
        <pt x="942" y="1409" on="1"/>
        <pt x="1007" y="1299" on="1"/>
        <pt x="653" y="1094" on="1"/>
      </contour>
    </TTGlyph>
    <TTGlyph name="at" xMin="132" yMin="-226" xMax="1739" yMax="1518">
      <contour>
        <pt x="1739" y="663" on="1"/>
        <pt x="1739" y="524" on="0"/>
        <pt x="1663" y="265" on="0"/>
        <pt x="1592" y="157" on="1"/>
        <pt x="1171" y="157" on="1"/>
        <pt x="1146" y="273" on="1"/>
        <pt x="1079" y="216" on="0"/>
        <pt x="966" y="149" on="0"/>
        <pt x="869" y="149" on="1"/>
        <pt x="715" y="149" on="0"/>
        <pt x="519" y="396" on="0"/>
        <pt x="519" y="631" on="1"/>
        <pt x="519" y="866" on="0"/>
        <pt x="760" y="1128" on="0"/>
        <pt x="915" y="1128" on="1"/>
        <pt x="987" y="1128" on="0"/>
        <pt x="1091" y="1092" on="0"/>
        <pt x="1144" y="1062" on="1"/>
        <pt x="1144" y="1110" on="1"/>
        <pt x="1303" y="1110" on="1"/>
        <pt x="1303" y="268" on="1"/>
        <pt x="1530" y="268" on="1"/>
        <pt x="1568" y="339" on="0"/>
        <pt x="1601" y="565" on="0"/>
        <pt x="1601" y="657" on="1"/>
        <pt x="1601" y="984" on="0"/>
        <pt x="1268" y="1383" on="0"/>
        <pt x="956" y="1383" on="1"/>
        <pt x="660" y="1383" on="0"/>
        <pt x="275" y="952" on="0"/>
        <pt x="275" y="645" on="1"/>
        <pt x="275" y="315" on="0"/>
        <pt x="649" y="-94" on="0"/>
        <pt x="951" y="-94" on="1"/>
        <pt x="1032" y="-94" on="0"/>
        <pt x="1211" y="-72" on="0"/>
        <pt x="1291" y="-48" on="1"/>
        <pt x="1291" y="-190" on="1"/>
        <pt x="1207" y="-210" on="0"/>
        <pt x="1034" y="-226" on="0"/>
        <pt x="950" y="-226" on="1"/>
        <pt x="596" y="-226" on="0"/>
        <pt x="132" y="260" on="0"/>
        <pt x="132" y="647" on="1"/>
        <pt x="132" y="1014" on="0"/>
        <pt x="611" y="1518" on="0"/>
        <pt x="955" y="1518" on="1"/>
        <pt x="1323" y="1518" on="0"/>
        <pt x="1739" y="1043" on="0"/>
      </contour>
      <contour>
        <pt x="1142" y="408" on="1"/>
        <pt x="1142" y="926" on="1"/>
        <pt x="1086" y="955" on="0"/>
        <pt x="992" y="980" on="0"/>
        <pt x="941" y="980" on="1"/>
        <pt x="828" y="980" on="0"/>
        <pt x="690" y="811" on="0"/>
        <pt x="690" y="634" on="1"/>
        <pt x="690" y="474" on="0"/>
        <pt x="794" y="304" on="0"/>
        <pt x="908" y="304" on="1"/>
        <pt x="969" y="304" on="0"/>
        <pt x="1088" y="362" on="0"/>
      </contour>
    </TTGlyph>
    <TTGlyph name="b" xMin="146" yMin="0" xMax="1046" yMax="1500">
      <contour>
        <pt x="296" y="0" on="1"/>
        <pt x="146" y="0" on="1"/>
        <pt x="146" y="1500" on="1"/>
        <pt x="296" y="1500" on="1"/>
        <pt x="296" y="973" on="1"/>
        <pt x="392" y="1140" on="0"/>
        <pt x="596" y="1140" on="1"/>
        <pt x="1046" y="1140" on="0"/>
        <pt x="1046" y="570" on="1"/>
        <pt x="1046" y="0" on="0"/>
        <pt x="596" y="0" on="1"/>
        <pt x="392" y="0" on="0"/>
        <pt x="296" y="167" on="1"/>
      </contour>
      <contour>
        <pt x="296" y="768" on="0"/>
        <pt x="296" y="570" on="1"/>
        <pt x="296" y="373" on="0"/>
        <pt x="449" y="150" on="0"/>
        <pt x="596" y="150" on="1"/>
        <pt x="896" y="150" on="0"/>
        <pt x="896" y="570" on="1"/>
        <pt x="896" y="990" on="0"/>
        <pt x="596" y="990" on="1"/>
        <pt x="449" y="990" on="0"/>
      </contour>
    </TTGlyph>
    <TTGlyph name="backslash" xMin="52" yMin="-33" xMax="700" yMax="1500">
      <contour>
        <pt x="215" y="1500" on="1"/>
        <pt x="700" y="-33" on="1"/>
        <pt x="537" y="-33" on="1"/>
        <pt x="52" y="1500" on="1"/>
      </contour>
    </TTGlyph>
    <TTGlyph name="bar" xMin="308" yMin="-360" xMax="458" yMax="1500">
      <contour>
        <pt x="308" y="1500" on="1"/>
        <pt x="458" y="1500" on="1"/>
        <pt x="458" y="-360" on="1"/>
        <pt x="308" y="-360" on="1"/>
      </contour>
    </TTGlyph>
    <TTGlyph name="braceleft" xMin="60" yMin="-433" xMax="537" yMax="1493">
      <contour>
        <pt x="60" y="600" on="1"/>
        <pt x="171" y="623" on="0"/>
        <pt x="220" y="712" on="0"/>
        <pt x="220" y="883" on="1"/>
        <pt x="220" y="1225" on="1"/>
        <pt x="220" y="1434" on="0"/>
        <pt x="365" y="1481" on="1"/>
        <pt x="402" y="1493" on="0"/>
        <pt x="443" y="1493" on="1"/>
        <pt x="537" y="1493" on="1"/>
        <pt x="537" y="1400" on="1"/>
        <pt x="355" y="1400" on="0"/>
        <pt x="355" y="1251" on="1"/>
        <pt x="355" y="852" on="1"/>
        <pt x="355" y="581" on="0"/>
        <pt x="210" y="530" on="1"/>
        <pt x="355" y="479" on="0"/>
        <pt x="355" y="208" on="1"/>
        <pt x="355" y="-191" on="1"/>
        <pt x="355" y="-340" on="0"/>
        <pt x="537" y="-340" on="1"/>
        <pt x="537" y="-433" on="1"/>
        <pt x="443" y="-433" on="1"/>
        <pt x="402" y="-433" on="0"/>
        <pt x="365" y="-421" on="1"/>
        <pt x="220" y="-374" on="0"/>
        <pt x="220" y="-165" on="1"/>
        <pt x="220" y="177" on="1"/>
        <pt x="220" y="348" on="0"/>
        <pt x="171" y="437" on="0"/>
        <pt x="60" y="460" on="1"/>
      </contour>
    </TTGlyph>
    <TTGlyph name="braceright" xMin="98" yMin="-433" xMax="575" yMax="1493">
      <contour>
        <pt x="575" y="460" on="1"/>
        <pt x="464" y="437" on="0"/>
        <pt x="415" y="348" on="0"/>
        <pt x="415" y="177" on="1"/>
        <pt x="415" y="-165" on="1"/>
        <pt x="415" y="-374" on="0"/>
        <pt x="270" y="-421" on="1"/>
        <pt x="233" y="-433" on="0"/>
        <pt x="192" y="-433" on="1"/>
        <pt x="98" y="-433" on="1"/>
        <pt x="98" y="-340" on="1"/>
        <pt x="280" y="-340" on="0"/>
        <pt x="280" y="-191" on="1"/>
        <pt x="280" y="208" on="1"/>
        <pt x="280" y="479" on="0"/>
        <pt x="425" y="530" on="1"/>
        <pt x="280" y="581" on="0"/>
        <pt x="280" y="852" on="1"/>
        <pt x="280" y="1251" on="1"/>
        <pt x="280" y="1400" on="0"/>
        <pt x="98" y="1400" on="1"/>
        <pt x="98" y="1493" on="1"/>
        <pt x="192" y="1493" on="1"/>
        <pt x="233" y="1493" on="0"/>
        <pt x="270" y="1481" on="1"/>
        <pt x="415" y="1434" on="0"/>
        <pt x="415" y="1225" on="1"/>
        <pt x="415" y="883" on="1"/>
        <pt x="415" y="712" on="0"/>
        <pt x="464" y="623" on="0"/>
        <pt x="575" y="600" on="1"/>
      </contour>
    </TTGlyph>
    <TTGlyph name="bracketleft" xMin="176" yMin="-434" xMax="557" yMax="1500">
      <contour>
        <pt x="176" y="1500" on="1"/>
        <pt x="557" y="1500" on="1"/>
        <pt x="557" y="1350" on="1"/>
        <pt x="326" y="1350" on="1"/>
        <pt x="326" y="-284" on="1"/>
        <pt x="557" y="-284" on="1"/>
        <pt x="557" y="-434" on="1"/>
        <pt x="176" y="-434" on="1"/>
      </contour>
    </TTGlyph>
    <TTGlyph name="bracketright" xMin="108" yMin="-434" xMax="489" yMax="1500">
      <contour>
        <pt x="339" y="1350" on="1"/>
        <pt x="108" y="1350" on="1"/>
        <pt x="108" y="1500" on="1"/>
        <pt x="489" y="1500" on="1"/>
        <pt x="489" y="-434" on="1"/>
        <pt x="108" y="-434" on="1"/>
        <pt x="108" y="-284" on="1"/>
        <pt x="339" y="-284" on="1"/>
      </contour>
    </TTGlyph>
    <TTGlyph name="c" xMin="69" yMin="0" xMax="986" yMax="1140">
      <contour>
        <pt x="956" y="210" on="0"/>
        <pt x="901" y="143" on="1"/>
        <pt x="782" y="0" on="0"/>
        <pt x="544" y="0" on="1"/>
        <pt x="307" y="0" on="0"/>
        <pt x="188" y="143" on="1"/>
        <pt x="69" y="285" on="0"/>
        <pt x="69" y="570" on="1"/>
        <pt x="69" y="855" on="0"/>
        <pt x="188" y="998" on="1"/>
        <pt x="307" y="1140" on="0"/>
        <pt x="544" y="1140" on="1"/>
        <pt x="782" y="1140" on="0"/>
        <pt x="901" y="998" on="1"/>
        <pt x="924" y="969" on="0"/>
        <pt x="943" y="934" on="1"/>
        <pt x="812" y="858" on="1"/>
        <pt x="802" y="875" on="0"/>
        <pt x="792" y="889" on="1"/>
        <pt x="714" y="990" on="0"/>
        <pt x="544" y="990" on="1"/>
        <pt x="374" y="990" on="0"/>
        <pt x="297" y="889" on="1"/>
        <pt x="219" y="788" on="0"/>
        <pt x="219" y="570" on="1"/>
        <pt x="219" y="353" on="0"/>
        <pt x="297" y="252" on="1"/>
        <pt x="374" y="150" on="0"/>
        <pt x="544" y="150" on="1"/>
        <pt x="714" y="150" on="0"/>
        <pt x="792" y="252" on="1"/>
        <pt x="823" y="292" on="0"/>
        <pt x="841" y="352" on="1"/>
        <pt x="986" y="308" on="1"/>
      </contour>
    </TTGlyph>
    <TTGlyph name="colon" xMin="243" yMin="0" xMax="482" yMax="1117">
      <contour>
        <pt x="482" y="832" on="1"/>
        <pt x="243" y="832" on="1"/>
        <pt x="243" y="1117" on="1"/>
        <pt x="482" y="1117" on="1"/>
      </contour>
      <contour>
        <pt x="482" y="0" on="1"/>
        <pt x="243" y="0" on="1"/>
        <pt x="243" y="285" on="1"/>
        <pt x="482" y="285" on="1"/>
      </contour>
    </TTGlyph>
    <TTGlyph name="comma" xMin="74" yMin="-370" xMax="500" yMax="285">
      <contour>
        <pt x="500" y="285" on="1"/>
        <pt x="220" y="-370" on="1"/>
        <pt x="74" y="-370" on="1"/>
        <pt x="250" y="285" on="1"/>
      </contour>
    </TTGlyph>
    <TTGlyph name="d" xMin="69" yMin="0" xMax="969" yMax="1500">
      <contour>
        <pt x="819" y="167" on="1"/>
        <pt x="723" y="0" on="0"/>
        <pt x="519" y="0" on="1"/>
        <pt x="69" y="0" on="0"/>
        <pt x="69" y="570" on="1"/>
        <pt x="69" y="1140" on="0"/>
        <pt x="519" y="1140" on="1"/>
        <pt x="723" y="1140" on="0"/>
        <pt x="819" y="973" on="1"/>
        <pt x="819" y="1500" on="1"/>
        <pt x="969" y="1500" on="1"/>
        <pt x="969" y="0" on="1"/>
        <pt x="819" y="0" on="1"/>
      </contour>
      <contour>
        <pt x="666" y="990" on="0"/>
        <pt x="519" y="990" on="1"/>
        <pt x="219" y="990" on="0"/>
        <pt x="219" y="570" on="1"/>
        <pt x="219" y="150" on="0"/>
        <pt x="519" y="150" on="1"/>
        <pt x="666" y="150" on="0"/>
        <pt x="819" y="373" on="0"/>
        <pt x="819" y="570" on="1"/>
        <pt x="819" y="768" on="0"/>
      </contour>
    </TTGlyph>
    <TTGlyph name="dollar" xMin="106" yMin="-361" xMax="1024" yMax="1576">
      <contour>
        <pt x="1024" y="380" on="1"/>
        <pt x="1024" y="233" on="0"/>
        <pt x="799" y="22" on="0"/>
        <pt x="628" y="1" on="1"/>
        <pt x="628" y="-361" on="1"/>
        <pt x="514" y="-361" on="1"/>
        <pt x="514" y="-4" on="1"/>
        <pt x="406" y="-3" on="0"/>
        <pt x="187" y="45" on="0"/>
        <pt x="106" y="85" on="1"/>
        <pt x="106" y="287" on="1"/>
        <pt x="121" y="287" on="1"/>
        <pt x="200" y="228" on="0"/>
        <pt x="398" y="154" on="0"/>
        <pt x="514" y="144" on="1"/>
        <pt x="514" y="576" on="1"/>
        <pt x="489" y="582" on="0"/>
        <pt x="417" y="599" on="0"/>
        <pt x="392" y="607" on="1"/>
        <pt x="242" y="648" on="0"/>
        <pt x="113" y="814" on="0"/>
        <pt x="113" y="935" on="1"/>
        <pt x="113" y="1077" on="0"/>
        <pt x="335" y="1287" on="0"/>
        <pt x="514" y="1304" on="1"/>
        <pt x="514" y="1576" on="1"/>
        <pt x="628" y="1576" on="1"/>
        <pt x="628" y="1306" on="1"/>
        <pt x="719" y="1303" on="0"/>
        <pt x="914" y="1258" on="0"/>
        <pt x="976" y="1231" on="1"/>
        <pt x="976" y="1033" on="1"/>
        <pt x="961" y="1033" on="1"/>
        <pt x="891" y="1081" on="0"/>
        <pt x="724" y="1153" on="0"/>
        <pt x="628" y="1161" on="1"/>
        <pt x="628" y="731" on="1"/>
        <pt x="661" y="724" on="0"/>
        <pt x="718" y="709" on="0"/>
        <pt x="739" y="704" on="1"/>
        <pt x="875" y="672" on="0"/>
        <pt x="1024" y="514" on="0"/>
      </contour>
      <contour>
        <pt x="514" y="746" on="1"/>
        <pt x="514" y="1160" on="1"/>
        <pt x="424" y="1152" on="0"/>
        <pt x="302" y="1051" on="0"/>
        <pt x="302" y="961" on="1"/>
        <pt x="302" y="872" on="0"/>
        <pt x="391" y="775" on="0"/>
      </contour>
      <contour>
        <pt x="835" y="354" on="1"/>
        <pt x="835" y="448" on="0"/>
        <pt x="739" y="538" on="0"/>
        <pt x="628" y="561" on="1"/>
        <pt x="628" y="146" on="1"/>
        <pt x="730" y="158" on="0"/>
        <pt x="835" y="257" on="0"/>
      </contour>
    </TTGlyph>
    <TTGlyph name="e" xMin="69" yMin="0" xMax="1019" yMax="1140">
      <contour>
        <pt x="219" y="545" on="1"/>
        <pt x="224" y="347" on="0"/>
        <pt x="297" y="252" on="1"/>
        <pt x="374" y="150" on="0"/>
        <pt x="544" y="150" on="1"/>
        <pt x="714" y="150" on="0"/>
        <pt x="792" y="252" on="1"/>
        <pt x="823" y="293" on="0"/>
        <pt x="842" y="353" on="1"/>
        <pt x="998" y="353" on="1"/>
        <pt x="969" y="225" on="0"/>
        <pt x="901" y="143" on="1"/>
        <pt x="782" y="0" on="0"/>
        <pt x="544" y="0" on="1"/>
        <pt x="307" y="0" on="0"/>
        <pt x="69" y="285" on="0"/>
        <pt x="69" y="570" on="1"/>
        <pt x="69" y="855" on="0"/>
        <pt x="307" y="1140" on="0"/>
        <pt x="544" y="1140" on="1"/>
        <pt x="782" y="1140" on="0"/>
        <pt x="1019" y="855" on="0"/>
        <pt x="1019" y="570" on="1"/>
        <pt x="1019" y="545" on="1"/>
      </contour>
      <contour>
        <pt x="861" y="695" on="1"/>
        <pt x="845" y="820" on="0"/>
        <pt x="792" y="889" on="1"/>
        <pt x="714" y="990" on="0"/>
        <pt x="544" y="990" on="1"/>
        <pt x="374" y="990" on="0"/>
        <pt x="297" y="889" on="1"/>
        <pt x="243" y="820" on="0"/>
        <pt x="227" y="695" on="1"/>
      </contour>
    </TTGlyph>
    <TTGlyph name="eight" xMin="74" yMin="-34" xMax="1044" yMax="1523">
      <contour>
        <pt x="811" y="1142" on="1"/>
        <pt x="811" y="1242" on="0"/>
        <pt x="677" y="1376" on="0"/>
        <pt x="558" y="1376" on="1"/>
        <pt x="449" y="1376" on="0"/>
        <pt x="310" y="1256" on="0"/>
        <pt x="310" y="1154" on="1"/>
        <pt x="310" y="1080" on="0"/>
        <pt x="381" y="978" on="0"/>
        <pt x="452" y="937" on="1"/>
        <pt x="483" y="920" on="0"/>
        <pt x="610" y="860" on="0"/>
        <pt x="662" y="843" on="1"/>
        <pt x="749" y="910" on="0"/>
        <pt x="811" y="1051" on="0"/>
      </contour>
      <contour>
        <pt x="839" y="396" on="1"/>
        <pt x="839" y="488" on="0"/>
        <pt x="767" y="596" on="0"/>
        <pt x="664" y="652" on="1"/>
        <pt x="630" y="671" on="0"/>
        <pt x="517" y="715" on="0"/>
        <pt x="446" y="745" on="1"/>
        <pt x="363" y="690" on="0"/>
        <pt x="275" y="529" on="0"/>
        <pt x="275" y="426" on="1"/>
        <pt x="275" y="291" on="0"/>
        <pt x="438" y="115" on="0"/>
        <pt x="561" y="115" on="1"/>
        <pt x="687" y="115" on="0"/>
        <pt x="839" y="266" on="0"/>
      </contour>
      <contour>
        <pt x="559" y="-34" on="1"/>
        <pt x="448" y="-34" on="0"/>
        <pt x="266" y="32" on="0"/>
        <pt x="202" y="94" on="1"/>
        <pt x="139" y="154" on="0"/>
        <pt x="74" y="319" on="0"/>
        <pt x="74" y="411" on="1"/>
        <pt x="74" y="532" on="0"/>
        <pt x="203" y="735" on="0"/>
        <pt x="326" y="795" on="1"/>
        <pt x="326" y="801" on="1"/>
        <pt x="216" y="865" on="0"/>
        <pt x="110" y="1017" on="0"/>
        <pt x="110" y="1131" on="1"/>
        <pt x="110" y="1299" on="0"/>
        <pt x="364" y="1523" on="0"/>
        <pt x="559" y="1523" on="1"/>
        <pt x="762" y="1523" on="0"/>
        <pt x="1007" y="1310" on="0"/>
        <pt x="1007" y="1144" on="1"/>
        <pt x="1007" y="1044" on="0"/>
        <pt x="890" y="848" on="0"/>
        <pt x="780" y="793" on="1"/>
        <pt x="780" y="787" on="1"/>
        <pt x="910" y="726" on="0"/>
        <pt x="1044" y="552" on="0"/>
        <pt x="1044" y="415" on="1"/>
        <pt x="1044" y="224" on="0"/>
        <pt x="767" y="-34" on="0"/>
      </contour>
    </TTGlyph>
    <TTGlyph name="equal" xMin="192" yMin="362" xMax="1298" yMax="942">
      <contour>
        <pt x="1298" y="782" on="1"/>
        <pt x="192" y="782" on="1"/>
        <pt x="192" y="942" on="1"/>
        <pt x="1298" y="942" on="1"/>
      </contour>
      <contour>
        <pt x="1298" y="362" on="1"/>
        <pt x="192" y="362" on="1"/>
        <pt x="192" y="522" on="1"/>
        <pt x="1298" y="522" on="1"/>
      </contour>
    </TTGlyph>
    <TTGlyph name="exclam" xMin="228" yMin="0" xMax="452" yMax="1489">
      <contour>
        <pt x="452" y="1489" on="1"/>
        <pt x="424" y="410" on="1"/>
        <pt x="258" y="410" on="1"/>
        <pt x="228" y="1489" on="1"/>
      </contour>
      <contour>
        <pt x="442" y="0" on="1"/>
        <pt x="238" y="0" on="1"/>
        <pt x="238" y="211" on="1"/>
        <pt x="442" y="211" on="1"/>
      </contour>
    </TTGlyph>
    <TTGlyph name="f" xMin="39" yMin="0" xMax="521" yMax="1500">
      <contour>
        <pt x="179" y="1140" on="1"/>
        <pt x="179" y="1250" on="1"/>
        <pt x="179" y="1500" on="0"/>
        <pt x="521" y="1500" on="1"/>
        <pt x="521" y="1365" on="1"/>
        <pt x="329" y="1365" on="0"/>
        <pt x="329" y="1250" on="1"/>
        <pt x="329" y="1140" on="1"/>
        <pt x="491" y="1140" on="1"/>
        <pt x="491" y="990" on="1"/>
        <pt x="329" y="990" on="1"/>
        <pt x="329" y="0" on="1"/>
        <pt x="179" y="0" on="1"/>
        <pt x="179" y="990" on="1"/>
        <pt x="39" y="990" on="1"/>
        <pt x="39" y="1140" on="1"/>
      </contour>
    </TTGlyph>
    <TTGlyph name="five" xMin="124" yMin="-31" xMax="1011" yMax="1489">
      <contour>
        <pt x="1011" y="474" on="1"/>
        <pt x="1011" y="366" on="0"/>
        <pt x="942" y="182" on="0"/>
        <pt x="880" y="115" on="1"/>
        <pt x="817" y="47" on="0"/>
        <pt x="630" y="-31" on="0"/>
        <pt x="514" y="-31" on="1"/>
        <pt x="407" y="-31" on="0"/>
        <pt x="200" y="16" on="0"/>
        <pt x="124" y="54" on="1"/>
        <pt x="124" y="265" on="1"/>
        <pt x="138" y="265" on="1"/>
        <pt x="161" y="248" on="0"/>
        <pt x="247" y="205" on="0"/>
        <pt x="299" y="186" on="1"/>
        <pt x="358" y="165" on="0"/>
        <pt x="456" y="142" on="0"/>
        <pt x="517" y="142" on="1"/>
        <pt x="577" y="142" on="0"/>
        <pt x="691" y="185" on="0"/>
        <pt x="732" y="233" on="1"/>
        <pt x="769" y="277" on="0"/>
        <pt x="808" y="395" on="0"/>
        <pt x="808" y="475" on="1"/>
        <pt x="808" y="554" on="0"/>
        <pt x="765" y="656" on="0"/>
        <pt x="724" y="689" on="1"/>
        <pt x="681" y="727" on="0"/>
        <pt x="556" y="758" on="0"/>
        <pt x="479" y="758" on="1"/>
        <pt x="398" y="758" on="0"/>
        <pt x="234" y="733" on="0"/>
        <pt x="185" y="722" on="1"/>
        <pt x="185" y="1489" on="1"/>
        <pt x="1002" y="1489" on="1"/>
        <pt x="1002" y="1314" on="1"/>
        <pt x="378" y="1314" on="1"/>
        <pt x="378" y="918" on="1"/>
        <pt x="414" y="922" on="0"/>
        <pt x="484" y="926" on="0"/>
        <pt x="513" y="926" on="1"/>
        <pt x="627" y="926" on="0"/>
        <pt x="785" y="888" on="0"/>
        <pt x="858" y="833" on="1"/>
        <pt x="932" y="777" on="0"/>
        <pt x="1011" y="609" on="0"/>
      </contour>
    </TTGlyph>
    <TTGlyph name="four" xMin="40" yMin="0" xMax="1067" yMax="1489">
      <contour>
        <pt x="1067" y="512" on="1"/>
        <pt x="890" y="512" on="1"/>
        <pt x="890" y="0" on="1"/>
        <pt x="698" y="0" on="1"/>
        <pt x="698" y="512" on="1"/>
        <pt x="40" y="512" on="1"/>
        <pt x="40" y="722" on="1"/>
        <pt x="706" y="1489" on="1"/>
        <pt x="890" y="1489" on="1"/>
        <pt x="890" y="672" on="1"/>
        <pt x="1067" y="672" on="1"/>
      </contour>
      <contour>
        <pt x="698" y="672" on="1"/>
        <pt x="698" y="1254" on="1"/>
        <pt x="196" y="672" on="1"/>
      </contour>
    </TTGlyph>
    <TTGlyph name="g" xMin="69" yMin="-360" xMax="969" yMax="1140">
      <contour>
        <pt x="519" y="990" on="1"/>
        <pt x="219" y="990" on="0"/>
        <pt x="219" y="570" on="1"/>
        <pt x="219" y="150" on="0"/>
        <pt x="519" y="150" on="1"/>
        <pt x="666" y="150" on="0"/>
        <pt x="819" y="373" on="0"/>
        <pt x="819" y="570" on="1"/>
        <pt x="819" y="768" on="0"/>
        <pt x="666" y="990" on="0"/>
      </contour>
      <contour>
        <pt x="819" y="130" on="1"/>
        <pt x="819" y="167" on="1"/>
        <pt x="723" y="0" on="0"/>
        <pt x="519" y="0" on="1"/>
        <pt x="69" y="0" on="0"/>
        <pt x="69" y="570" on="1"/>
        <pt x="69" y="1140" on="0"/>
        <pt x="519" y="1140" on="1"/>
        <pt x="723" y="1140" on="0"/>
        <pt x="819" y="973" on="1"/>
        <pt x="819" y="1140" on="1"/>
        <pt x="969" y="1140" on="1"/>
        <pt x="969" y="130" on="1"/>
        <pt x="969" y="-360" on="0"/>
        <pt x="539" y="-360" on="1"/>
        <pt x="169" y="-360" on="0"/>
        <pt x="89" y="-85" on="1"/>
        <pt x="214" y="-65" on="1"/>
        <pt x="284" y="-210" on="0"/>
        <pt x="539" y="-210" on="1"/>
        <pt x="819" y="-210" on="0"/>
      </contour>
    </TTGlyph>
    <TTGlyph name="greater" xMin="215" yMin="79" xMax="1289" yMax="1225">
      <contour>
        <pt x="1289" y="592" on="1"/>
        <pt x="215" y="79" on="1"/>
        <pt x="215" y="257" on="1"/>
        <pt x="1048" y="652" on="1"/>
        <pt x="215" y="1047" on="1"/>
        <pt x="215" y="1225" on="1"/>
        <pt x="1289" y="712" on="1"/>
      </contour>
    </TTGlyph>
    <TTGlyph name="h" xMin="148" yMin="0" xMax="1048" yMax="1500">
      <contour>
        <pt x="898" y="0" on="1"/>
        <pt x="898" y="710" on="1"/>
        <pt x="898" y="990" on="0"/>
        <pt x="638" y="990" on="1"/>
        <pt x="501" y="990" on="0"/>
        <pt x="298" y="748" on="0"/>
        <pt x="298" y="700" on="1"/>
        <pt x="298" y="0" on="1"/>
        <pt x="148" y="0" on="1"/>
        <pt x="148" y="1500" on="1"/>
        <pt x="298" y="1500" on="1"/>
        <pt x="298" y="943" on="1"/>
        <pt x="454" y="1140" on="0"/>
        <pt x="638" y="1140" on="1"/>
        <pt x="1048" y="1140" on="0"/>
        <pt x="1048" y="710" on="1"/>
        <pt x="1048" y="0" on="1"/>
      </contour>
    </TTGlyph>
    <TTGlyph name="hyphen" xMin="90" yMin="561" xMax="654" yMax="742">
      <contour>
        <pt x="654" y="561" on="1"/>
        <pt x="90" y="561" on="1"/>
        <pt x="90" y="742" on="1"/>
        <pt x="654" y="742" on="1"/>
      </contour>
    </TTGlyph>
    <TTGlyph name="i" xMin="137" yMin="0" xMax="287" yMax="1500">
      <contour>
        <pt x="137" y="1350" on="1"/>
        <pt x="137" y="1500" on="1"/>
        <pt x="287" y="1500" on="1"/>
        <pt x="287" y="1350" on="1"/>
      </contour>
      <contour>
        <pt x="287" y="1140" on="1"/>
        <pt x="287" y="0" on="1"/>
        <pt x="137" y="0" on="1"/>
        <pt x="137" y="1140" on="1"/>
      </contour>
    </TTGlyph>
    <TTGlyph name="j" xMin="10" yMin="-360" xMax="337" yMax="1500">
      <contour>
        <pt x="187" y="1350" on="1"/>
        <pt x="187" y="1500" on="1"/>
        <pt x="337" y="1500" on="1"/>
        <pt x="337" y="1350" on="1"/>
      </contour>
      <contour>
        <pt x="10" y="-360" on="1"/>
        <pt x="10" y="-210" on="1"/>
        <pt x="187" y="-210" on="0"/>
        <pt x="187" y="-50" on="1"/>
        <pt x="187" y="1140" on="1"/>
        <pt x="337" y="1140" on="1"/>
        <pt x="337" y="-50" on="1"/>
        <pt x="337" y="-360" on="0"/>
      </contour>
    </TTGlyph>
    <TTGlyph name="k" xMin="146" yMin="0" xMax="1044" yMax="1500">
      <contour>
        <pt x="296" y="632" on="1"/>
        <pt x="798" y="1140" on="1"/>
        <pt x="1009" y="1140" on="1"/>
        <pt x="540" y="666" on="1"/>
        <pt x="1044" y="0" on="1"/>
        <pt x="856" y="0" on="1"/>
        <pt x="434" y="558" on="1"/>
        <pt x="296" y="418" on="1"/>
        <pt x="296" y="0" on="1"/>
        <pt x="146" y="0" on="1"/>
        <pt x="146" y="1500" on="1"/>
        <pt x="296" y="1500" on="1"/>
      </contour>
    </TTGlyph>
    <TTGlyph name="l" xMin="150" yMin="0" xMax="300" yMax="1500">
      <contour>
        <pt x="300" y="1500" on="1"/>
        <pt x="300" y="0" on="1"/>
        <pt x="150" y="0" on="1"/>
        <pt x="150" y="1500" on="1"/>
      </contour>
    </TTGlyph>
    <TTGlyph name="less" xMin="201" yMin="79" xMax="1275" yMax="1225">
      <contour>
        <pt x="1275" y="79" on="1"/>
        <pt x="201" y="592" on="1"/>
        <pt x="201" y="712" on="1"/>
        <pt x="1275" y="1225" on="1"/>
        <pt x="1275" y="1047" on="1"/>
        <pt x="442" y="652" on="1"/>
        <pt x="1275" y="257" on="1"/>
      </contour>
    </TTGlyph>
    <TTGlyph name="m" xMin="146" yMin="0" xMax="1596" yMax="1140">
      <contour>
        <pt x="946" y="700" on="1"/>
        <pt x="946" y="0" on="1"/>
        <pt x="796" y="0" on="1"/>
        <pt x="796" y="710" on="1"/>
        <pt x="796" y="990" on="0"/>
        <pt x="576" y="990" on="1"/>
        <pt x="439" y="990" on="0"/>
        <pt x="296" y="748" on="0"/>
        <pt x="296" y="700" on="1"/>
        <pt x="296" y="0" on="1"/>
        <pt x="146" y="0" on="1"/>
        <pt x="146" y="1140" on="1"/>
        <pt x="296" y="1140" on="1"/>
        <pt x="296" y="943" on="1"/>
        <pt x="432" y="1140" on="0"/>
        <pt x="606" y="1140" on="1"/>
        <pt x="853" y="1140" on="0"/>
        <pt x="920" y="908" on="1"/>
        <pt x="946" y="943" on="1"/>
        <pt x="1082" y="1140" on="0"/>
        <pt x="1256" y="1140" on="1"/>
        <pt x="1596" y="1140" on="0"/>
        <pt x="1596" y="700" on="1"/>
        <pt x="1596" y="0" on="1"/>
        <pt x="1446" y="0" on="1"/>
        <pt x="1446" y="710" on="1"/>
        <pt x="1446" y="990" on="0"/>
        <pt x="1226" y="990" on="1"/>
        <pt x="1089" y="990" on="0"/>
        <pt x="946" y="748" on="0"/>
      </contour>
    </TTGlyph>
    <TTGlyph name="n" xMin="148" yMin="0" xMax="1048" yMax="1140">
      <contour>
        <pt x="898" y="0" on="1"/>
        <pt x="898" y="710" on="1"/>
        <pt x="898" y="990" on="0"/>
        <pt x="638" y="990" on="1"/>
        <pt x="501" y="990" on="0"/>
        <pt x="298" y="748" on="0"/>
        <pt x="298" y="700" on="1"/>
        <pt x="298" y="0" on="1"/>
        <pt x="148" y="0" on="1"/>
        <pt x="148" y="1140" on="1"/>
        <pt x="298" y="1140" on="1"/>
        <pt x="298" y="943" on="1"/>
        <pt x="454" y="1140" on="0"/>
        <pt x="638" y="1140" on="1"/>
        <pt x="1048" y="1140" on="0"/>
        <pt x="1048" y="710" on="1"/>
        <pt x="1048" y="0" on="1"/>
      </contour>
    </TTGlyph>
    <TTGlyph name="nine" xMin="67" yMin="-29" xMax="1033" yMax="1519">
      <contour>
        <pt x="832" y="877" on="1"/>
        <pt x="832" y="1029" on="0"/>
        <pt x="776" y="1220" on="0"/>
        <pt x="727" y="1272" on="1"/>
        <pt x="683" y="1320" on="0"/>
        <pt x="593" y="1356" on="0"/>
        <pt x="539" y="1356" on="1"/>
        <pt x="416" y="1356" on="0"/>
        <pt x="270" y="1180" on="0"/>
        <pt x="270" y="1013" on="1"/>
        <pt x="270" y="919" on="0"/>
        <pt x="318" y="797" on="0"/>
        <pt x="372" y="753" on="1"/>
        <pt x="410" y="722" on="0"/>
        <pt x="506" y="701" on="0"/>
        <pt x="561" y="701" on="1"/>
        <pt x="625" y="701" on="0"/>
        <pt x="773" y="746" on="0"/>
        <pt x="828" y="783" on="1"/>
        <pt x="829" y="798" on="0"/>
        <pt x="832" y="847" on="0"/>
      </contour>
      <contour>
        <pt x="67" y="1005" on="1"/>
        <pt x="67" y="1120" on="0"/>
        <pt x="142" y="1310" on="0"/>
        <pt x="207" y="1379" on="1"/>
        <pt x="269" y="1445" on="0"/>
        <pt x="448" y="1519" on="0"/>
        <pt x="540" y="1519" on="1"/>
        <pt x="643" y="1519" on="0"/>
        <pt x="810" y="1450" on="0"/>
        <pt x="871" y="1385" on="1"/>
        <pt x="948" y="1303" on="0"/>
        <pt x="1033" y="1037" on="0"/>
        <pt x="1033" y="834" on="1"/>
        <pt x="1033" y="649" on="0"/>
        <pt x="950" y="318" on="0"/>
        <pt x="869" y="209" on="1"/>
        <pt x="783" y="93" on="0"/>
        <pt x="542" y="-29" on="0"/>
        <pt x="365" y="-29" on="1"/>
        <pt x="325" y="-29" on="0"/>
        <pt x="235" y="-20" on="0"/>
        <pt x="196" y="-8" on="1"/>
        <pt x="196" y="183" on="1"/>
        <pt x="206" y="183" on="1"/>
        <pt x="231" y="169" on="0"/>
        <pt x="337" y="143" on="0"/>
        <pt x="392" y="143" on="1"/>
        <pt x="588" y="143" on="0"/>
        <pt x="812" y="401" on="0"/>
        <pt x="827" y="641" on="1"/>
        <pt x="747" y="587" on="0"/>
        <pt x="602" y="537" on="0"/>
        <pt x="517" y="537" on="1"/>
        <pt x="434" y="537" on="0"/>
        <pt x="298" y="573" on="0"/>
        <pt x="229" y="625" on="1"/>
        <pt x="149" y="686" on="0"/>
        <pt x="67" y="873" on="0"/>
      </contour>
    </TTGlyph>
    <TTGlyph name="numbersign" xMin="142" yMin="0" xMax="1348" yMax="1489">
      <contour>
        <pt x="1348" y="932" on="1"/>
        <pt x="1055" y="932" on="1"/>
        <pt x="963" y="556" on="1"/>
        <pt x="1231" y="556" on="1"/>
        <pt x="1231" y="421" on="1"/>
        <pt x="928" y="421" on="1"/>
        <pt x="823" y="0" on="1"/>
        <pt x="694" y="0" on="1"/>
        <pt x="799" y="421" on="1"/>
        <pt x="529" y="421" on="1"/>
        <pt x="424" y="0" on="1"/>
        <pt x="295" y="0" on="1"/>
        <pt x="400" y="421" on="1"/>
        <pt x="142" y="421" on="1"/>
        <pt x="142" y="556" on="1"/>
        <pt x="435" y="556" on="1"/>
        <pt x="527" y="932" on="1"/>
        <pt x="259" y="932" on="1"/>
        <pt x="259" y="1067" on="1"/>
        <pt x="562" y="1067" on="1"/>
        <pt x="667" y="1489" on="1"/>
        <pt x="796" y="1489" on="1"/>
        <pt x="691" y="1067" on="1"/>
        <pt x="961" y="1067" on="1"/>
        <pt x="1066" y="1489" on="1"/>
        <pt x="1195" y="1489" on="1"/>
        <pt x="1090" y="1067" on="1"/>
        <pt x="1348" y="1067" on="1"/>
      </contour>
      <contour>
        <pt x="929" y="934" on="1"/>
        <pt x="655" y="934" on="1"/>
        <pt x="561" y="554" on="1"/>
        <pt x="835" y="554" on="1"/>
      </contour>
    </TTGlyph>
    <TTGlyph name="o" xMin="67" yMin="0" xMax="1017" yMax="1140">
      <contour>
        <pt x="867" y="353" on="0"/>
        <pt x="867" y="570" on="1"/>
        <pt x="867" y="788" on="0"/>
        <pt x="790" y="889" on="1"/>
        <pt x="712" y="990" on="0"/>
        <pt x="542" y="990" on="1"/>
        <pt x="372" y="990" on="0"/>
        <pt x="295" y="889" on="1"/>
        <pt x="217" y="788" on="0"/>
        <pt x="217" y="570" on="1"/>
        <pt x="217" y="353" on="0"/>
        <pt x="295" y="252" on="1"/>
        <pt x="372" y="150" on="0"/>
        <pt x="542" y="150" on="1"/>
        <pt x="712" y="150" on="0"/>
        <pt x="790" y="252" on="1"/>
      </contour>
      <contour>
        <pt x="67" y="285" on="0"/>
        <pt x="67" y="570" on="1"/>
        <pt x="67" y="855" on="0"/>
        <pt x="186" y="998" on="1"/>
        <pt x="305" y="1140" on="0"/>
        <pt x="542" y="1140" on="1"/>
        <pt x="780" y="1140" on="0"/>
        <pt x="899" y="998" on="1"/>
        <pt x="1017" y="855" on="0"/>
        <pt x="1017" y="570" on="1"/>
        <pt x="1017" y="285" on="0"/>
        <pt x="899" y="143" on="1"/>
        <pt x="780" y="0" on="0"/>
        <pt x="542" y="0" on="1"/>
        <pt x="305" y="0" on="0"/>
        <pt x="186" y="143" on="1"/>
      </contour>
    </TTGlyph>
    <TTGlyph name="one" xMin="226" yMin="0" xMax="952" yMax="1494">
      <contour>
        <pt x="952" y="0" on="1"/>
        <pt x="226" y="0" on="1"/>
        <pt x="226" y="152" on="1"/>
        <pt x="496" y="152" on="1"/>
        <pt x="496" y="1150" on="1"/>
        <pt x="226" y="1150" on="1"/>
        <pt x="226" y="1286" on="1"/>
        <pt x="379" y="1286" on="0"/>
        <pt x="524" y="1373" on="0"/>
        <pt x="533" y="1494" on="1"/>
        <pt x="688" y="1494" on="1"/>
        <pt x="688" y="152" on="1"/>
        <pt x="952" y="152" on="1"/>
      </contour>
    </TTGlyph>
    <TTGlyph name="p" xMin="146" yMin="-360" xMax="1046" yMax="1140">
      <contour>
        <pt x="296" y="973" on="1"/>
        <pt x="392" y="1140" on="0"/>
        <pt x="596" y="1140" on="1"/>
        <pt x="1046" y="1140" on="0"/>
        <pt x="1046" y="570" on="1"/>
        <pt x="1046" y="0" on="0"/>
        <pt x="596" y="0" on="1"/>
        <pt x="392" y="0" on="0"/>
        <pt x="296" y="167" on="1"/>
        <pt x="296" y="-360" on="1"/>
        <pt x="146" y="-360" on="1"/>
        <pt x="146" y="1140" on="1"/>
        <pt x="296" y="1140" on="1"/>
      </contour>
      <contour>
        <pt x="449" y="150" on="0"/>
        <pt x="596" y="150" on="1"/>
        <pt x="896" y="150" on="0"/>
        <pt x="896" y="570" on="1"/>
        <pt x="896" y="990" on="0"/>
        <pt x="596" y="990" on="1"/>
        <pt x="449" y="990" on="0"/>
        <pt x="296" y="767" on="0"/>
        <pt x="296" y="570" on="1"/>
        <pt x="296" y="372" on="0"/>
      </contour>
    </TTGlyph>
    <TTGlyph name="parenleft" xMin="108" yMin="-412" xMax="710" yMax="1556">
      <contour>
        <pt x="710" y="-412" on="1"/>
        <pt x="481" y="-412" on="1"/>
        <pt x="307" y="-205" on="0"/>
        <pt x="108" y="257" on="0"/>
        <pt x="108" y="572" on="1"/>
        <pt x="108" y="880" on="0"/>
        <pt x="305" y="1349" on="0"/>
        <pt x="481" y="1556" on="1"/>
        <pt x="710" y="1556" on="1"/>
        <pt x="710" y="1546" on="1"/>
        <pt x="629" y="1473" on="0"/>
        <pt x="482" y="1282" on="0"/>
        <pt x="419" y="1155" on="1"/>
        <pt x="359" y="1032" on="0"/>
        <pt x="284" y="736" on="0"/>
        <pt x="284" y="572" on="1"/>
        <pt x="284" y="401" on="0"/>
        <pt x="357" y="117" on="0"/>
        <pt x="419" y="-11" on="1"/>
        <pt x="479" y="-134" on="0"/>
        <pt x="633" y="-333" on="0"/>
        <pt x="710" y="-402" on="1"/>
      </contour>
    </TTGlyph>
    <TTGlyph name="parenright" xMin="74" yMin="-412" xMax="676" yMax="1556">
      <contour>
        <pt x="676" y="572" on="1"/>
        <pt x="676" y="263" on="0"/>
        <pt x="478" y="-205" on="0"/>
        <pt x="303" y="-412" on="1"/>
        <pt x="74" y="-412" on="1"/>
        <pt x="74" y="-402" on="1"/>
        <pt x="151" y="-333" on="0"/>
        <pt x="307" y="-132" on="0"/>
        <pt x="365" y="-11" on="1"/>
        <pt x="427" y="118" on="0"/>
        <pt x="500" y="405" on="0"/>
        <pt x="500" y="572" on="1"/>
        <pt x="500" y="737" on="0"/>
        <pt x="426" y="1031" on="0"/>
        <pt x="365" y="1155" on="1"/>
        <pt x="304" y="1279" on="0"/>
        <pt x="150" y="1477" on="0"/>
        <pt x="74" y="1546" on="1"/>
        <pt x="74" y="1556" on="1"/>
        <pt x="303" y="1556" on="1"/>
        <pt x="477" y="1349" on="0"/>
        <pt x="676" y="883" on="0"/>
      </contour>
    </TTGlyph>
    <TTGlyph name="percent" xMin="102" yMin="-29" xMax="1897" yMax="1517">
      <contour>
        <pt x="807" y="1076" on="1"/>
        <pt x="807" y="851" on="0"/>
        <pt x="626" y="634" on="0"/>
        <pt x="455" y="634" on="1"/>
        <pt x="281" y="634" on="0"/>
        <pt x="102" y="854" on="0"/>
        <pt x="102" y="1075" on="1"/>
        <pt x="102" y="1299" on="0"/>
        <pt x="284" y="1517" on="0"/>
        <pt x="455" y="1517" on="1"/>
        <pt x="629" y="1517" on="0"/>
        <pt x="807" y="1297" on="0"/>
      </contour>
      <contour>
        <pt x="1473" y="1489" on="1"/>
        <pt x="693" y="0" on="1"/>
        <pt x="528" y="0" on="1"/>
        <pt x="1308" y="1489" on="1"/>
      </contour>
      <contour>
        <pt x="1897" y="413" on="1"/>
        <pt x="1897" y="188" on="0"/>
        <pt x="1716" y="-29" on="0"/>
        <pt x="1545" y="-29" on="1"/>
        <pt x="1371" y="-29" on="0"/>
        <pt x="1192" y="191" on="0"/>
        <pt x="1192" y="412" on="1"/>
        <pt x="1192" y="636" on="0"/>
        <pt x="1374" y="854" on="0"/>
        <pt x="1545" y="854" on="1"/>
        <pt x="1719" y="854" on="0"/>
        <pt x="1897" y="634" on="0"/>
      </contour>
      <contour>
        <pt x="629" y="1076" on="1"/>
        <pt x="629" y="1228" on="0"/>
        <pt x="558" y="1384" on="0"/>
        <pt x="455" y="1384" on="1"/>
        <pt x="352" y="1384" on="0"/>
        <pt x="280" y="1226" on="0"/>
        <pt x="280" y="1075" on="1"/>
        <pt x="280" y="925" on="0"/>
        <pt x="348" y="767" on="0"/>
        <pt x="455" y="767" on="1"/>
        <pt x="558" y="767" on="0"/>
        <pt x="629" y="925" on="0"/>
      </contour>
      <contour>
        <pt x="1719" y="413" on="1"/>
        <pt x="1719" y="565" on="0"/>
        <pt x="1648" y="721" on="0"/>
        <pt x="1545" y="721" on="1"/>
        <pt x="1442" y="721" on="0"/>
        <pt x="1370" y="563" on="0"/>
        <pt x="1370" y="412" on="1"/>
        <pt x="1370" y="262" on="0"/>
        <pt x="1438" y="104" on="0"/>
        <pt x="1545" y="104" on="1"/>
        <pt x="1648" y="104" on="0"/>
        <pt x="1719" y="262" on="0"/>
      </contour>
    </TTGlyph>
    <TTGlyph name="period" xMin="190" yMin="0" xMax="429" yMax="285">
      <contour>
        <pt x="429" y="0" on="1"/>
        <pt x="190" y="0" on="1"/>
        <pt x="190" y="285" on="1"/>
        <pt x="429" y="285" on="1"/>
      </contour>
    </TTGlyph>
    <TTGlyph name="plus" xMin="157" yMin="67" xMax="1333" yMax="1237">
      <contour>
        <pt x="1333" y="572" on="1"/>
        <pt x="828" y="572" on="1"/>
        <pt x="828" y="67" on="1"/>
        <pt x="662" y="67" on="1"/>
        <pt x="662" y="572" on="1"/>
        <pt x="157" y="572" on="1"/>
        <pt x="157" y="732" on="1"/>
        <pt x="662" y="732" on="1"/>
        <pt x="662" y="1237" on="1"/>
        <pt x="828" y="1237" on="1"/>
        <pt x="828" y="732" on="1"/>
        <pt x="1333" y="732" on="1"/>
      </contour>
    </TTGlyph>
    <TTGlyph name="q" xMin="69" yMin="-360" xMax="969" yMax="1140">
      <contour>
        <pt x="819" y="1140" on="1"/>
        <pt x="969" y="1140" on="1"/>
        <pt x="969" y="-360" on="1"/>
        <pt x="819" y="-360" on="1"/>
        <pt x="819" y="167" on="1"/>
        <pt x="723" y="0" on="0"/>
        <pt x="519" y="0" on="1"/>
        <pt x="69" y="0" on="0"/>
        <pt x="69" y="570" on="1"/>
        <pt x="69" y="1140" on="0"/>
        <pt x="519" y="1140" on="1"/>
        <pt x="723" y="1140" on="0"/>
        <pt x="819" y="973" on="1"/>
      </contour>
      <contour>
        <pt x="819" y="372" on="0"/>
        <pt x="819" y="570" on="1"/>
        <pt x="819" y="767" on="0"/>
        <pt x="666" y="990" on="0"/>
        <pt x="519" y="990" on="1"/>
        <pt x="219" y="990" on="0"/>
        <pt x="219" y="570" on="1"/>
        <pt x="219" y="150" on="0"/>
        <pt x="519" y="150" on="1"/>
        <pt x="666" y="150" on="0"/>
      </contour>
    </TTGlyph>
    <TTGlyph name="question" xMin="109" yMin="0" xMax="912" yMax="1519">
      <contour>
        <pt x="912" y="1139" on="1"/>
        <pt x="912" y="1041" on="0"/>
        <pt x="847" y="888" on="0"/>
        <pt x="793" y="830" on="1"/>
        <pt x="739" y="772" on="0"/>
        <pt x="602" y="674" on="0"/>
        <pt x="526" y="628" on="1"/>
        <pt x="526" y="400" on="1"/>
        <pt x="347" y="400" on="1"/>
        <pt x="347" y="705" on="1"/>
        <pt x="403" y="739" on="0"/>
        <pt x="552" y="834" on="0"/>
        <pt x="594" y="875" on="1"/>
        <pt x="648" y="926" on="0"/>
        <pt x="708" y="1047" on="0"/>
        <pt x="708" y="1124" on="1"/>
        <pt x="708" y="1237" on="0"/>
        <pt x="566" y="1348" on="0"/>
        <pt x="452" y="1348" on="1"/>
        <pt x="352" y="1348" on="0"/>
        <pt x="175" y="1281" on="0"/>
        <pt x="120" y="1245" on="1"/>
        <pt x="109" y="1245" on="1"/>
        <pt x="109" y="1449" on="1"/>
        <pt x="176" y="1476" on="0"/>
        <pt x="380" y="1519" on="0"/>
        <pt x="471" y="1519" on="1"/>
        <pt x="676" y="1519" on="0"/>
        <pt x="912" y="1310" on="0"/>
      </contour>
      <contour>
        <pt x="542" y="0" on="1"/>
        <pt x="338" y="0" on="1"/>
        <pt x="338" y="211" on="1"/>
        <pt x="542" y="211" on="1"/>
      </contour>
    </TTGlyph>
    <TTGlyph name="quotedbl" xMin="114" yMin="977" xMax="708" yMax="1556">
      <contour>
        <pt x="708" y="1556" on="1"/>
        <pt x="665" y="977" on="1"/>
        <pt x="533" y="977" on="1"/>
        <pt x="490" y="1556" on="1"/>
      </contour>
      <contour>
        <pt x="332" y="1556" on="1"/>
        <pt x="289" y="977" on="1"/>
        <pt x="157" y="977" on="1"/>
        <pt x="114" y="1556" on="1"/>
      </contour>
    </TTGlyph>
    <TTGlyph name="quotesingle" xMin="105" yMin="977" xMax="327" yMax="1556">
      <contour>
        <pt x="327" y="1556" on="1"/>
        <pt x="284" y="977" on="1"/>
        <pt x="148" y="977" on="1"/>
        <pt x="105" y="1556" on="1"/>
      </contour>
    </TTGlyph>
    <TTGlyph name="r" xMin="146" yMin="0" xMax="656" yMax="1140">
      <contour>
        <pt x="656" y="990" on="1"/>
        <pt x="509" y="990" on="0"/>
        <pt x="296" y="748" on="0"/>
        <pt x="296" y="700" on="1"/>
        <pt x="296" y="0" on="1"/>
        <pt x="146" y="0" on="1"/>
        <pt x="146" y="1140" on="1"/>
        <pt x="296" y="1140" on="1"/>
        <pt x="296" y="943" on="1"/>
        <pt x="462" y="1140" on="0"/>
        <pt x="656" y="1140" on="1"/>
      </contour>
    </TTGlyph>
    <TTGlyph name="s" xMin="77" yMin="0" xMax="977" yMax="1140">
      <contour>
        <pt x="77" y="0" on="0"/>
        <pt x="77" y="361" on="1"/>
        <pt x="227" y="361" on="1"/>
        <pt x="227" y="150" on="0"/>
        <pt x="527" y="150" on="1"/>
        <pt x="827" y="150" on="0"/>
        <pt x="827" y="350" on="1"/>
        <pt x="827" y="457" on="0"/>
        <pt x="635" y="507" on="1"/>
        <pt x="475" y="546" on="1"/>
        <pt x="107" y="635" on="0"/>
        <pt x="107" y="850" on="1"/>
        <pt x="107" y="1140" on="0"/>
        <pt x="527" y="1140" on="1"/>
        <pt x="947" y="1140" on="0"/>
        <pt x="947" y="818" on="1"/>
        <pt x="797" y="818" on="1"/>
        <pt x="797" y="990" on="0"/>
        <pt x="527" y="990" on="1"/>
        <pt x="257" y="990" on="0"/>
        <pt x="257" y="850" on="1"/>
        <pt x="257" y="743" on="0"/>
        <pt x="518" y="676" on="1"/>
        <pt x="678" y="637" on="1"/>
        <pt x="977" y="565" on="0"/>
        <pt x="977" y="350" on="1"/>
        <pt x="977" y="0" on="0"/>
        <pt x="527" y="0" on="1"/>
      </contour>
    </TTGlyph>
    <TTGlyph name="semicolon" xMin="122" yMin="-370" xMax="548" yMax="1117">
      <contour>
        <pt x="482" y="832" on="1"/>
        <pt x="243" y="832" on="1"/>
        <pt x="243" y="1117" on="1"/>
        <pt x="482" y="1117" on="1"/>
      </contour>
      <contour>
        <pt x="548" y="285" on="1"/>
        <pt x="268" y="-370" on="1"/>
        <pt x="122" y="-370" on="1"/>
        <pt x="298" y="285" on="1"/>
      </contour>
    </TTGlyph>
    <TTGlyph name="seven" xMin="99" yMin="0" xMax="1044" yMax="1489">
      <contour>
        <pt x="1044" y="1266" on="1"/>
        <pt x="400" y="0" on="1"/>
        <pt x="187" y="0" on="1"/>
        <pt x="869" y="1314" on="1"/>
        <pt x="99" y="1314" on="1"/>
        <pt x="99" y="1489" on="1"/>
        <pt x="1044" y="1489" on="1"/>
      </contour>
    </TTGlyph>
    <TTGlyph name="six" xMin="85" yMin="-31" xMax="1051" yMax="1517">
      <contour>
        <pt x="1051" y="483" on="1"/>
        <pt x="1051" y="368" on="0"/>
        <pt x="975" y="174" on="0"/>
        <pt x="911" y="109" on="1"/>
        <pt x="844" y="40" on="0"/>
        <pt x="678" y="-31" on="0"/>
        <pt x="578" y="-31" on="1"/>
        <pt x="477" y="-31" on="0"/>
        <pt x="312" y="37" on="0"/>
        <pt x="249" y="104" on="1"/>
        <pt x="172" y="185" on="0"/>
        <pt x="85" y="456" on="0"/>
        <pt x="85" y="654" on="1"/>
        <pt x="85" y="848" on="0"/>
        <pt x="165" y="1161" on="0"/>
        <pt x="248" y="1277" on="1"/>
        <pt x="329" y="1390" on="0"/>
        <pt x="585" y="1517" on="0"/>
        <pt x="753" y="1517" on="1"/>
        <pt x="803" y="1517" on="0"/>
        <pt x="889" y="1507" on="0"/>
        <pt x="922" y="1496" on="1"/>
        <pt x="922" y="1305" on="1"/>
        <pt x="913" y="1305" on="1"/>
        <pt x="886" y="1320" on="0"/>
        <pt x="784" y="1345" on="0"/>
        <pt x="726" y="1345" on="1"/>
        <pt x="540" y="1345" on="0"/>
        <pt x="311" y="1094" on="0"/>
        <pt x="290" y="847" on="1"/>
        <pt x="361" y="897" on="0"/>
        <pt x="511" y="951" on="0"/>
        <pt x="600" y="951" on="1"/>
        <pt x="687" y="951" on="0"/>
        <pt x="818" y="916" on="0"/>
        <pt x="889" y="863" on="1"/>
        <pt x="971" y="801" on="0"/>
        <pt x="1051" y="611" on="0"/>
      </contour>
      <contour>
        <pt x="848" y="475" on="1"/>
        <pt x="848" y="567" on="0"/>
        <pt x="800" y="691" on="0"/>
        <pt x="746" y="735" on="1"/>
        <pt x="707" y="767" on="0"/>
        <pt x="608" y="787" on="0"/>
        <pt x="556" y="787" on="1"/>
        <pt x="486" y="787" on="0"/>
        <pt x="354" y="745" on="0"/>
        <pt x="290" y="705" on="1"/>
        <pt x="288" y="683" on="0"/>
        <pt x="286" y="642" on="0"/>
        <pt x="286" y="611" on="1"/>
        <pt x="286" y="456" on="0"/>
        <pt x="347" y="266" on="0"/>
        <pt x="392" y="217" on="1"/>
        <pt x="435" y="170" on="0"/>
        <pt x="526" y="132" on="0"/>
        <pt x="579" y="132" on="1"/>
        <pt x="699" y="132" on="0"/>
        <pt x="848" y="304" on="0"/>
      </contour>
    </TTGlyph>
    <TTGlyph name="slash" xMin="-24" yMin="-324" xMax="728" yMax="1556">
      <contour>
        <pt x="728" y="1556" on="1"/>
        <pt x="145" y="-324" on="1"/>
        <pt x="-24" y="-324" on="1"/>
        <pt x="556" y="1556" on="1"/>
      </contour>
    </TTGlyph>
    <TTGlyph name="t" xMin="31" yMin="0" xMax="551" yMax="1500">
      <contour>
        <pt x="192" y="990" on="1"/>
        <pt x="31" y="990" on="1"/>
        <pt x="31" y="1140" on="1"/>
        <pt x="192" y="1140" on="1"/>
        <pt x="192" y="1500" on="1"/>
        <pt x="342" y="1500" on="1"/>
        <pt x="342" y="1140" on="1"/>
        <pt x="551" y="1140" on="1"/>
        <pt x="551" y="990" on="1"/>
        <pt x="342" y="990" on="1"/>
        <pt x="342" y="290" on="1"/>
        <pt x="342" y="150" on="0"/>
        <pt x="551" y="150" on="1"/>
        <pt x="551" y="0" on="1"/>
        <pt x="192" y="0" on="0"/>
        <pt x="192" y="290" on="1"/>
      </contour>
    </TTGlyph>
    <TTGlyph name="three" xMin="97" yMin="-31" xMax="1002" yMax="1520">
      <contour>
        <pt x="511" y="1347" on="1"/>
        <pt x="457" y="1347" on="0"/>
        <pt x="349" y="1321" on="0"/>
        <pt x="297" y="1300" on="1"/>
        <pt x="249" y="1280" on="0"/>
        <pt x="178" y="1236" on="0"/>
        <pt x="150" y="1217" on="1"/>
        <pt x="138" y="1217" on="1"/>
        <pt x="138" y="1428" on="1"/>
        <pt x="203" y="1463" on="0"/>
        <pt x="426" y="1520" on="0"/>
        <pt x="527" y="1520" on="1"/>
        <pt x="628" y="1520" on="0"/>
        <pt x="779" y="1479" on="0"/>
        <pt x="840" y="1436" on="1"/>
        <pt x="906" y="1388" on="0"/>
        <pt x="973" y="1252" on="0"/>
        <pt x="973" y="1161" on="1"/>
        <pt x="973" y="1038" on="0"/>
        <pt x="811" y="852" on="0"/>
        <pt x="698" y="827" on="1"/>
        <pt x="698" y="813" on="1"/>
        <pt x="745" y="804" on="0"/>
        <pt x="852" y="760" on="0"/>
        <pt x="898" y="717" on="1"/>
        <pt x="944" y="674" on="0"/>
        <pt x="1002" y="539" on="0"/>
        <pt x="1002" y="442" on="1"/>
        <pt x="1002" y="341" on="0"/>
        <pt x="933" y="172" on="0"/>
        <pt x="870" y="107" on="1"/>
        <pt x="805" y="39" on="0"/>
        <pt x="621" y="-31" on="0"/>
        <pt x="504" y="-31" on="1"/>
        <pt x="392" y="-31" on="0"/>
        <pt x="172" y="23" on="0"/>
        <pt x="97" y="61" on="1"/>
        <pt x="97" y="272" on="1"/>
        <pt x="111" y="272" on="1"/>
        <pt x="174" y="226" on="0"/>
        <pt x="386" y="142" on="0"/>
        <pt x="492" y="142" on="1"/>
        <pt x="553" y="142" on="0"/>
        <pt x="676" y="181" on="0"/>
        <pt x="717" y="225" on="1"/>
        <pt x="757" y="269" on="0"/>
        <pt x="799" y="375" on="0"/>
        <pt x="799" y="456" on="1"/>
        <pt x="799" y="537" on="0"/>
        <pt x="752" y="641" on="0"/>
        <pt x="710" y="671" on="1"/>
        <pt x="668" y="701" on="0"/>
        <pt x="553" y="724" on="0"/>
        <pt x="486" y="724" on="1"/>
        <pt x="401" y="724" on="1"/>
        <pt x="401" y="890" on="1"/>
        <pt x="467" y="890" on="1"/>
        <pt x="602" y="890" on="0"/>
        <pt x="771" y="1018" on="0"/>
        <pt x="771" y="1140" on="1"/>
        <pt x="771" y="1196" on="0"/>
        <pt x="727" y="1277" on="0"/>
        <pt x="693" y="1301" on="1"/>
        <pt x="655" y="1327" on="0"/>
        <pt x="563" y="1347" on="0"/>
      </contour>
    </TTGlyph>
    <TTGlyph name="two" xMin="109" yMin="0" xMax="1028" yMax="1520">
      <contour>
        <pt x="1028" y="0" on="1"/>
        <pt x="109" y="0" on="1"/>
        <pt x="109" y="209" on="1"/>
        <pt x="208" y="303" on="0"/>
        <pt x="384" y="475" on="0"/>
        <pt x="468" y="568" on="1"/>
        <pt x="638" y="755" on="0"/>
        <pt x="762" y="980" on="0"/>
        <pt x="762" y="1100" on="1"/>
        <pt x="762" y="1162" on="0"/>
        <pt x="723" y="1256" on="0"/>
        <pt x="689" y="1287" on="1"/>
        <pt x="654" y="1317" on="0"/>
        <pt x="562" y="1347" on="0"/>
        <pt x="507" y="1347" on="1"/>
        <pt x="454" y="1347" on="0"/>
        <pt x="345" y="1320" on="0"/>
        <pt x="295" y="1300" on="1"/>
        <pt x="253" y="1283" on="0"/>
        <pt x="175" y="1235" on="0"/>
        <pt x="151" y="1218" on="1"/>
        <pt x="140" y="1218" on="1"/>
        <pt x="140" y="1430" on="1"/>
        <pt x="202" y="1461" on="0"/>
        <pt x="423" y="1520" on="0"/>
        <pt x="522" y="1520" on="1"/>
        <pt x="730" y="1520" on="0"/>
        <pt x="966" y="1299" on="0"/>
        <pt x="966" y="1110" on="1"/>
        <pt x="966" y="1023" on="0"/>
        <pt x="925" y="875" on="0"/>
        <pt x="889" y="812" on="1"/>
        <pt x="852" y="747" on="0"/>
        <pt x="748" y="619" on="0"/>
        <pt x="690" y="557" on="1"/>
        <pt x="596" y="455" on="0"/>
        <pt x="365" y="235" on="0"/>
        <pt x="296" y="171" on="1"/>
        <pt x="1028" y="171" on="1"/>
      </contour>
    </TTGlyph>
    <TTGlyph name="u" xMin="136" yMin="0" xMax="1036" yMax="1140">
      <contour>
        <pt x="286" y="1140" on="1"/>
        <pt x="286" y="430" on="1"/>
        <pt x="286" y="150" on="0"/>
        <pt x="546" y="150" on="1"/>
        <pt x="683" y="150" on="0"/>
        <pt x="886" y="392" on="0"/>
        <pt x="886" y="440" on="1"/>
        <pt x="886" y="1140" on="1"/>
        <pt x="1036" y="1140" on="1"/>
        <pt x="1036" y="0" on="1"/>
        <pt x="886" y="0" on="1"/>
        <pt x="886" y="197" on="1"/>
        <pt x="730" y="0" on="0"/>
        <pt x="546" y="0" on="1"/>
        <pt x="136" y="0" on="0"/>
        <pt x="136" y="430" on="1"/>
        <pt x="136" y="1140" on="1"/>
      </contour>
    </TTGlyph>
    <TTGlyph name="underscore" xMin="-16" yMin="-376" xMax="1213" yMax="-241">
      <contour>
        <pt x="1213" y="-241" on="1"/>
        <pt x="1213" y="-376" on="1"/>
        <pt x="-16" y="-376" on="1"/>
        <pt x="-16" y="-241" on="1"/>
      </contour>
    </TTGlyph>
    <TTGlyph name="uni1780" xMin="100" yMin="0" xMax="1200" yMax="1300">
      <contour>
        <pt x="1100" y="0" on="1"/>
        <pt x="850" y="0" on="1"/>
        <pt x="850" y="650" on="1"/>
        <pt x="850" y="803" on="0"/>
        <pt x="700" y="803" on="1"/>
        <pt x="600" y="803" on="1"/>
        <pt x="450" y="803" on="0"/>
        <pt x="450" y="650" on="1"/>
        <pt x="450" y="0" on="1"/>
        <pt x="200" y="0" on="1"/>
        <pt x="200" y="650" on="1"/>
        <pt x="200" y="903" on="0"/>
        <pt x="600" y="903" on="1"/>
        <pt x="700" y="903" on="1"/>
        <pt x="1100" y="903" on="0"/>
        <pt x="1100" y="650" on="1"/>
      </contour>
      <contour>
        <pt x="252" y="850" on="1"/>
        <pt x="100" y="897" on="0"/>
        <pt x="100" y="1049" on="1"/>
        <pt x="100" y="1126" on="0"/>
        <pt x="342" y="1300" on="0"/>
        <pt x="394" y="1300" on="1"/>
        <pt x="433" y="1300" on="0"/>
        <pt x="539" y="1213" on="1"/>
        <pt x="592" y="1172" on="1"/>
        <pt x="627" y="1147" on="0"/>
        <pt x="650" y="1147" on="1"/>
        <pt x="673" y="1147" on="0"/>
        <pt x="701" y="1172" on="1"/>
        <pt x="763" y="1226" on="1"/>
        <pt x="852" y="1300" on="0"/>
        <pt x="888" y="1300" on="1"/>
        <pt x="923" y="1300" on="0"/>
        <pt x="982" y="1245" on="1"/>
        <pt x="1098" y="1133" on="1"/>
        <pt x="1128" y="1101" on="0"/>
        <pt x="1155" y="1101" on="1"/>
        <pt x="1181" y="1101" on="0"/>
        <pt x="1200" y="1116" on="1"/>
        <pt x="1150" y="957" on="0"/>
        <pt x="1065" y="957" on="1"/>
        <pt x="999" y="957" on="0"/>
        <pt x="952" y="1001" on="1"/>
        <pt x="889" y="1058" on="1"/>
        <pt x="845" y="1095" on="0"/>
        <pt x="820" y="1095" on="1"/>
        <pt x="797" y="1095" on="0"/>
        <pt x="650" y="957" on="0"/>
        <pt x="610" y="957" on="1"/>
        <pt x="537" y="957" on="0"/>
        <pt x="486" y="1001" on="1"/>
        <pt x="415" y="1061" on="1"/>
        <pt x="366" y="1095" on="0"/>
        <pt x="337" y="1095" on="1"/>
        <pt x="304" y="1095" on="0"/>
        <pt x="250" y="1068" on="0"/>
        <pt x="250" y="1034" on="1"/>
        <pt x="250" y="1013" on="0"/>
        <pt x="362" y="944" on="1"/>
      </contour>
    </TTGlyph>
    <TTGlyph name="uni178017B6" xMin="100" yMin="0" xMax="1750" yMax="1300">
      <contour>
        <pt x="1750" y="0" on="1"/>
        <pt x="1500" y="0" on="1"/>
        <pt x="1500" y="888" on="1"/>
        <pt x="1500" y="952" on="0"/>
        <pt x="1147" y="1090" on="0"/>
        <pt x="1067" y="1090" on="1"/>
        <pt x="1017" y="1090" on="0"/>
        <pt x="824" y="949" on="0"/>
        <pt x="771" y="949" on="1"/>
        <pt x="675" y="949" on="0"/>
        <pt x="608" y="994" on="1"/>
        <pt x="514" y="1055" on="1"/>
        <pt x="450" y="1090" on="0"/>
        <pt x="412" y="1090" on="1"/>
        <pt x="368" y="1090" on="0"/>
        <pt x="297" y="1062" on="0"/>
        <pt x="297" y="1028" on="1"/>
        <pt x="297" y="1007" on="0"/>
        <pt x="406" y="935" on="1"/>
        <pt x="258" y="842" on="1"/>
        <pt x="100" y="888" on="0"/>
        <pt x="100" y="1043" on="1"/>
        <pt x="100" y="1122" on="0"/>
        <pt x="418" y="1300" on="0"/>
        <pt x="487" y="1300" on="1"/>
        <pt x="538" y="1300" on="0"/>
        <pt x="677" y="1211" on="1"/>
        <pt x="747" y="1169" on="1"/>
        <pt x="793" y="1143" on="0"/>
        <pt x="824" y="1143" on="1"/>
        <pt x="854" y="1143" on="0"/>
        <pt x="891" y="1169" on="1"/>
        <pt x="972" y="1225" on="1"/>
        <pt x="1089" y="1300" on="0"/>
        <pt x="1153" y="1300" on="1"/>
        <pt x="1300" y="1300" on="0"/>
        <pt x="1419" y="1240" on="1"/>
        <pt x="1750" y="1078" on="0"/>
        <pt x="1750" y="888" on="1"/>
      </contour>
      <contour>
        <pt x="1100" y="0" on="1"/>
        <pt x="850" y="0" on="1"/>
        <pt x="850" y="650" on="1"/>
        <pt x="850" y="803" on="0"/>
        <pt x="700" y="803" on="1"/>
        <pt x="600" y="803" on="1"/>
        <pt x="450" y="803" on="0"/>
        <pt x="450" y="650" on="1"/>
        <pt x="450" y="0" on="1"/>
        <pt x="200" y="0" on="1"/>
        <pt x="200" y="650" on="1"/>
        <pt x="200" y="903" on="0"/>
        <pt x="600" y="903" on="1"/>
        <pt x="700" y="903" on="1"/>
        <pt x="1100" y="903" on="0"/>
        <pt x="1100" y="650" on="1"/>
      </contour>
    </TTGlyph>
    <TTGlyph name="uni178017C5" xMin="100" yMin="0" xMax="1800" yMax="1647">
      <contour>
        <pt x="1550" y="1166" on="1"/>
        <pt x="1550" y="1474" on="1"/>
        <pt x="1550" y="1560" on="0"/>
        <pt x="1450" y="1560" on="1"/>
        <pt x="1450" y="1647" on="0"/>
        <pt x="1575" y="1647" on="1"/>
        <pt x="1688" y="1647" on="1"/>
        <pt x="1800" y="1647" on="0"/>
        <pt x="1800" y="1474" on="1"/>
        <pt x="1800" y="1214" on="1"/>
        <pt x="1800" y="1127" on="0"/>
        <pt x="1714" y="1011" on="1"/>
        <pt x="1750" y="951" on="0"/>
        <pt x="1750" y="888" on="1"/>
        <pt x="1750" y="0" on="1"/>
        <pt x="1500" y="0" on="1"/>
        <pt x="1500" y="888" on="1"/>
        <pt x="1500" y="952" on="0"/>
        <pt x="1147" y="1090" on="0"/>
        <pt x="1067" y="1090" on="1"/>
        <pt x="1017" y="1090" on="0"/>
        <pt x="824" y="949" on="0"/>
        <pt x="771" y="949" on="1"/>
        <pt x="675" y="949" on="0"/>
        <pt x="608" y="994" on="1"/>
        <pt x="514" y="1055" on="1"/>
        <pt x="450" y="1090" on="0"/>
        <pt x="412" y="1090" on="1"/>
        <pt x="368" y="1090" on="0"/>
        <pt x="297" y="1062" on="0"/>
        <pt x="297" y="1028" on="1"/>
        <pt x="297" y="1007" on="0"/>
        <pt x="406" y="935" on="1"/>
        <pt x="258" y="842" on="1"/>
        <pt x="100" y="888" on="0"/>
        <pt x="100" y="1043" on="1"/>
        <pt x="100" y="1122" on="0"/>
        <pt x="418" y="1300" on="0"/>
        <pt x="487" y="1300" on="1"/>
        <pt x="538" y="1300" on="0"/>
        <pt x="677" y="1211" on="1"/>
        <pt x="747" y="1169" on="1"/>
        <pt x="793" y="1143" on="0"/>
        <pt x="824" y="1143" on="1"/>
        <pt x="854" y="1143" on="0"/>
        <pt x="891" y="1169" on="1"/>
        <pt x="972" y="1225" on="1"/>
        <pt x="1089" y="1300" on="0"/>
        <pt x="1153" y="1300" on="1"/>
        <pt x="1300" y="1300" on="0"/>
        <pt x="1419" y="1240" on="1"/>
        <pt x="1493" y="1204" on="0"/>
      </contour>
      <contour>
        <pt x="1100" y="0" on="1"/>
        <pt x="850" y="0" on="1"/>
        <pt x="850" y="650" on="1"/>
        <pt x="850" y="803" on="0"/>
        <pt x="700" y="803" on="1"/>
        <pt x="600" y="803" on="1"/>
        <pt x="450" y="803" on="0"/>
        <pt x="450" y="650" on="1"/>
        <pt x="450" y="0" on="1"/>
        <pt x="200" y="0" on="1"/>
        <pt x="200" y="650" on="1"/>
        <pt x="200" y="903" on="0"/>
        <pt x="600" y="903" on="1"/>
        <pt x="700" y="903" on="1"/>
        <pt x="1100" y="903" on="0"/>
        <pt x="1100" y="650" on="1"/>
      </contour>
    </TTGlyph>
    <TTGlyph name="uni1781" xMin="200" yMin="0" xMax="1100" yMax="1300">
      <contour>
        <pt x="200" y="483" on="1"/>
        <pt x="850" y="770" on="0"/>
        <pt x="850" y="936" on="1"/>
        <pt x="850" y="997" on="1"/>
        <pt x="850" y="1192" on="0"/>
        <pt x="700" y="1192" on="1"/>
        <pt x="600" y="1192" on="1"/>
        <pt x="458" y="1192" on="0"/>
        <pt x="450" y="1013" on="1"/>
        <pt x="520" y="977" on="0"/>
        <pt x="520" y="897" on="1"/>
        <pt x="520" y="780" on="0"/>
        <pt x="335" y="780" on="1"/>
        <pt x="300" y="780" on="0"/>
        <pt x="236" y="811" on="0"/>
        <pt x="200" y="867" on="0"/>
        <pt x="200" y="897" on="1"/>
        <pt x="200" y="1040" on="1"/>
        <pt x="202" y="1040" on="1"/>
        <pt x="226" y="1300" on="0"/>
        <pt x="600" y="1300" on="1"/>
        <pt x="700" y="1300" on="1"/>
        <pt x="1100" y="1300" on="0"/>
        <pt x="1100" y="997" on="1"/>
        <pt x="1100" y="936" on="1"/>
        <pt x="1100" y="741" on="0"/>
        <pt x="450" y="477" on="1"/>
        <pt x="450" y="303" on="1"/>
        <pt x="450" y="108" on="0"/>
        <pt x="600" y="108" on="1"/>
        <pt x="700" y="108" on="1"/>
        <pt x="850" y="108" on="0"/>
        <pt x="850" y="303" on="1"/>
        <pt x="850" y="470" on="1"/>
        <pt x="1036" y="575" on="1"/>
        <pt x="1100" y="575" on="1"/>
        <pt x="1100" y="303" on="1"/>
        <pt x="1100" y="0" on="0"/>
        <pt x="700" y="0" on="1"/>
        <pt x="600" y="0" on="1"/>
        <pt x="200" y="0" on="0"/>
        <pt x="200" y="303" on="1"/>
      </contour>
    </TTGlyph>
    <TTGlyph name="uni178117B6" xMin="200" yMin="0" xMax="1750" yMax="1300">
      <contour>
        <pt x="1051" y="1172" on="1"/>
        <pt x="1053" y="1211" on="0"/>
        <pt x="1103" y="1244" on="1"/>
        <pt x="1189" y="1300" on="0"/>
        <pt x="1274" y="1300" on="1"/>
        <pt x="1372" y="1300" on="0"/>
        <pt x="1469" y="1238" on="1"/>
        <pt x="1606" y="1151" on="1"/>
        <pt x="1750" y="1060" on="0"/>
        <pt x="1750" y="898" on="1"/>
        <pt x="1750" y="0" on="1"/>
        <pt x="1500" y="0" on="1"/>
        <pt x="1500" y="888" on="1"/>
        <pt x="1500" y="922" on="0"/>
        <pt x="1463" y="947" on="1"/>
        <pt x="1363" y="1009" on="1"/>
        <pt x="1287" y="1059" on="0"/>
        <pt x="1218" y="1059" on="1"/>
        <pt x="1173" y="1059" on="0"/>
        <pt x="1099" y="1020" on="1"/>
        <pt x="1100" y="1009" on="0"/>
        <pt x="1100" y="997" on="1"/>
        <pt x="1100" y="936" on="1"/>
        <pt x="1100" y="741" on="0"/>
        <pt x="450" y="477" on="1"/>
        <pt x="450" y="303" on="1"/>
        <pt x="450" y="108" on="0"/>
        <pt x="600" y="108" on="1"/>
        <pt x="700" y="108" on="1"/>
        <pt x="850" y="108" on="0"/>
        <pt x="850" y="303" on="1"/>
        <pt x="850" y="470" on="1"/>
        <pt x="1036" y="575" on="1"/>
        <pt x="1100" y="575" on="1"/>
        <pt x="1100" y="303" on="1"/>
        <pt x="1100" y="0" on="0"/>
        <pt x="700" y="0" on="1"/>
        <pt x="600" y="0" on="1"/>
        <pt x="200" y="0" on="0"/>
        <pt x="200" y="303" on="1"/>
        <pt x="200" y="483" on="1"/>
        <pt x="850" y="770" on="0"/>
        <pt x="850" y="936" on="1"/>
        <pt x="850" y="997" on="1"/>
        <pt x="850" y="1192" on="0"/>
        <pt x="700" y="1192" on="1"/>
        <pt x="600" y="1192" on="1"/>
        <pt x="458" y="1192" on="0"/>
        <pt x="450" y="1013" on="1"/>
        <pt x="520" y="977" on="0"/>
        <pt x="520" y="897" on="1"/>
        <pt x="520" y="780" on="0"/>
        <pt x="335" y="780" on="1"/>
        <pt x="300" y="780" on="0"/>
        <pt x="236" y="811" on="0"/>
        <pt x="200" y="867" on="0"/>
        <pt x="200" y="897" on="1"/>
        <pt x="200" y="1040" on="1"/>
        <pt x="202" y="1040" on="1"/>
        <pt x="226" y="1300" on="0"/>
        <pt x="600" y="1300" on="1"/>
        <pt x="700" y="1300" on="1"/>
        <pt x="960" y="1300" on="0"/>
      </contour>
    </TTGlyph>
    <TTGlyph name="uni178117C5" xMin="200" yMin="0" xMax="1800" yMax="1647">
      <contour>
        <pt x="1723" y="1024" on="1"/>
        <pt x="1750" y="968" on="0"/>
        <pt x="1750" y="898" on="1"/>
        <pt x="1750" y="0" on="1"/>
        <pt x="1500" y="0" on="1"/>
        <pt x="1500" y="888" on="1"/>
        <pt x="1500" y="922" on="0"/>
        <pt x="1463" y="947" on="1"/>
        <pt x="1363" y="1009" on="1"/>
        <pt x="1287" y="1059" on="0"/>
        <pt x="1218" y="1059" on="1"/>
        <pt x="1173" y="1059" on="0"/>
        <pt x="1099" y="1020" on="1"/>
        <pt x="1100" y="1009" on="0"/>
        <pt x="1100" y="997" on="1"/>
        <pt x="1100" y="936" on="1"/>
        <pt x="1100" y="741" on="0"/>
        <pt x="450" y="477" on="1"/>
        <pt x="450" y="303" on="1"/>
        <pt x="450" y="108" on="0"/>
        <pt x="600" y="108" on="1"/>
        <pt x="700" y="108" on="1"/>
        <pt x="850" y="108" on="0"/>
        <pt x="850" y="303" on="1"/>
        <pt x="850" y="470" on="1"/>
        <pt x="1036" y="575" on="1"/>
        <pt x="1100" y="575" on="1"/>
        <pt x="1100" y="303" on="1"/>
        <pt x="1100" y="0" on="0"/>
        <pt x="700" y="0" on="1"/>
        <pt x="600" y="0" on="1"/>
        <pt x="200" y="0" on="0"/>
        <pt x="200" y="303" on="1"/>
        <pt x="200" y="483" on="1"/>
        <pt x="850" y="770" on="0"/>
        <pt x="850" y="936" on="1"/>
        <pt x="850" y="997" on="1"/>
        <pt x="850" y="1192" on="0"/>
        <pt x="700" y="1192" on="1"/>
        <pt x="600" y="1192" on="1"/>
        <pt x="458" y="1192" on="0"/>
        <pt x="450" y="1013" on="1"/>
        <pt x="520" y="977" on="0"/>
        <pt x="520" y="897" on="1"/>
        <pt x="520" y="780" on="0"/>
        <pt x="335" y="780" on="1"/>
        <pt x="300" y="780" on="0"/>
        <pt x="236" y="811" on="0"/>
        <pt x="200" y="867" on="0"/>
        <pt x="200" y="897" on="1"/>
        <pt x="200" y="1040" on="1"/>
        <pt x="202" y="1040" on="1"/>
        <pt x="226" y="1300" on="0"/>
        <pt x="600" y="1300" on="1"/>
        <pt x="700" y="1300" on="1"/>
        <pt x="960" y="1300" on="0"/>
        <pt x="1051" y="1172" on="1"/>
        <pt x="1053" y="1211" on="0"/>
        <pt x="1103" y="1244" on="1"/>
        <pt x="1189" y="1300" on="0"/>
        <pt x="1274" y="1300" on="1"/>
        <pt x="1372" y="1300" on="0"/>
        <pt x="1469" y="1238" on="1"/>
        <pt x="1550" y="1187" on="1"/>
        <pt x="1550" y="1474" on="1"/>
        <pt x="1550" y="1560" on="0"/>
        <pt x="1450" y="1560" on="1"/>
        <pt x="1450" y="1647" on="0"/>
        <pt x="1575" y="1647" on="1"/>
        <pt x="1688" y="1647" on="1"/>
        <pt x="1800" y="1647" on="0"/>
        <pt x="1800" y="1474" on="1"/>
        <pt x="1800" y="1214" on="1"/>
        <pt x="1800" y="1132" on="0"/>
      </contour>
    </TTGlyph>
    <TTGlyph name="uni1782" xMin="100" yMin="0" xMax="1200" yMax="1300">
      <contour>
        <pt x="450" y="376" on="1"/>
        <pt x="494" y="426" on="0"/>
        <pt x="554" y="442" on="1"/>
        <pt x="578" y="449" on="0"/>
        <pt x="599" y="449" on="1"/>
        <pt x="687" y="449" on="0"/>
        <pt x="718" y="333" on="1"/>
        <pt x="724" y="311" on="0"/>
        <pt x="724" y="293" on="1"/>
        <pt x="724" y="223" on="0"/>
        <pt x="640" y="200" on="1"/>
        <pt x="630" y="241" on="0"/>
        <pt x="589" y="241" on="1"/>
        <pt x="575" y="241" on="0"/>
        <pt x="558" y="236" on="1"/>
        <pt x="495" y="220" on="0"/>
        <pt x="450" y="45" on="1"/>
        <pt x="440" y="0" on="1"/>
        <pt x="200" y="0" on="1"/>
        <pt x="200" y="650" on="1"/>
        <pt x="200" y="903" on="0"/>
        <pt x="600" y="903" on="1"/>
        <pt x="700" y="903" on="1"/>
        <pt x="1100" y="903" on="0"/>
        <pt x="1100" y="650" on="1"/>
        <pt x="1100" y="0" on="1"/>
        <pt x="850" y="0" on="1"/>
        <pt x="850" y="650" on="1"/>
        <pt x="850" y="803" on="0"/>
        <pt x="700" y="803" on="1"/>
        <pt x="600" y="803" on="1"/>
        <pt x="450" y="803" on="0"/>
        <pt x="450" y="650" on="1"/>
      </contour>
      <contour>
        <pt x="252" y="850" on="1"/>
        <pt x="100" y="897" on="0"/>
        <pt x="100" y="1049" on="1"/>
        <pt x="100" y="1126" on="0"/>
        <pt x="342" y="1300" on="0"/>
        <pt x="394" y="1300" on="1"/>
        <pt x="433" y="1300" on="0"/>
        <pt x="539" y="1213" on="1"/>
        <pt x="592" y="1172" on="1"/>
        <pt x="627" y="1147" on="0"/>
        <pt x="650" y="1147" on="1"/>
        <pt x="673" y="1147" on="0"/>
        <pt x="701" y="1172" on="1"/>
        <pt x="763" y="1226" on="1"/>
        <pt x="852" y="1300" on="0"/>
        <pt x="888" y="1300" on="1"/>
        <pt x="923" y="1300" on="0"/>
        <pt x="982" y="1245" on="1"/>
        <pt x="1098" y="1133" on="1"/>
        <pt x="1128" y="1101" on="0"/>
        <pt x="1155" y="1101" on="1"/>
        <pt x="1181" y="1101" on="0"/>
        <pt x="1200" y="1116" on="1"/>
        <pt x="1150" y="957" on="0"/>
        <pt x="1065" y="957" on="1"/>
        <pt x="999" y="957" on="0"/>
        <pt x="952" y="1001" on="1"/>
        <pt x="889" y="1058" on="1"/>
        <pt x="845" y="1095" on="0"/>
        <pt x="820" y="1095" on="1"/>
        <pt x="797" y="1095" on="0"/>
        <pt x="650" y="957" on="0"/>
        <pt x="610" y="957" on="1"/>
        <pt x="537" y="957" on="0"/>
        <pt x="486" y="1001" on="1"/>
        <pt x="415" y="1061" on="1"/>
        <pt x="366" y="1095" on="0"/>
        <pt x="337" y="1095" on="1"/>
        <pt x="304" y="1095" on="0"/>
        <pt x="250" y="1068" on="0"/>
        <pt x="250" y="1034" on="1"/>
        <pt x="250" y="1013" on="0"/>
        <pt x="362" y="944" on="1"/>
      </contour>
    </TTGlyph>
    <TTGlyph name="uni178217B6" xMin="100" yMin="0" xMax="1750" yMax="1300">
      <contour>
        <pt x="1750" y="0" on="1"/>
        <pt x="1500" y="0" on="1"/>
        <pt x="1500" y="888" on="1"/>
        <pt x="1500" y="952" on="0"/>
        <pt x="1147" y="1090" on="0"/>
        <pt x="1067" y="1090" on="1"/>
        <pt x="1017" y="1090" on="0"/>
        <pt x="824" y="949" on="0"/>
        <pt x="771" y="949" on="1"/>
        <pt x="675" y="949" on="0"/>
        <pt x="608" y="994" on="1"/>
        <pt x="514" y="1055" on="1"/>
        <pt x="450" y="1090" on="0"/>
        <pt x="412" y="1090" on="1"/>
        <pt x="368" y="1090" on="0"/>
        <pt x="297" y="1062" on="0"/>
        <pt x="297" y="1028" on="1"/>
        <pt x="297" y="1007" on="0"/>
        <pt x="406" y="935" on="1"/>
        <pt x="258" y="842" on="1"/>
        <pt x="100" y="888" on="0"/>
        <pt x="100" y="1043" on="1"/>
        <pt x="100" y="1122" on="0"/>
        <pt x="418" y="1300" on="0"/>
        <pt x="487" y="1300" on="1"/>
        <pt x="538" y="1300" on="0"/>
        <pt x="677" y="1211" on="1"/>
        <pt x="747" y="1169" on="1"/>
        <pt x="793" y="1143" on="0"/>
        <pt x="824" y="1143" on="1"/>
        <pt x="854" y="1143" on="0"/>
        <pt x="891" y="1169" on="1"/>
        <pt x="972" y="1225" on="1"/>
        <pt x="1089" y="1300" on="0"/>
        <pt x="1153" y="1300" on="1"/>
        <pt x="1300" y="1300" on="0"/>
        <pt x="1419" y="1240" on="1"/>
        <pt x="1750" y="1078" on="0"/>
        <pt x="1750" y="888" on="1"/>
      </contour>
      <contour>
        <pt x="450" y="376" on="1"/>
        <pt x="494" y="426" on="0"/>
        <pt x="554" y="442" on="1"/>
        <pt x="578" y="449" on="0"/>
        <pt x="599" y="449" on="1"/>
        <pt x="687" y="449" on="0"/>
        <pt x="718" y="333" on="1"/>
        <pt x="724" y="311" on="0"/>
        <pt x="724" y="293" on="1"/>
        <pt x="724" y="223" on="0"/>
        <pt x="640" y="200" on="1"/>
        <pt x="630" y="241" on="0"/>
        <pt x="589" y="241" on="1"/>
        <pt x="575" y="241" on="0"/>
        <pt x="558" y="236" on="1"/>
        <pt x="495" y="220" on="0"/>
        <pt x="450" y="45" on="1"/>
        <pt x="440" y="0" on="1"/>
        <pt x="200" y="0" on="1"/>
        <pt x="200" y="650" on="1"/>
        <pt x="200" y="903" on="0"/>
        <pt x="600" y="903" on="1"/>
        <pt x="700" y="903" on="1"/>
        <pt x="1100" y="903" on="0"/>
        <pt x="1100" y="650" on="1"/>
        <pt x="1100" y="0" on="1"/>
        <pt x="850" y="0" on="1"/>
        <pt x="850" y="650" on="1"/>
        <pt x="850" y="803" on="0"/>
        <pt x="700" y="803" on="1"/>
        <pt x="600" y="803" on="1"/>
        <pt x="450" y="803" on="0"/>
        <pt x="450" y="650" on="1"/>
      </contour>
    </TTGlyph>
    <TTGlyph name="uni178217C5" xMin="100" yMin="0" xMax="1800" yMax="1647">
      <contour>
        <pt x="450" y="376" on="1"/>
        <pt x="494" y="426" on="0"/>
        <pt x="554" y="442" on="1"/>
        <pt x="578" y="449" on="0"/>
        <pt x="599" y="449" on="1"/>
        <pt x="687" y="449" on="0"/>
        <pt x="718" y="333" on="1"/>
        <pt x="724" y="311" on="0"/>
        <pt x="724" y="293" on="1"/>
        <pt x="724" y="223" on="0"/>
        <pt x="640" y="200" on="1"/>
        <pt x="630" y="241" on="0"/>
        <pt x="589" y="241" on="1"/>
        <pt x="575" y="241" on="0"/>
        <pt x="558" y="236" on="1"/>
        <pt x="495" y="220" on="0"/>
        <pt x="450" y="45" on="1"/>
        <pt x="440" y="0" on="1"/>
        <pt x="200" y="0" on="1"/>
        <pt x="200" y="650" on="1"/>
        <pt x="200" y="903" on="0"/>
        <pt x="600" y="903" on="1"/>
        <pt x="700" y="903" on="1"/>
        <pt x="1100" y="903" on="0"/>
        <pt x="1100" y="650" on="1"/>
        <pt x="1100" y="0" on="1"/>
        <pt x="850" y="0" on="1"/>
        <pt x="850" y="650" on="1"/>
        <pt x="850" y="803" on="0"/>
        <pt x="700" y="803" on="1"/>
        <pt x="600" y="803" on="1"/>
        <pt x="450" y="803" on="0"/>
        <pt x="450" y="650" on="1"/>
      </contour>
      <contour>
        <pt x="1714" y="1011" on="1"/>
        <pt x="1750" y="951" on="0"/>
        <pt x="1750" y="888" on="1"/>
        <pt x="1750" y="0" on="1"/>
        <pt x="1500" y="0" on="1"/>
        <pt x="1500" y="888" on="1"/>
        <pt x="1500" y="952" on="0"/>
        <pt x="1147" y="1090" on="0"/>
        <pt x="1067" y="1090" on="1"/>
        <pt x="1017" y="1090" on="0"/>
        <pt x="824" y="949" on="0"/>
        <pt x="771" y="949" on="1"/>
        <pt x="675" y="949" on="0"/>
        <pt x="608" y="994" on="1"/>
        <pt x="514" y="1055" on="1"/>
        <pt x="450" y="1090" on="0"/>
        <pt x="412" y="1090" on="1"/>
        <pt x="368" y="1090" on="0"/>
        <pt x="297" y="1062" on="0"/>
        <pt x="297" y="1028" on="1"/>
        <pt x="297" y="1007" on="0"/>
        <pt x="406" y="935" on="1"/>
        <pt x="258" y="842" on="1"/>
        <pt x="100" y="888" on="0"/>
        <pt x="100" y="1043" on="1"/>
        <pt x="100" y="1122" on="0"/>
        <pt x="418" y="1300" on="0"/>
        <pt x="487" y="1300" on="1"/>
        <pt x="538" y="1300" on="0"/>
        <pt x="677" y="1211" on="1"/>
        <pt x="747" y="1169" on="1"/>
        <pt x="793" y="1143" on="0"/>
        <pt x="824" y="1143" on="1"/>
        <pt x="854" y="1143" on="0"/>
        <pt x="891" y="1169" on="1"/>
        <pt x="972" y="1225" on="1"/>
        <pt x="1089" y="1300" on="0"/>
        <pt x="1153" y="1300" on="1"/>
        <pt x="1300" y="1300" on="0"/>
        <pt x="1419" y="1240" on="1"/>
        <pt x="1493" y="1204" on="0"/>
        <pt x="1550" y="1166" on="1"/>
        <pt x="1550" y="1474" on="1"/>
        <pt x="1550" y="1560" on="0"/>
        <pt x="1450" y="1560" on="1"/>
        <pt x="1450" y="1647" on="0"/>
        <pt x="1575" y="1647" on="1"/>
        <pt x="1688" y="1647" on="1"/>
        <pt x="1800" y="1647" on="0"/>
        <pt x="1800" y="1474" on="1"/>
        <pt x="1800" y="1214" on="1"/>
        <pt x="1800" y="1127" on="0"/>
      </contour>
    </TTGlyph>
    <TTGlyph name="uni1783" xMin="100" yMin="0" xMax="1850" yMax="1300">
      <contour>
        <pt x="300" y="1052" on="1"/>
        <pt x="300" y="1137" on="0"/>
        <pt x="250" y="1137" on="1"/>
        <pt x="200" y="1137" on="0"/>
        <pt x="200" y="1043" on="1"/>
        <pt x="200" y="963" on="0"/>
        <pt x="250" y="963" on="1"/>
        <pt x="300" y="963" on="0"/>
      </contour>
      <contour>
        <pt x="850" y="817" on="1"/>
        <pt x="850" y="909" on="0"/>
        <pt x="718" y="937" on="1"/>
        <pt x="736" y="1024" on="0"/>
        <pt x="885" y="1300" on="0"/>
        <pt x="933" y="1300" on="1"/>
        <pt x="971" y="1300" on="0"/>
        <pt x="1034" y="1263" on="1"/>
        <pt x="1094" y="1225" on="1"/>
        <pt x="1122" y="1209" on="0"/>
        <pt x="1159" y="1209" on="1"/>
        <pt x="1178" y="1209" on="0"/>
        <pt x="1200" y="1213" on="1"/>
        <pt x="1191" y="1153" on="0"/>
        <pt x="1125" y="1017" on="0"/>
        <pt x="1082" y="1011" on="1"/>
        <pt x="1072" y="1011" on="1"/>
        <pt x="1029" y="1011" on="0"/>
        <pt x="962" y="1047" on="1"/>
        <pt x="926" y="1065" on="0"/>
        <pt x="903" y="1065" on="1"/>
        <pt x="873" y="1065" on="0"/>
        <pt x="860" y="1037" on="1"/>
        <pt x="838" y="986" on="1"/>
        <pt x="1100" y="936" on="0"/>
        <pt x="1100" y="867" on="1"/>
        <pt x="1100" y="303" on="1"/>
        <pt x="1100" y="100" on="0"/>
        <pt x="1300" y="100" on="1"/>
        <pt x="1500" y="100" on="0"/>
        <pt x="1500" y="303" on="1"/>
        <pt x="1500" y="817" on="1"/>
        <pt x="1500" y="909" on="0"/>
        <pt x="1368" y="937" on="1"/>
        <pt x="1386" y="1024" on="0"/>
        <pt x="1535" y="1300" on="0"/>
        <pt x="1583" y="1300" on="1"/>
        <pt x="1621" y="1300" on="0"/>
        <pt x="1684" y="1263" on="1"/>
        <pt x="1744" y="1225" on="1"/>
        <pt x="1772" y="1209" on="0"/>
        <pt x="1809" y="1209" on="1"/>
        <pt x="1828" y="1209" on="0"/>
        <pt x="1850" y="1213" on="1"/>
        <pt x="1841" y="1153" on="0"/>
        <pt x="1775" y="1017" on="0"/>
        <pt x="1732" y="1011" on="1"/>
        <pt x="1722" y="1011" on="1"/>
        <pt x="1679" y="1011" on="0"/>
        <pt x="1612" y="1047" on="1"/>
        <pt x="1576" y="1065" on="0"/>
        <pt x="1553" y="1065" on="1"/>
        <pt x="1523" y="1065" on="0"/>
        <pt x="1510" y="1037" on="1"/>
        <pt x="1488" y="986" on="1"/>
        <pt x="1750" y="936" on="0"/>
        <pt x="1750" y="867" on="1"/>
        <pt x="1750" y="303" on="1"/>
        <pt x="1750" y="0" on="0"/>
        <pt x="1300" y="0" on="1"/>
        <pt x="1062" y="0" on="0"/>
        <pt x="975" y="88" on="1"/>
        <pt x="888" y="0" on="0"/>
        <pt x="650" y="0" on="1"/>
        <pt x="200" y="0" on="0"/>
        <pt x="200" y="303" on="1"/>
        <pt x="200" y="520" on="1"/>
        <pt x="200" y="731" on="0"/>
        <pt x="250" y="824" on="1"/>
        <pt x="261" y="844" on="0"/>
        <pt x="269" y="867" on="1"/>
        <pt x="250" y="867" on="1"/>
        <pt x="100" y="867" on="0"/>
        <pt x="100" y="1043" on="1"/>
        <pt x="100" y="1300" on="0"/>
        <pt x="300" y="1300" on="1"/>
        <pt x="500" y="1300" on="0"/>
        <pt x="500" y="1052" on="1"/>
        <pt x="500" y="923" on="0"/>
        <pt x="450" y="695" on="0"/>
        <pt x="450" y="520" on="1"/>
        <pt x="450" y="303" on="1"/>
        <pt x="450" y="100" on="0"/>
        <pt x="650" y="100" on="1"/>
        <pt x="850" y="100" on="0"/>
        <pt x="850" y="303" on="1"/>
      </contour>
    </TTGlyph>
    <TTGlyph name="uni178317B6" xMin="100" yMin="0" xMax="2400" yMax="1300">
      <contour>
        <pt x="300" y="1052" on="1"/>
        <pt x="300" y="1137" on="0"/>
        <pt x="250" y="1137" on="1"/>
        <pt x="200" y="1137" on="0"/>
        <pt x="200" y="1043" on="1"/>
        <pt x="200" y="963" on="0"/>
        <pt x="250" y="963" on="1"/>
        <pt x="300" y="963" on="0"/>
      </contour>
      <contour>
        <pt x="1500" y="817" on="1"/>
        <pt x="1500" y="909" on="0"/>
        <pt x="1368" y="937" on="1"/>
        <pt x="1420" y="1084" on="0"/>
        <pt x="1653" y="1300" on="0"/>
        <pt x="1803" y="1300" on="1"/>
        <pt x="1950" y="1300" on="0"/>
        <pt x="2069" y="1249" on="1"/>
        <pt x="2400" y="1111" on="0"/>
        <pt x="2400" y="900" on="1"/>
        <pt x="2400" y="0" on="1"/>
        <pt x="2150" y="0" on="1"/>
        <pt x="2150" y="900" on="1"/>
        <pt x="2150" y="954" on="0"/>
        <pt x="1999" y="1027" on="1"/>
        <pt x="1847" y="1099" on="0"/>
        <pt x="1753" y="1099" on="1"/>
        <pt x="1658" y="1099" on="0"/>
        <pt x="1596" y="1071" on="1"/>
        <pt x="1533" y="1043" on="0"/>
        <pt x="1508" y="986" on="1"/>
        <pt x="1750" y="936" on="0"/>
        <pt x="1750" y="867" on="1"/>
        <pt x="1750" y="303" on="1"/>
        <pt x="1750" y="0" on="0"/>
        <pt x="1300" y="0" on="1"/>
        <pt x="1062" y="0" on="0"/>
        <pt x="975" y="88" on="1"/>
        <pt x="888" y="0" on="0"/>
        <pt x="650" y="0" on="1"/>
        <pt x="200" y="0" on="0"/>
        <pt x="200" y="303" on="1"/>
        <pt x="200" y="520" on="1"/>
        <pt x="200" y="731" on="0"/>
        <pt x="250" y="824" on="1"/>
        <pt x="261" y="844" on="0"/>
        <pt x="269" y="867" on="1"/>
        <pt x="250" y="867" on="1"/>
        <pt x="100" y="867" on="0"/>
        <pt x="100" y="1043" on="1"/>
        <pt x="100" y="1300" on="0"/>
        <pt x="300" y="1300" on="1"/>
        <pt x="500" y="1300" on="0"/>
        <pt x="500" y="1052" on="1"/>
        <pt x="500" y="923" on="0"/>
        <pt x="450" y="695" on="0"/>
        <pt x="450" y="520" on="1"/>
        <pt x="450" y="303" on="1"/>
        <pt x="450" y="100" on="0"/>
        <pt x="650" y="100" on="1"/>
        <pt x="850" y="100" on="0"/>
        <pt x="850" y="303" on="1"/>
        <pt x="850" y="817" on="1"/>
        <pt x="850" y="909" on="0"/>
        <pt x="718" y="937" on="1"/>
        <pt x="736" y="1024" on="0"/>
        <pt x="885" y="1300" on="0"/>
        <pt x="933" y="1300" on="1"/>
        <pt x="971" y="1300" on="0"/>
        <pt x="1034" y="1263" on="1"/>
        <pt x="1094" y="1225" on="1"/>
        <pt x="1122" y="1209" on="0"/>
        <pt x="1159" y="1209" on="1"/>
        <pt x="1178" y="1209" on="0"/>
        <pt x="1200" y="1213" on="1"/>
        <pt x="1191" y="1153" on="0"/>
        <pt x="1125" y="1017" on="0"/>
        <pt x="1082" y="1011" on="1"/>
        <pt x="1072" y="1011" on="1"/>
        <pt x="1029" y="1011" on="0"/>
        <pt x="962" y="1047" on="1"/>
        <pt x="926" y="1065" on="0"/>
        <pt x="903" y="1065" on="1"/>
        <pt x="873" y="1065" on="0"/>
        <pt x="860" y="1037" on="1"/>
        <pt x="838" y="986" on="1"/>
        <pt x="1100" y="936" on="0"/>
        <pt x="1100" y="867" on="1"/>
        <pt x="1100" y="303" on="1"/>
        <pt x="1100" y="100" on="0"/>
        <pt x="1300" y="100" on="1"/>
        <pt x="1500" y="100" on="0"/>
        <pt x="1500" y="303" on="1"/>
      </contour>
    </TTGlyph>
    <TTGlyph name="uni178317C5" xMin="100" yMin="0" xMax="2450" yMax="1647">
      <contour>
        <pt x="300" y="1052" on="1"/>
        <pt x="300" y="1137" on="0"/>
        <pt x="250" y="1137" on="1"/>
        <pt x="200" y="1137" on="0"/>
        <pt x="200" y="1043" on="1"/>
        <pt x="200" y="963" on="0"/>
        <pt x="250" y="963" on="1"/>
        <pt x="300" y="963" on="0"/>
      </contour>
      <contour>
        <pt x="2370" y="1020" on="1"/>
        <pt x="2400" y="963" on="0"/>
        <pt x="2400" y="900" on="1"/>
        <pt x="2400" y="0" on="1"/>
        <pt x="2150" y="0" on="1"/>
        <pt x="2150" y="900" on="1"/>
        <pt x="2150" y="954" on="0"/>
        <pt x="1999" y="1027" on="1"/>
        <pt x="1847" y="1099" on="0"/>
        <pt x="1753" y="1099" on="1"/>
        <pt x="1658" y="1099" on="0"/>
        <pt x="1596" y="1071" on="1"/>
        <pt x="1533" y="1043" on="0"/>
        <pt x="1508" y="986" on="1"/>
        <pt x="1750" y="936" on="0"/>
        <pt x="1750" y="867" on="1"/>
        <pt x="1750" y="303" on="1"/>
        <pt x="1750" y="0" on="0"/>
        <pt x="1300" y="0" on="1"/>
        <pt x="1062" y="0" on="0"/>
        <pt x="975" y="88" on="1"/>
        <pt x="888" y="0" on="0"/>
        <pt x="650" y="0" on="1"/>
        <pt x="200" y="0" on="0"/>
        <pt x="200" y="303" on="1"/>
        <pt x="200" y="520" on="1"/>
        <pt x="200" y="731" on="0"/>
        <pt x="250" y="824" on="1"/>
        <pt x="261" y="844" on="0"/>
        <pt x="269" y="867" on="1"/>
        <pt x="250" y="867" on="1"/>
        <pt x="100" y="867" on="0"/>
        <pt x="100" y="1043" on="1"/>
        <pt x="100" y="1300" on="0"/>
        <pt x="300" y="1300" on="1"/>
        <pt x="500" y="1300" on="0"/>
        <pt x="500" y="1052" on="1"/>
        <pt x="500" y="923" on="0"/>
        <pt x="450" y="695" on="0"/>
        <pt x="450" y="520" on="1"/>
        <pt x="450" y="303" on="1"/>
        <pt x="450" y="100" on="0"/>
        <pt x="650" y="100" on="1"/>
        <pt x="850" y="100" on="0"/>
        <pt x="850" y="303" on="1"/>
        <pt x="850" y="817" on="1"/>
        <pt x="850" y="909" on="0"/>
        <pt x="718" y="937" on="1"/>
        <pt x="736" y="1024" on="0"/>
        <pt x="885" y="1300" on="0"/>
        <pt x="933" y="1300" on="1"/>
        <pt x="971" y="1300" on="0"/>
        <pt x="1034" y="1263" on="1"/>
        <pt x="1094" y="1225" on="1"/>
        <pt x="1122" y="1209" on="0"/>
        <pt x="1159" y="1209" on="1"/>
        <pt x="1178" y="1209" on="0"/>
        <pt x="1200" y="1213" on="1"/>
        <pt x="1191" y="1153" on="0"/>
        <pt x="1125" y="1017" on="0"/>
        <pt x="1082" y="1011" on="1"/>
        <pt x="1072" y="1011" on="1"/>
        <pt x="1029" y="1011" on="0"/>
        <pt x="962" y="1047" on="1"/>
        <pt x="926" y="1065" on="0"/>
        <pt x="903" y="1065" on="1"/>
        <pt x="873" y="1065" on="0"/>
        <pt x="860" y="1037" on="1"/>
        <pt x="838" y="986" on="1"/>
        <pt x="1100" y="936" on="0"/>
        <pt x="1100" y="867" on="1"/>
        <pt x="1100" y="303" on="1"/>
        <pt x="1100" y="100" on="0"/>
        <pt x="1300" y="100" on="1"/>
        <pt x="1500" y="100" on="0"/>
        <pt x="1500" y="303" on="1"/>
        <pt x="1500" y="817" on="1"/>
        <pt x="1500" y="909" on="0"/>
        <pt x="1368" y="937" on="1"/>
        <pt x="1420" y="1084" on="0"/>
        <pt x="1653" y="1300" on="0"/>
        <pt x="1803" y="1300" on="1"/>
        <pt x="1950" y="1300" on="0"/>
        <pt x="2069" y="1249" on="1"/>
        <pt x="2143" y="1218" on="0"/>
        <pt x="2200" y="1184" on="1"/>
        <pt x="2200" y="1474" on="1"/>
        <pt x="2200" y="1560" on="0"/>
        <pt x="2100" y="1560" on="1"/>
        <pt x="2100" y="1647" on="0"/>
        <pt x="2225" y="1647" on="1"/>
        <pt x="2338" y="1647" on="1"/>
        <pt x="2450" y="1647" on="0"/>
        <pt x="2450" y="1474" on="1"/>
        <pt x="2450" y="1214" on="1"/>
        <pt x="2450" y="1131" on="0"/>
      </contour>
    </TTGlyph>
    <TTGlyph name="uni1784" xMin="100" yMin="0" xMax="1100" yMax="1500">
      <contour>
        <pt x="830" y="1120" on="1"/>
        <pt x="830" y="1180" on="0"/>
        <pt x="790" y="1180" on="1"/>
        <pt x="750" y="1180" on="0"/>
        <pt x="750" y="1120" on="1"/>
        <pt x="750" y="1086" on="0"/>
        <pt x="783" y="1061" on="1"/>
        <pt x="830" y="1083" on="0"/>
      </contour>
      <contour>
        <pt x="850" y="700" on="1"/>
        <pt x="850" y="808" on="0"/>
        <pt x="834" y="865" on="0"/>
        <pt x="798" y="889" on="1"/>
        <pt x="686" y="800" on="0"/>
        <pt x="570" y="800" on="1"/>
        <pt x="422" y="800" on="0"/>
        <pt x="200" y="944" on="0"/>
        <pt x="200" y="1070" on="1"/>
        <pt x="200" y="1145" on="0"/>
        <pt x="250" y="1240" on="0"/>
        <pt x="250" y="1320" on="1"/>
        <pt x="250" y="1400" on="0"/>
        <pt x="150" y="1400" on="1"/>
        <pt x="150" y="1500" on="0"/>
        <pt x="280" y="1500" on="1"/>
        <pt x="500" y="1500" on="0"/>
        <pt x="500" y="1320" on="1"/>
        <pt x="500" y="1245" on="0"/>
        <pt x="450" y="1150" on="0"/>
        <pt x="450" y="1070" on="1"/>
        <pt x="450" y="1001" on="0"/>
        <pt x="540" y="950" on="0"/>
        <pt x="570" y="950" on="1"/>
        <pt x="634" y="950" on="0"/>
        <pt x="695" y="996" on="1"/>
        <pt x="590" y="1044" on="0"/>
        <pt x="590" y="1120" on="1"/>
        <pt x="590" y="1300" on="0"/>
        <pt x="790" y="1300" on="1"/>
        <pt x="1010" y="1300" on="0"/>
        <pt x="1010" y="1120" on="1"/>
        <pt x="1010" y="1043" on="0"/>
        <pt x="902" y="972" on="1"/>
        <pt x="923" y="961" on="0"/>
        <pt x="945" y="950" on="1"/>
        <pt x="1100" y="863" on="0"/>
        <pt x="1100" y="700" on="1"/>
        <pt x="1100" y="0" on="1"/>
        <pt x="850" y="0" on="1"/>
        <pt x="650" y="193" on="1"/>
        <pt x="450" y="0" on="1"/>
        <pt x="200" y="0" on="1"/>
        <pt x="200" y="470" on="1"/>
        <pt x="100" y="504" on="0"/>
        <pt x="100" y="574" on="1"/>
        <pt x="100" y="644" on="0"/>
        <pt x="180" y="730" on="0"/>
        <pt x="250" y="730" on="1"/>
        <pt x="350" y="730" on="1"/>
        <pt x="450" y="730" on="0"/>
        <pt x="450" y="644" on="1"/>
        <pt x="450" y="162" on="1"/>
        <pt x="648" y="357" on="1"/>
        <pt x="850" y="162" on="1"/>
      </contour>
    </TTGlyph>
    <TTGlyph name="uni178417B6" xMin="100" yMin="0" xMax="1750" yMax="1500">
      <contour>
        <pt x="830" y="1120" on="1"/>
        <pt x="830" y="1180" on="0"/>
        <pt x="790" y="1180" on="1"/>
        <pt x="750" y="1180" on="0"/>
        <pt x="750" y="1120" on="1"/>
        <pt x="750" y="1086" on="0"/>
        <pt x="783" y="1061" on="1"/>
        <pt x="830" y="1083" on="0"/>
      </contour>
      <contour>
        <pt x="1009" y="1144" on="1"/>
        <pt x="1071" y="1223" on="0"/>
        <pt x="1103" y="1244" on="1"/>
        <pt x="1189" y="1300" on="0"/>
        <pt x="1274" y="1300" on="1"/>
        <pt x="1372" y="1300" on="0"/>
        <pt x="1469" y="1238" on="1"/>
        <pt x="1606" y="1151" on="1"/>
        <pt x="1750" y="1060" on="0"/>
        <pt x="1750" y="898" on="1"/>
        <pt x="1750" y="0" on="1"/>
        <pt x="1500" y="0" on="1"/>
        <pt x="1500" y="888" on="1"/>
        <pt x="1500" y="922" on="0"/>
        <pt x="1463" y="947" on="1"/>
        <pt x="1363" y="1009" on="1"/>
        <pt x="1287" y="1059" on="0"/>
        <pt x="1218" y="1059" on="1"/>
        <pt x="1179" y="1059" on="0"/>
        <pt x="948" y="948" on="1"/>
        <pt x="1100" y="861" on="0"/>
        <pt x="1100" y="700" on="1"/>
        <pt x="1100" y="0" on="1"/>
        <pt x="850" y="0" on="1"/>
        <pt x="650" y="193" on="1"/>
        <pt x="450" y="0" on="1"/>
        <pt x="200" y="0" on="1"/>
        <pt x="200" y="470" on="1"/>
        <pt x="100" y="504" on="0"/>
        <pt x="100" y="574" on="1"/>
        <pt x="100" y="644" on="0"/>
        <pt x="180" y="730" on="0"/>
        <pt x="250" y="730" on="1"/>
        <pt x="350" y="730" on="1"/>
        <pt x="450" y="730" on="0"/>
        <pt x="450" y="644" on="1"/>
        <pt x="450" y="162" on="1"/>
        <pt x="648" y="357" on="1"/>
        <pt x="850" y="162" on="1"/>
        <pt x="850" y="700" on="1"/>
        <pt x="850" y="808" on="0"/>
        <pt x="834" y="865" on="0"/>
        <pt x="798" y="889" on="1"/>
        <pt x="686" y="800" on="0"/>
        <pt x="570" y="800" on="1"/>
        <pt x="422" y="800" on="0"/>
        <pt x="200" y="944" on="0"/>
        <pt x="200" y="1070" on="1"/>
        <pt x="200" y="1145" on="0"/>
        <pt x="250" y="1240" on="0"/>
        <pt x="250" y="1320" on="1"/>
        <pt x="250" y="1400" on="0"/>
        <pt x="150" y="1400" on="1"/>
        <pt x="150" y="1500" on="0"/>
        <pt x="280" y="1500" on="1"/>
        <pt x="500" y="1500" on="0"/>
        <pt x="500" y="1320" on="1"/>
        <pt x="500" y="1245" on="0"/>
        <pt x="450" y="1150" on="0"/>
        <pt x="450" y="1070" on="1"/>
        <pt x="450" y="1001" on="0"/>
        <pt x="540" y="950" on="0"/>
        <pt x="570" y="950" on="1"/>
        <pt x="634" y="950" on="0"/>
        <pt x="695" y="996" on="1"/>
        <pt x="590" y="1044" on="0"/>
        <pt x="590" y="1120" on="1"/>
        <pt x="590" y="1300" on="0"/>
        <pt x="790" y="1300" on="1"/>
        <pt x="995" y="1300" on="0"/>
      </contour>
    </TTGlyph>
    <TTGlyph name="uni178417C5" xMin="100" yMin="0" xMax="1800" yMax="1647">
      <contour>
        <pt x="830" y="1120" on="1"/>
        <pt x="830" y="1180" on="0"/>
        <pt x="790" y="1180" on="1"/>
        <pt x="750" y="1180" on="0"/>
        <pt x="750" y="1120" on="1"/>
        <pt x="750" y="1086" on="0"/>
        <pt x="783" y="1061" on="1"/>
        <pt x="830" y="1083" on="0"/>
      </contour>
      <contour>
        <pt x="1723" y="1024" on="1"/>
        <pt x="1750" y="968" on="0"/>
        <pt x="1750" y="898" on="1"/>
        <pt x="1750" y="0" on="1"/>
        <pt x="1500" y="0" on="1"/>
        <pt x="1500" y="888" on="1"/>
        <pt x="1500" y="922" on="0"/>
        <pt x="1463" y="947" on="1"/>
        <pt x="1363" y="1009" on="1"/>
        <pt x="1287" y="1059" on="0"/>
        <pt x="1218" y="1059" on="1"/>
        <pt x="1179" y="1059" on="0"/>
        <pt x="948" y="948" on="1"/>
        <pt x="1100" y="861" on="0"/>
        <pt x="1100" y="700" on="1"/>
        <pt x="1100" y="0" on="1"/>
        <pt x="850" y="0" on="1"/>
        <pt x="650" y="193" on="1"/>
        <pt x="450" y="0" on="1"/>
        <pt x="200" y="0" on="1"/>
        <pt x="200" y="470" on="1"/>
        <pt x="100" y="504" on="0"/>
        <pt x="100" y="574" on="1"/>
        <pt x="100" y="644" on="0"/>
        <pt x="180" y="730" on="0"/>
        <pt x="250" y="730" on="1"/>
        <pt x="350" y="730" on="1"/>
        <pt x="450" y="730" on="0"/>
        <pt x="450" y="644" on="1"/>
        <pt x="450" y="162" on="1"/>
        <pt x="648" y="357" on="1"/>
        <pt x="850" y="162" on="1"/>
        <pt x="850" y="700" on="1"/>
        <pt x="850" y="808" on="0"/>
        <pt x="834" y="865" on="0"/>
        <pt x="798" y="889" on="1"/>
        <pt x="686" y="800" on="0"/>
        <pt x="570" y="800" on="1"/>
        <pt x="422" y="800" on="0"/>
        <pt x="200" y="944" on="0"/>
        <pt x="200" y="1070" on="1"/>
        <pt x="200" y="1145" on="0"/>
        <pt x="250" y="1240" on="0"/>
        <pt x="250" y="1320" on="1"/>
        <pt x="250" y="1400" on="0"/>
        <pt x="150" y="1400" on="1"/>
        <pt x="150" y="1500" on="0"/>
        <pt x="280" y="1500" on="1"/>
        <pt x="500" y="1500" on="0"/>
        <pt x="500" y="1320" on="1"/>
        <pt x="500" y="1245" on="0"/>
        <pt x="450" y="1150" on="0"/>
        <pt x="450" y="1070" on="1"/>
        <pt x="450" y="1001" on="0"/>
        <pt x="540" y="950" on="0"/>
        <pt x="570" y="950" on="1"/>
        <pt x="634" y="950" on="0"/>
        <pt x="695" y="996" on="1"/>
        <pt x="590" y="1044" on="0"/>
        <pt x="590" y="1120" on="1"/>
        <pt x="590" y="1300" on="0"/>
        <pt x="790" y="1300" on="1"/>
        <pt x="995" y="1300" on="0"/>
        <pt x="1009" y="1144" on="1"/>
        <pt x="1071" y="1223" on="0"/>
        <pt x="1103" y="1244" on="1"/>
        <pt x="1189" y="1300" on="0"/>
        <pt x="1274" y="1300" on="1"/>
        <pt x="1372" y="1300" on="0"/>
        <pt x="1469" y="1238" on="1"/>
        <pt x="1550" y="1187" on="1"/>
        <pt x="1550" y="1474" on="1"/>
        <pt x="1550" y="1560" on="0"/>
        <pt x="1450" y="1560" on="1"/>
        <pt x="1450" y="1647" on="0"/>
        <pt x="1575" y="1647" on="1"/>
        <pt x="1688" y="1647" on="1"/>
        <pt x="1800" y="1647" on="0"/>
        <pt x="1800" y="1474" on="1"/>
        <pt x="1800" y="1214" on="1"/>
        <pt x="1800" y="1132" on="0"/>
      </contour>
    </TTGlyph>
    <TTGlyph name="uni1785" xMin="100" yMin="0" xMax="1200" yMax="1300">
      <contour>
        <pt x="450" y="877" on="1"/>
        <pt x="450" y="303" on="1"/>
        <pt x="450" y="100" on="0"/>
        <pt x="600" y="100" on="1"/>
        <pt x="700" y="100" on="1"/>
        <pt x="850" y="100" on="0"/>
        <pt x="850" y="303" on="1"/>
        <pt x="850" y="620" on="1"/>
        <pt x="750" y="655" on="0"/>
        <pt x="750" y="724" on="1"/>
        <pt x="750" y="793" on="0"/>
        <pt x="830" y="880" on="0"/>
        <pt x="900" y="880" on="1"/>
        <pt x="1000" y="880" on="1"/>
        <pt x="1100" y="880" on="0"/>
        <pt x="1100" y="793" on="1"/>
        <pt x="1100" y="303" on="1"/>
        <pt x="1100" y="0" on="0"/>
        <pt x="700" y="0" on="1"/>
        <pt x="600" y="0" on="1"/>
        <pt x="200" y="0" on="0"/>
        <pt x="200" y="303" on="1"/>
        <pt x="200" y="871" on="1"/>
        <pt x="100" y="926" on="0"/>
        <pt x="100" y="1049" on="1"/>
        <pt x="100" y="1126" on="0"/>
        <pt x="342" y="1300" on="0"/>
        <pt x="394" y="1300" on="1"/>
        <pt x="433" y="1300" on="0"/>
        <pt x="539" y="1213" on="1"/>
        <pt x="592" y="1172" on="1"/>
        <pt x="627" y="1147" on="0"/>
        <pt x="650" y="1147" on="1"/>
        <pt x="673" y="1147" on="0"/>
        <pt x="701" y="1172" on="1"/>
        <pt x="763" y="1226" on="1"/>
        <pt x="852" y="1300" on="0"/>
        <pt x="888" y="1300" on="1"/>
        <pt x="923" y="1300" on="0"/>
        <pt x="982" y="1245" on="1"/>
        <pt x="1098" y="1133" on="1"/>
        <pt x="1128" y="1101" on="0"/>
        <pt x="1155" y="1101" on="1"/>
        <pt x="1181" y="1101" on="0"/>
        <pt x="1200" y="1116" on="1"/>
        <pt x="1150" y="957" on="0"/>
        <pt x="1065" y="957" on="1"/>
        <pt x="999" y="957" on="0"/>
        <pt x="952" y="1001" on="1"/>
        <pt x="889" y="1058" on="1"/>
        <pt x="845" y="1095" on="0"/>
        <pt x="820" y="1095" on="1"/>
        <pt x="797" y="1095" on="0"/>
        <pt x="650" y="957" on="0"/>
        <pt x="610" y="957" on="1"/>
        <pt x="537" y="957" on="0"/>
        <pt x="486" y="1001" on="1"/>
        <pt x="415" y="1061" on="1"/>
        <pt x="366" y="1095" on="0"/>
        <pt x="337" y="1095" on="1"/>
        <pt x="304" y="1095" on="0"/>
        <pt x="250" y="1068" on="0"/>
        <pt x="250" y="1034" on="1"/>
        <pt x="250" y="993" on="0"/>
      </contour>
    </TTGlyph>
    <TTGlyph name="uni178517B6" xMin="100" yMin="0" xMax="1750" yMax="1300">
      <contour>
        <pt x="200" y="865" on="1"/>
        <pt x="100" y="920" on="0"/>
        <pt x="100" y="1043" on="1"/>
        <pt x="100" y="1122" on="0"/>
        <pt x="418" y="1300" on="0"/>
        <pt x="487" y="1300" on="1"/>
        <pt x="538" y="1300" on="0"/>
        <pt x="677" y="1211" on="1"/>
        <pt x="747" y="1169" on="1"/>
        <pt x="793" y="1143" on="0"/>
        <pt x="824" y="1143" on="1"/>
        <pt x="854" y="1143" on="0"/>
        <pt x="891" y="1169" on="1"/>
        <pt x="972" y="1225" on="1"/>
        <pt x="1089" y="1300" on="0"/>
        <pt x="1153" y="1300" on="1"/>
        <pt x="1300" y="1300" on="0"/>
        <pt x="1419" y="1240" on="1"/>
        <pt x="1750" y="1078" on="0"/>
        <pt x="1750" y="888" on="1"/>
        <pt x="1750" y="0" on="1"/>
        <pt x="1500" y="0" on="1"/>
        <pt x="1500" y="888" on="1"/>
        <pt x="1500" y="952" on="0"/>
        <pt x="1147" y="1090" on="0"/>
        <pt x="1067" y="1090" on="1"/>
        <pt x="1017" y="1090" on="0"/>
        <pt x="824" y="949" on="0"/>
        <pt x="771" y="949" on="1"/>
        <pt x="675" y="949" on="0"/>
        <pt x="608" y="994" on="1"/>
        <pt x="514" y="1055" on="1"/>
        <pt x="450" y="1090" on="0"/>
        <pt x="412" y="1090" on="1"/>
        <pt x="368" y="1090" on="0"/>
        <pt x="297" y="1062" on="0"/>
        <pt x="297" y="1028" on="1"/>
        <pt x="297" y="1007" on="0"/>
        <pt x="398" y="935" on="1"/>
        <pt x="450" y="897" on="1"/>
        <pt x="450" y="303" on="1"/>
        <pt x="450" y="100" on="0"/>
        <pt x="600" y="100" on="1"/>
        <pt x="700" y="100" on="1"/>
        <pt x="850" y="100" on="0"/>
        <pt x="850" y="303" on="1"/>
        <pt x="850" y="620" on="1"/>
        <pt x="750" y="655" on="0"/>
        <pt x="750" y="724" on="1"/>
        <pt x="750" y="793" on="0"/>
        <pt x="830" y="880" on="0"/>
        <pt x="900" y="880" on="1"/>
        <pt x="1000" y="880" on="1"/>
        <pt x="1100" y="880" on="0"/>
        <pt x="1100" y="793" on="1"/>
        <pt x="1100" y="303" on="1"/>
        <pt x="1100" y="0" on="0"/>
        <pt x="700" y="0" on="1"/>
        <pt x="600" y="0" on="1"/>
        <pt x="200" y="0" on="0"/>
        <pt x="200" y="303" on="1"/>
      </contour>
    </TTGlyph>
    <TTGlyph name="uni178517C5" xMin="100" yMin="0" xMax="1800" yMax="1647">
      <contour>
        <pt x="1714" y="1011" on="1"/>
        <pt x="1750" y="951" on="0"/>
        <pt x="1750" y="888" on="1"/>
        <pt x="1750" y="0" on="1"/>
        <pt x="1500" y="0" on="1"/>
        <pt x="1500" y="888" on="1"/>
        <pt x="1500" y="952" on="0"/>
        <pt x="1147" y="1090" on="0"/>
        <pt x="1067" y="1090" on="1"/>
        <pt x="1017" y="1090" on="0"/>
        <pt x="824" y="949" on="0"/>
        <pt x="771" y="949" on="1"/>
        <pt x="675" y="949" on="0"/>
        <pt x="608" y="994" on="1"/>
        <pt x="514" y="1055" on="1"/>
        <pt x="450" y="1090" on="0"/>
        <pt x="412" y="1090" on="1"/>
        <pt x="368" y="1090" on="0"/>
        <pt x="297" y="1062" on="0"/>
        <pt x="297" y="1028" on="1"/>
        <pt x="297" y="1007" on="0"/>
        <pt x="398" y="935" on="1"/>
        <pt x="450" y="897" on="1"/>
        <pt x="450" y="303" on="1"/>
        <pt x="450" y="100" on="0"/>
        <pt x="600" y="100" on="1"/>
        <pt x="700" y="100" on="1"/>
        <pt x="850" y="100" on="0"/>
        <pt x="850" y="303" on="1"/>
        <pt x="850" y="620" on="1"/>
        <pt x="750" y="655" on="0"/>
        <pt x="750" y="724" on="1"/>
        <pt x="750" y="793" on="0"/>
        <pt x="830" y="880" on="0"/>
        <pt x="900" y="880" on="1"/>
        <pt x="1000" y="880" on="1"/>
        <pt x="1100" y="880" on="0"/>
        <pt x="1100" y="793" on="1"/>
        <pt x="1100" y="303" on="1"/>
        <pt x="1100" y="0" on="0"/>
        <pt x="700" y="0" on="1"/>
        <pt x="600" y="0" on="1"/>
        <pt x="200" y="0" on="0"/>
        <pt x="200" y="303" on="1"/>
        <pt x="200" y="865" on="1"/>
        <pt x="100" y="920" on="0"/>
        <pt x="100" y="1043" on="1"/>
        <pt x="100" y="1122" on="0"/>
        <pt x="418" y="1300" on="0"/>
        <pt x="487" y="1300" on="1"/>
        <pt x="538" y="1300" on="0"/>
        <pt x="677" y="1211" on="1"/>
        <pt x="747" y="1169" on="1"/>
        <pt x="793" y="1143" on="0"/>
        <pt x="824" y="1143" on="1"/>
        <pt x="854" y="1143" on="0"/>
        <pt x="891" y="1169" on="1"/>
        <pt x="972" y="1225" on="1"/>
        <pt x="1089" y="1300" on="0"/>
        <pt x="1153" y="1300" on="1"/>
        <pt x="1300" y="1300" on="0"/>
        <pt x="1419" y="1240" on="1"/>
        <pt x="1493" y="1204" on="0"/>
        <pt x="1550" y="1166" on="1"/>
        <pt x="1550" y="1474" on="1"/>
        <pt x="1550" y="1560" on="0"/>
        <pt x="1450" y="1560" on="1"/>
        <pt x="1450" y="1647" on="0"/>
        <pt x="1575" y="1647" on="1"/>
        <pt x="1688" y="1647" on="1"/>
        <pt x="1800" y="1647" on="0"/>
        <pt x="1800" y="1474" on="1"/>
        <pt x="1800" y="1214" on="1"/>
        <pt x="1800" y="1127" on="0"/>
      </contour>
    </TTGlyph>
    <TTGlyph name="uni1786" xMin="100" yMin="0" xMax="1200" yMax="1300">
      <contour>
        <pt x="850" y="608" on="1"/>
        <pt x="850" y="750" on="1"/>
        <pt x="840" y="750" on="0"/>
        <pt x="790" y="707" on="0"/>
        <pt x="790" y="672" on="1"/>
        <pt x="790" y="637" on="0"/>
        <pt x="809" y="622" on="1"/>
        <pt x="823" y="610" on="0"/>
      </contour>
      <contour>
        <pt x="450" y="433" on="1"/>
        <pt x="700" y="433" on="0"/>
        <pt x="700" y="217" on="1"/>
        <pt x="700" y="100" on="0"/>
        <pt x="780" y="100" on="1"/>
        <pt x="850" y="100" on="0"/>
        <pt x="850" y="217" on="1"/>
        <pt x="850" y="507" on="1"/>
        <pt x="773" y="511" on="0"/>
        <pt x="734" y="551" on="1"/>
        <pt x="690" y="594" on="0"/>
        <pt x="690" y="672" on="1"/>
        <pt x="690" y="750" on="0"/>
        <pt x="740" y="815" on="1"/>
        <pt x="790" y="880" on="0"/>
        <pt x="850" y="880" on="1"/>
        <pt x="1000" y="880" on="1"/>
        <pt x="1100" y="880" on="0"/>
        <pt x="1100" y="750" on="1"/>
        <pt x="1100" y="217" on="1"/>
        <pt x="1100" y="0" on="0"/>
        <pt x="780" y="0" on="1"/>
        <pt x="550" y="0" on="0"/>
        <pt x="550" y="217" on="1"/>
        <pt x="550" y="333" on="0"/>
        <pt x="450" y="333" on="1"/>
        <pt x="450" y="173" on="1"/>
        <pt x="450" y="0" on="0"/>
        <pt x="345" y="0" on="1"/>
        <pt x="240" y="0" on="1"/>
        <pt x="100" y="0" on="0"/>
        <pt x="100" y="286" on="1"/>
        <pt x="100" y="391" on="0"/>
        <pt x="200" y="425" on="1"/>
        <pt x="200" y="871" on="1"/>
        <pt x="100" y="926" on="0"/>
        <pt x="100" y="1049" on="1"/>
        <pt x="100" y="1126" on="0"/>
        <pt x="342" y="1300" on="0"/>
        <pt x="394" y="1300" on="1"/>
        <pt x="433" y="1300" on="0"/>
        <pt x="539" y="1213" on="1"/>
        <pt x="592" y="1172" on="1"/>
        <pt x="627" y="1147" on="0"/>
        <pt x="650" y="1147" on="1"/>
        <pt x="673" y="1147" on="0"/>
        <pt x="701" y="1172" on="1"/>
        <pt x="763" y="1226" on="1"/>
        <pt x="852" y="1300" on="0"/>
        <pt x="888" y="1300" on="1"/>
        <pt x="923" y="1300" on="0"/>
        <pt x="982" y="1245" on="1"/>
        <pt x="1098" y="1133" on="1"/>
        <pt x="1128" y="1101" on="0"/>
        <pt x="1155" y="1101" on="1"/>
        <pt x="1181" y="1101" on="0"/>
        <pt x="1200" y="1116" on="1"/>
        <pt x="1150" y="957" on="0"/>
        <pt x="1065" y="957" on="1"/>
        <pt x="999" y="957" on="0"/>
        <pt x="952" y="1001" on="1"/>
        <pt x="889" y="1058" on="1"/>
        <pt x="845" y="1095" on="0"/>
        <pt x="820" y="1095" on="1"/>
        <pt x="797" y="1095" on="0"/>
        <pt x="650" y="957" on="0"/>
        <pt x="610" y="957" on="1"/>
        <pt x="537" y="957" on="0"/>
        <pt x="486" y="1001" on="1"/>
        <pt x="415" y="1061" on="1"/>
        <pt x="366" y="1095" on="0"/>
        <pt x="337" y="1095" on="1"/>
        <pt x="304" y="1095" on="0"/>
        <pt x="250" y="1068" on="0"/>
        <pt x="250" y="1034" on="1"/>
        <pt x="250" y="993" on="0"/>
        <pt x="450" y="877" on="1"/>
      </contour>
    </TTGlyph>
    <TTGlyph name="uni178617B6" xMin="100" yMin="0" xMax="1750" yMax="1300">
      <contour>
        <pt x="850" y="608" on="1"/>
        <pt x="850" y="750" on="1"/>
        <pt x="840" y="750" on="0"/>
        <pt x="790" y="707" on="0"/>
        <pt x="790" y="672" on="1"/>
        <pt x="790" y="637" on="0"/>
        <pt x="809" y="622" on="1"/>
        <pt x="823" y="610" on="0"/>
      </contour>
      <contour>
        <pt x="200" y="865" on="1"/>
        <pt x="100" y="920" on="0"/>
        <pt x="100" y="1043" on="1"/>
        <pt x="100" y="1122" on="0"/>
        <pt x="418" y="1300" on="0"/>
        <pt x="487" y="1300" on="1"/>
        <pt x="538" y="1300" on="0"/>
        <pt x="677" y="1211" on="1"/>
        <pt x="747" y="1169" on="1"/>
        <pt x="793" y="1143" on="0"/>
        <pt x="824" y="1143" on="1"/>
        <pt x="854" y="1143" on="0"/>
        <pt x="891" y="1169" on="1"/>
        <pt x="972" y="1225" on="1"/>
        <pt x="1089" y="1300" on="0"/>
        <pt x="1153" y="1300" on="1"/>
        <pt x="1300" y="1300" on="0"/>
        <pt x="1419" y="1240" on="1"/>
        <pt x="1750" y="1078" on="0"/>
        <pt x="1750" y="888" on="1"/>
        <pt x="1750" y="0" on="1"/>
        <pt x="1500" y="0" on="1"/>
        <pt x="1500" y="888" on="1"/>
        <pt x="1500" y="952" on="0"/>
        <pt x="1147" y="1090" on="0"/>
        <pt x="1067" y="1090" on="1"/>
        <pt x="1017" y="1090" on="0"/>
        <pt x="824" y="949" on="0"/>
        <pt x="771" y="949" on="1"/>
        <pt x="675" y="949" on="0"/>
        <pt x="608" y="994" on="1"/>
        <pt x="514" y="1055" on="1"/>
        <pt x="450" y="1090" on="0"/>
        <pt x="412" y="1090" on="1"/>
        <pt x="368" y="1090" on="0"/>
        <pt x="297" y="1062" on="0"/>
        <pt x="297" y="1028" on="1"/>
        <pt x="297" y="1007" on="0"/>
        <pt x="398" y="935" on="1"/>
        <pt x="450" y="897" on="1"/>
        <pt x="450" y="433" on="1"/>
        <pt x="700" y="433" on="0"/>
        <pt x="700" y="217" on="1"/>
        <pt x="700" y="100" on="0"/>
        <pt x="780" y="100" on="1"/>
        <pt x="850" y="100" on="0"/>
        <pt x="850" y="217" on="1"/>
        <pt x="850" y="507" on="1"/>
        <pt x="773" y="511" on="0"/>
        <pt x="734" y="551" on="1"/>
        <pt x="690" y="594" on="0"/>
        <pt x="690" y="672" on="1"/>
        <pt x="690" y="750" on="0"/>
        <pt x="740" y="815" on="1"/>
        <pt x="790" y="880" on="0"/>
        <pt x="850" y="880" on="1"/>
        <pt x="1000" y="880" on="1"/>
        <pt x="1100" y="880" on="0"/>
        <pt x="1100" y="750" on="1"/>
        <pt x="1100" y="217" on="1"/>
        <pt x="1100" y="0" on="0"/>
        <pt x="780" y="0" on="1"/>
        <pt x="550" y="0" on="0"/>
        <pt x="550" y="217" on="1"/>
        <pt x="550" y="333" on="0"/>
        <pt x="450" y="333" on="1"/>
        <pt x="450" y="173" on="1"/>
        <pt x="450" y="0" on="0"/>
        <pt x="345" y="0" on="1"/>
        <pt x="240" y="0" on="1"/>
        <pt x="100" y="0" on="0"/>
        <pt x="100" y="286" on="1"/>
        <pt x="100" y="391" on="0"/>
        <pt x="200" y="425" on="1"/>
      </contour>
    </TTGlyph>
    <TTGlyph name="uni178617C5" xMin="100" yMin="0" xMax="1800" yMax="1647">
      <contour>
        <pt x="850" y="608" on="1"/>
        <pt x="850" y="750" on="1"/>
        <pt x="840" y="750" on="0"/>
        <pt x="790" y="707" on="0"/>
        <pt x="790" y="672" on="1"/>
        <pt x="790" y="637" on="0"/>
        <pt x="809" y="622" on="1"/>
        <pt x="823" y="610" on="0"/>
      </contour>
      <contour>
        <pt x="1714" y="1011" on="1"/>
        <pt x="1750" y="951" on="0"/>
        <pt x="1750" y="888" on="1"/>
        <pt x="1750" y="0" on="1"/>
        <pt x="1500" y="0" on="1"/>
        <pt x="1500" y="888" on="1"/>
        <pt x="1500" y="952" on="0"/>
        <pt x="1147" y="1090" on="0"/>
        <pt x="1067" y="1090" on="1"/>
        <pt x="1017" y="1090" on="0"/>
        <pt x="824" y="949" on="0"/>
        <pt x="771" y="949" on="1"/>
        <pt x="675" y="949" on="0"/>
        <pt x="608" y="994" on="1"/>
        <pt x="514" y="1055" on="1"/>
        <pt x="450" y="1090" on="0"/>
        <pt x="412" y="1090" on="1"/>
        <pt x="368" y="1090" on="0"/>
        <pt x="297" y="1062" on="0"/>
        <pt x="297" y="1028" on="1"/>
        <pt x="297" y="1007" on="0"/>
        <pt x="398" y="935" on="1"/>
        <pt x="450" y="897" on="1"/>
        <pt x="450" y="433" on="1"/>
        <pt x="700" y="433" on="0"/>
        <pt x="700" y="217" on="1"/>
        <pt x="700" y="100" on="0"/>
        <pt x="780" y="100" on="1"/>
        <pt x="850" y="100" on="0"/>
        <pt x="850" y="217" on="1"/>
        <pt x="850" y="507" on="1"/>
        <pt x="773" y="511" on="0"/>
        <pt x="734" y="551" on="1"/>
        <pt x="690" y="594" on="0"/>
        <pt x="690" y="672" on="1"/>
        <pt x="690" y="750" on="0"/>
        <pt x="740" y="815" on="1"/>
        <pt x="790" y="880" on="0"/>
        <pt x="850" y="880" on="1"/>
        <pt x="1000" y="880" on="1"/>
        <pt x="1100" y="880" on="0"/>
        <pt x="1100" y="750" on="1"/>
        <pt x="1100" y="217" on="1"/>
        <pt x="1100" y="0" on="0"/>
        <pt x="780" y="0" on="1"/>
        <pt x="550" y="0" on="0"/>
        <pt x="550" y="217" on="1"/>
        <pt x="550" y="333" on="0"/>
        <pt x="450" y="333" on="1"/>
        <pt x="450" y="173" on="1"/>
        <pt x="450" y="0" on="0"/>
        <pt x="345" y="0" on="1"/>
        <pt x="240" y="0" on="1"/>
        <pt x="100" y="0" on="0"/>
        <pt x="100" y="286" on="1"/>
        <pt x="100" y="391" on="0"/>
        <pt x="200" y="425" on="1"/>
        <pt x="200" y="865" on="1"/>
        <pt x="100" y="920" on="0"/>
        <pt x="100" y="1043" on="1"/>
        <pt x="100" y="1122" on="0"/>
        <pt x="418" y="1300" on="0"/>
        <pt x="487" y="1300" on="1"/>
        <pt x="538" y="1300" on="0"/>
        <pt x="677" y="1211" on="1"/>
        <pt x="747" y="1169" on="1"/>
        <pt x="793" y="1143" on="0"/>
        <pt x="824" y="1143" on="1"/>
        <pt x="854" y="1143" on="0"/>
        <pt x="891" y="1169" on="1"/>
        <pt x="972" y="1225" on="1"/>
        <pt x="1089" y="1300" on="0"/>
        <pt x="1153" y="1300" on="1"/>
        <pt x="1300" y="1300" on="0"/>
        <pt x="1419" y="1240" on="1"/>
        <pt x="1493" y="1204" on="0"/>
        <pt x="1550" y="1166" on="1"/>
        <pt x="1550" y="1474" on="1"/>
        <pt x="1550" y="1560" on="0"/>
        <pt x="1450" y="1560" on="1"/>
        <pt x="1450" y="1647" on="0"/>
        <pt x="1575" y="1647" on="1"/>
        <pt x="1688" y="1647" on="1"/>
        <pt x="1800" y="1647" on="0"/>
        <pt x="1800" y="1474" on="1"/>
        <pt x="1800" y="1214" on="1"/>
        <pt x="1800" y="1127" on="0"/>
      </contour>
    </TTGlyph>
    <TTGlyph name="uni1787" xMin="100" yMin="0" xMax="1100" yMax="1515">
      <contour>
        <pt x="200" y="891" on="1"/>
        <pt x="100" y="933" on="0"/>
        <pt x="100" y="1048" on="1"/>
        <pt x="100" y="1120" on="0"/>
        <pt x="302" y="1300" on="0"/>
        <pt x="384" y="1300" on="1"/>
        <pt x="473" y="1300" on="0"/>
        <pt x="751" y="1146" on="0"/>
        <pt x="820" y="1146" on="1"/>
        <pt x="882" y="1146" on="0"/>
        <pt x="950" y="1176" on="0"/>
        <pt x="950" y="1234" on="1"/>
        <pt x="950" y="1300" on="0"/>
        <pt x="900" y="1300" on="1"/>
        <pt x="800" y="1300" on="0"/>
        <pt x="800" y="1407" on="1"/>
        <pt x="800" y="1515" on="0"/>
        <pt x="900" y="1515" on="1"/>
        <pt x="1100" y="1515" on="0"/>
        <pt x="1100" y="1277" on="1"/>
        <pt x="1100" y="1158" on="0"/>
        <pt x="939" y="987" on="0"/>
        <pt x="770" y="987" on="1"/>
        <pt x="618" y="987" on="0"/>
        <pt x="461" y="1044" on="1"/>
        <pt x="386" y="1090" on="0"/>
        <pt x="337" y="1090" on="1"/>
        <pt x="294" y="1090" on="0"/>
        <pt x="250" y="1048" on="0"/>
        <pt x="250" y="1021" on="1"/>
        <pt x="250" y="995" on="0"/>
        <pt x="450" y="912" on="1"/>
        <pt x="450" y="172" on="1"/>
        <pt x="648" y="357" on="1"/>
        <pt x="850" y="162" on="1"/>
        <pt x="850" y="880" on="1"/>
        <pt x="1100" y="880" on="1"/>
        <pt x="1100" y="0" on="1"/>
        <pt x="850" y="0" on="1"/>
        <pt x="650" y="193" on="1"/>
        <pt x="450" y="0" on="1"/>
        <pt x="200" y="0" on="1"/>
      </contour>
    </TTGlyph>
    <TTGlyph name="uni178717B6" xMin="100" yMin="0" xMax="1750" yMax="1515">
      <contour>
        <pt x="1098" y="1241" on="1"/>
        <pt x="1100" y="1242" on="0"/>
        <pt x="1103" y="1244" on="1"/>
        <pt x="1189" y="1300" on="0"/>
        <pt x="1274" y="1300" on="1"/>
        <pt x="1372" y="1300" on="0"/>
        <pt x="1469" y="1238" on="1"/>
        <pt x="1606" y="1151" on="1"/>
        <pt x="1750" y="1060" on="0"/>
        <pt x="1750" y="898" on="1"/>
        <pt x="1750" y="0" on="1"/>
        <pt x="1500" y="0" on="1"/>
        <pt x="1500" y="888" on="1"/>
        <pt x="1500" y="922" on="0"/>
        <pt x="1463" y="947" on="1"/>
        <pt x="1363" y="1009" on="1"/>
        <pt x="1287" y="1059" on="0"/>
        <pt x="1218" y="1059" on="1"/>
        <pt x="1177" y="1059" on="0"/>
        <pt x="943" y="1019" on="1"/>
        <pt x="873" y="987" on="0"/>
        <pt x="770" y="987" on="1"/>
        <pt x="618" y="987" on="0"/>
        <pt x="461" y="1044" on="1"/>
        <pt x="386" y="1090" on="0"/>
        <pt x="337" y="1090" on="1"/>
        <pt x="294" y="1090" on="0"/>
        <pt x="250" y="1048" on="0"/>
        <pt x="250" y="1021" on="1"/>
        <pt x="250" y="995" on="0"/>
        <pt x="450" y="912" on="1"/>
        <pt x="450" y="172" on="1"/>
        <pt x="648" y="357" on="1"/>
        <pt x="850" y="162" on="1"/>
        <pt x="850" y="880" on="1"/>
        <pt x="1100" y="880" on="1"/>
        <pt x="1100" y="0" on="1"/>
        <pt x="850" y="0" on="1"/>
        <pt x="650" y="193" on="1"/>
        <pt x="450" y="0" on="1"/>
        <pt x="200" y="0" on="1"/>
        <pt x="200" y="891" on="1"/>
        <pt x="100" y="933" on="0"/>
        <pt x="100" y="1048" on="1"/>
        <pt x="100" y="1120" on="0"/>
        <pt x="302" y="1300" on="0"/>
        <pt x="384" y="1300" on="1"/>
        <pt x="473" y="1300" on="0"/>
        <pt x="751" y="1146" on="0"/>
        <pt x="820" y="1146" on="1"/>
        <pt x="882" y="1146" on="0"/>
        <pt x="950" y="1176" on="0"/>
        <pt x="950" y="1234" on="1"/>
        <pt x="950" y="1300" on="0"/>
        <pt x="900" y="1300" on="1"/>
        <pt x="800" y="1300" on="0"/>
        <pt x="800" y="1407" on="1"/>
        <pt x="800" y="1515" on="0"/>
        <pt x="900" y="1515" on="1"/>
        <pt x="1100" y="1515" on="0"/>
        <pt x="1100" y="1277" on="1"/>
        <pt x="1100" y="1258" on="0"/>
      </contour>
    </TTGlyph>
    <TTGlyph name="uni178717C5" xMin="100" yMin="0" xMax="1800" yMax="1647">
      <contour>
        <pt x="1723" y="1024" on="1"/>
        <pt x="1750" y="968" on="0"/>
        <pt x="1750" y="898" on="1"/>
        <pt x="1750" y="0" on="1"/>
        <pt x="1500" y="0" on="1"/>
        <pt x="1500" y="888" on="1"/>
        <pt x="1500" y="922" on="0"/>
        <pt x="1463" y="947" on="1"/>
        <pt x="1363" y="1009" on="1"/>
        <pt x="1287" y="1059" on="0"/>
        <pt x="1218" y="1059" on="1"/>
        <pt x="1177" y="1059" on="0"/>
        <pt x="943" y="1019" on="1"/>
        <pt x="873" y="987" on="0"/>
        <pt x="770" y="987" on="1"/>
        <pt x="618" y="987" on="0"/>
        <pt x="461" y="1044" on="1"/>
        <pt x="386" y="1090" on="0"/>
        <pt x="337" y="1090" on="1"/>
        <pt x="294" y="1090" on="0"/>
        <pt x="250" y="1048" on="0"/>
        <pt x="250" y="1021" on="1"/>
        <pt x="250" y="995" on="0"/>
        <pt x="450" y="912" on="1"/>
        <pt x="450" y="172" on="1"/>
        <pt x="648" y="357" on="1"/>
        <pt x="850" y="162" on="1"/>
        <pt x="850" y="880" on="1"/>
        <pt x="1100" y="880" on="1"/>
        <pt x="1100" y="0" on="1"/>
        <pt x="850" y="0" on="1"/>
        <pt x="650" y="193" on="1"/>
        <pt x="450" y="0" on="1"/>
        <pt x="200" y="0" on="1"/>
        <pt x="200" y="891" on="1"/>
        <pt x="100" y="933" on="0"/>
        <pt x="100" y="1048" on="1"/>
        <pt x="100" y="1120" on="0"/>
        <pt x="302" y="1300" on="0"/>
        <pt x="384" y="1300" on="1"/>
        <pt x="473" y="1300" on="0"/>
        <pt x="751" y="1146" on="0"/>
        <pt x="820" y="1146" on="1"/>
        <pt x="882" y="1146" on="0"/>
        <pt x="950" y="1176" on="0"/>
        <pt x="950" y="1234" on="1"/>
        <pt x="950" y="1300" on="0"/>
        <pt x="900" y="1300" on="1"/>
        <pt x="800" y="1300" on="0"/>
        <pt x="800" y="1407" on="1"/>
        <pt x="800" y="1515" on="0"/>
        <pt x="900" y="1515" on="1"/>
        <pt x="1100" y="1515" on="0"/>
        <pt x="1100" y="1277" on="1"/>
        <pt x="1100" y="1258" on="0"/>
        <pt x="1098" y="1241" on="1"/>
        <pt x="1100" y="1242" on="0"/>
        <pt x="1103" y="1244" on="1"/>
        <pt x="1189" y="1300" on="0"/>
        <pt x="1274" y="1300" on="1"/>
        <pt x="1372" y="1300" on="0"/>
        <pt x="1469" y="1238" on="1"/>
        <pt x="1550" y="1187" on="1"/>
        <pt x="1550" y="1474" on="1"/>
        <pt x="1550" y="1560" on="0"/>
        <pt x="1450" y="1560" on="1"/>
        <pt x="1450" y="1647" on="0"/>
        <pt x="1575" y="1647" on="1"/>
        <pt x="1688" y="1647" on="1"/>
        <pt x="1800" y="1647" on="0"/>
        <pt x="1800" y="1474" on="1"/>
        <pt x="1800" y="1214" on="1"/>
        <pt x="1800" y="1132" on="0"/>
      </contour>
    </TTGlyph>
    <TTGlyph name="uni1788" xMin="200" yMin="0" xMax="2500" yMax="1300">
      <contour>
        <pt x="450" y="100" on="1"/>
        <pt x="500" y="100" on="0"/>
        <pt x="550" y="173" on="0"/>
        <pt x="550" y="260" on="1"/>
        <pt x="550" y="303" on="0"/>
        <pt x="513" y="333" on="0"/>
        <pt x="475" y="333" on="1"/>
        <pt x="450" y="333" on="1"/>
      </contour>
      <contour>
        <pt x="2150" y="817" on="1"/>
        <pt x="2150" y="909" on="0"/>
        <pt x="2018" y="937" on="1"/>
        <pt x="2036" y="1024" on="0"/>
        <pt x="2185" y="1300" on="0"/>
        <pt x="2233" y="1300" on="1"/>
        <pt x="2271" y="1300" on="0"/>
        <pt x="2334" y="1263" on="1"/>
        <pt x="2394" y="1225" on="1"/>
        <pt x="2422" y="1209" on="0"/>
        <pt x="2459" y="1209" on="1"/>
        <pt x="2478" y="1209" on="0"/>
        <pt x="2500" y="1213" on="1"/>
        <pt x="2491" y="1153" on="0"/>
        <pt x="2425" y="1017" on="0"/>
        <pt x="2382" y="1011" on="1"/>
        <pt x="2372" y="1011" on="1"/>
        <pt x="2329" y="1011" on="0"/>
        <pt x="2262" y="1047" on="1"/>
        <pt x="2226" y="1065" on="0"/>
        <pt x="2203" y="1065" on="1"/>
        <pt x="2173" y="1065" on="0"/>
        <pt x="2160" y="1037" on="1"/>
        <pt x="2138" y="986" on="1"/>
        <pt x="2400" y="936" on="0"/>
        <pt x="2400" y="867" on="1"/>
        <pt x="2400" y="303" on="1"/>
        <pt x="2400" y="0" on="0"/>
        <pt x="2000" y="0" on="1"/>
        <pt x="1900" y="0" on="1"/>
        <pt x="1724" y="0" on="0"/>
        <pt x="1625" y="59" on="1"/>
        <pt x="1526" y="0" on="0"/>
        <pt x="1350" y="0" on="1"/>
        <pt x="1250" y="0" on="1"/>
        <pt x="850" y="0" on="0"/>
        <pt x="850" y="303" on="1"/>
        <pt x="850" y="997" on="1"/>
        <pt x="850" y="1200" on="0"/>
        <pt x="700" y="1200" on="1"/>
        <pt x="600" y="1200" on="1"/>
        <pt x="450" y="1200" on="0"/>
        <pt x="450" y="997" on="1"/>
        <pt x="450" y="433" on="1"/>
        <pt x="475" y="433" on="1"/>
        <pt x="563" y="433" on="0"/>
        <pt x="606" y="390" on="1"/>
        <pt x="650" y="347" on="0"/>
        <pt x="650" y="260" on="1"/>
        <pt x="650" y="130" on="0"/>
        <pt x="600" y="65" on="1"/>
        <pt x="550" y="0" on="0"/>
        <pt x="450" y="0" on="1"/>
        <pt x="300" y="0" on="1"/>
        <pt x="200" y="0" on="0"/>
        <pt x="200" y="130" on="1"/>
        <pt x="200" y="997" on="1"/>
        <pt x="200" y="1300" on="0"/>
        <pt x="600" y="1300" on="1"/>
        <pt x="700" y="1300" on="1"/>
        <pt x="1100" y="1300" on="0"/>
        <pt x="1100" y="997" on="1"/>
        <pt x="1100" y="303" on="1"/>
        <pt x="1100" y="100" on="0"/>
        <pt x="1250" y="100" on="1"/>
        <pt x="1350" y="100" on="1"/>
        <pt x="1500" y="100" on="0"/>
        <pt x="1500" y="303" on="1"/>
        <pt x="1500" y="817" on="1"/>
        <pt x="1500" y="909" on="0"/>
        <pt x="1368" y="937" on="1"/>
        <pt x="1386" y="1024" on="0"/>
        <pt x="1535" y="1300" on="0"/>
        <pt x="1583" y="1300" on="1"/>
        <pt x="1621" y="1300" on="0"/>
        <pt x="1684" y="1263" on="1"/>
        <pt x="1744" y="1225" on="1"/>
        <pt x="1772" y="1209" on="0"/>
        <pt x="1809" y="1209" on="1"/>
        <pt x="1828" y="1209" on="0"/>
        <pt x="1850" y="1213" on="1"/>
        <pt x="1841" y="1153" on="0"/>
        <pt x="1775" y="1017" on="0"/>
        <pt x="1732" y="1011" on="1"/>
        <pt x="1722" y="1011" on="1"/>
        <pt x="1679" y="1011" on="0"/>
        <pt x="1612" y="1047" on="1"/>
        <pt x="1576" y="1065" on="0"/>
        <pt x="1553" y="1065" on="1"/>
        <pt x="1523" y="1065" on="0"/>
        <pt x="1510" y="1037" on="1"/>
        <pt x="1488" y="986" on="1"/>
        <pt x="1750" y="936" on="0"/>
        <pt x="1750" y="867" on="1"/>
        <pt x="1750" y="303" on="1"/>
        <pt x="1750" y="100" on="0"/>
        <pt x="1900" y="100" on="1"/>
        <pt x="2000" y="100" on="1"/>
        <pt x="2150" y="100" on="0"/>
        <pt x="2150" y="303" on="1"/>
      </contour>
    </TTGlyph>
    <TTGlyph name="uni178817B6" xMin="200" yMin="0" xMax="3050" yMax="1300">
      <contour>
        <pt x="450" y="100" on="1"/>
        <pt x="500" y="100" on="0"/>
        <pt x="550" y="173" on="0"/>
        <pt x="550" y="260" on="1"/>
        <pt x="550" y="303" on="0"/>
        <pt x="513" y="333" on="0"/>
        <pt x="475" y="333" on="1"/>
        <pt x="450" y="333" on="1"/>
      </contour>
      <contour>
        <pt x="2150" y="817" on="1"/>
        <pt x="2150" y="909" on="0"/>
        <pt x="2018" y="937" on="1"/>
        <pt x="2070" y="1084" on="0"/>
        <pt x="2303" y="1300" on="0"/>
        <pt x="2453" y="1300" on="1"/>
        <pt x="2600" y="1300" on="0"/>
        <pt x="2719" y="1249" on="1"/>
        <pt x="3050" y="1111" on="0"/>
        <pt x="3050" y="900" on="1"/>
        <pt x="3050" y="0" on="1"/>
        <pt x="2800" y="0" on="1"/>
        <pt x="2800" y="900" on="1"/>
        <pt x="2800" y="954" on="0"/>
        <pt x="2649" y="1027" on="1"/>
        <pt x="2497" y="1099" on="0"/>
        <pt x="2403" y="1099" on="1"/>
        <pt x="2308" y="1099" on="0"/>
        <pt x="2246" y="1071" on="1"/>
        <pt x="2183" y="1043" on="0"/>
        <pt x="2158" y="986" on="1"/>
        <pt x="2400" y="936" on="0"/>
        <pt x="2400" y="867" on="1"/>
        <pt x="2400" y="303" on="1"/>
        <pt x="2400" y="0" on="0"/>
        <pt x="2000" y="0" on="1"/>
        <pt x="1900" y="0" on="1"/>
        <pt x="1724" y="0" on="0"/>
        <pt x="1625" y="59" on="1"/>
        <pt x="1526" y="0" on="0"/>
        <pt x="1350" y="0" on="1"/>
        <pt x="1250" y="0" on="1"/>
        <pt x="850" y="0" on="0"/>
        <pt x="850" y="303" on="1"/>
        <pt x="850" y="997" on="1"/>
        <pt x="850" y="1200" on="0"/>
        <pt x="700" y="1200" on="1"/>
        <pt x="600" y="1200" on="1"/>
        <pt x="450" y="1200" on="0"/>
        <pt x="450" y="997" on="1"/>
        <pt x="450" y="433" on="1"/>
        <pt x="475" y="433" on="1"/>
        <pt x="563" y="433" on="0"/>
        <pt x="606" y="390" on="1"/>
        <pt x="650" y="347" on="0"/>
        <pt x="650" y="260" on="1"/>
        <pt x="650" y="130" on="0"/>
        <pt x="600" y="65" on="1"/>
        <pt x="550" y="0" on="0"/>
        <pt x="450" y="0" on="1"/>
        <pt x="300" y="0" on="1"/>
        <pt x="200" y="0" on="0"/>
        <pt x="200" y="130" on="1"/>
        <pt x="200" y="997" on="1"/>
        <pt x="200" y="1300" on="0"/>
        <pt x="600" y="1300" on="1"/>
        <pt x="700" y="1300" on="1"/>
        <pt x="1100" y="1300" on="0"/>
        <pt x="1100" y="997" on="1"/>
        <pt x="1100" y="303" on="1"/>
        <pt x="1100" y="100" on="0"/>
        <pt x="1250" y="100" on="1"/>
        <pt x="1350" y="100" on="1"/>
        <pt x="1500" y="100" on="0"/>
        <pt x="1500" y="303" on="1"/>
        <pt x="1500" y="817" on="1"/>
        <pt x="1500" y="909" on="0"/>
        <pt x="1368" y="937" on="1"/>
        <pt x="1386" y="1024" on="0"/>
        <pt x="1535" y="1300" on="0"/>
        <pt x="1583" y="1300" on="1"/>
        <pt x="1621" y="1300" on="0"/>
        <pt x="1684" y="1263" on="1"/>
        <pt x="1744" y="1225" on="1"/>
        <pt x="1772" y="1209" on="0"/>
        <pt x="1809" y="1209" on="1"/>
        <pt x="1828" y="1209" on="0"/>
        <pt x="1850" y="1213" on="1"/>
        <pt x="1841" y="1153" on="0"/>
        <pt x="1775" y="1017" on="0"/>
        <pt x="1732" y="1011" on="1"/>
        <pt x="1722" y="1011" on="1"/>
        <pt x="1679" y="1011" on="0"/>
        <pt x="1612" y="1047" on="1"/>
        <pt x="1576" y="1065" on="0"/>
        <pt x="1553" y="1065" on="1"/>
        <pt x="1523" y="1065" on="0"/>
        <pt x="1510" y="1037" on="1"/>
        <pt x="1488" y="986" on="1"/>
        <pt x="1750" y="936" on="0"/>
        <pt x="1750" y="867" on="1"/>
        <pt x="1750" y="303" on="1"/>
        <pt x="1750" y="100" on="0"/>
        <pt x="1900" y="100" on="1"/>
        <pt x="2000" y="100" on="1"/>
        <pt x="2150" y="100" on="0"/>
        <pt x="2150" y="303" on="1"/>
      </contour>
    </TTGlyph>
    <TTGlyph name="uni178817C5" xMin="200" yMin="0" xMax="3100" yMax="1647">
      <contour>
        <pt x="450" y="100" on="1"/>
        <pt x="500" y="100" on="0"/>
        <pt x="550" y="173" on="0"/>
        <pt x="550" y="260" on="1"/>
        <pt x="550" y="303" on="0"/>
        <pt x="513" y="333" on="0"/>
        <pt x="475" y="333" on="1"/>
        <pt x="450" y="333" on="1"/>
      </contour>
      <contour>
        <pt x="3020" y="1020" on="1"/>
        <pt x="3050" y="963" on="0"/>
        <pt x="3050" y="900" on="1"/>
        <pt x="3050" y="0" on="1"/>
        <pt x="2800" y="0" on="1"/>
        <pt x="2800" y="900" on="1"/>
        <pt x="2800" y="954" on="0"/>
        <pt x="2649" y="1027" on="1"/>
        <pt x="2497" y="1099" on="0"/>
        <pt x="2403" y="1099" on="1"/>
        <pt x="2308" y="1099" on="0"/>
        <pt x="2246" y="1071" on="1"/>
        <pt x="2183" y="1043" on="0"/>
        <pt x="2158" y="986" on="1"/>
        <pt x="2400" y="936" on="0"/>
        <pt x="2400" y="867" on="1"/>
        <pt x="2400" y="303" on="1"/>
        <pt x="2400" y="0" on="0"/>
        <pt x="2000" y="0" on="1"/>
        <pt x="1900" y="0" on="1"/>
        <pt x="1724" y="0" on="0"/>
        <pt x="1625" y="59" on="1"/>
        <pt x="1526" y="0" on="0"/>
        <pt x="1350" y="0" on="1"/>
        <pt x="1250" y="0" on="1"/>
        <pt x="850" y="0" on="0"/>
        <pt x="850" y="303" on="1"/>
        <pt x="850" y="997" on="1"/>
        <pt x="850" y="1200" on="0"/>
        <pt x="700" y="1200" on="1"/>
        <pt x="600" y="1200" on="1"/>
        <pt x="450" y="1200" on="0"/>
        <pt x="450" y="997" on="1"/>
        <pt x="450" y="433" on="1"/>
        <pt x="475" y="433" on="1"/>
        <pt x="563" y="433" on="0"/>
        <pt x="606" y="390" on="1"/>
        <pt x="650" y="347" on="0"/>
        <pt x="650" y="260" on="1"/>
        <pt x="650" y="130" on="0"/>
        <pt x="600" y="65" on="1"/>
        <pt x="550" y="0" on="0"/>
        <pt x="450" y="0" on="1"/>
        <pt x="300" y="0" on="1"/>
        <pt x="200" y="0" on="0"/>
        <pt x="200" y="130" on="1"/>
        <pt x="200" y="997" on="1"/>
        <pt x="200" y="1300" on="0"/>
        <pt x="600" y="1300" on="1"/>
        <pt x="700" y="1300" on="1"/>
        <pt x="1100" y="1300" on="0"/>
        <pt x="1100" y="997" on="1"/>
        <pt x="1100" y="303" on="1"/>
        <pt x="1100" y="100" on="0"/>
        <pt x="1250" y="100" on="1"/>
        <pt x="1350" y="100" on="1"/>
        <pt x="1500" y="100" on="0"/>
        <pt x="1500" y="303" on="1"/>
        <pt x="1500" y="817" on="1"/>
        <pt x="1500" y="909" on="0"/>
        <pt x="1368" y="937" on="1"/>
        <pt x="1386" y="1024" on="0"/>
        <pt x="1535" y="1300" on="0"/>
        <pt x="1583" y="1300" on="1"/>
        <pt x="1621" y="1300" on="0"/>
        <pt x="1684" y="1263" on="1"/>
        <pt x="1744" y="1225" on="1"/>
        <pt x="1772" y="1209" on="0"/>
        <pt x="1809" y="1209" on="1"/>
        <pt x="1828" y="1209" on="0"/>
        <pt x="1850" y="1213" on="1"/>
        <pt x="1841" y="1153" on="0"/>
        <pt x="1775" y="1017" on="0"/>
        <pt x="1732" y="1011" on="1"/>
        <pt x="1722" y="1011" on="1"/>
        <pt x="1679" y="1011" on="0"/>
        <pt x="1612" y="1047" on="1"/>
        <pt x="1576" y="1065" on="0"/>
        <pt x="1553" y="1065" on="1"/>
        <pt x="1523" y="1065" on="0"/>
        <pt x="1510" y="1037" on="1"/>
        <pt x="1488" y="986" on="1"/>
        <pt x="1750" y="936" on="0"/>
        <pt x="1750" y="867" on="1"/>
        <pt x="1750" y="303" on="1"/>
        <pt x="1750" y="100" on="0"/>
        <pt x="1900" y="100" on="1"/>
        <pt x="2000" y="100" on="1"/>
        <pt x="2150" y="100" on="0"/>
        <pt x="2150" y="303" on="1"/>
        <pt x="2150" y="817" on="1"/>
        <pt x="2150" y="909" on="0"/>
        <pt x="2018" y="937" on="1"/>
        <pt x="2070" y="1084" on="0"/>
        <pt x="2303" y="1300" on="0"/>
        <pt x="2453" y="1300" on="1"/>
        <pt x="2600" y="1300" on="0"/>
        <pt x="2719" y="1249" on="1"/>
        <pt x="2793" y="1218" on="0"/>
        <pt x="2850" y="1184" on="1"/>
        <pt x="2850" y="1474" on="1"/>
        <pt x="2850" y="1560" on="0"/>
        <pt x="2750" y="1560" on="1"/>
        <pt x="2750" y="1647" on="0"/>
        <pt x="2875" y="1647" on="1"/>
        <pt x="2988" y="1647" on="1"/>
        <pt x="3100" y="1647" on="0"/>
        <pt x="3100" y="1474" on="1"/>
        <pt x="3100" y="1214" on="1"/>
        <pt x="3100" y="1131" on="0"/>
      </contour>
    </TTGlyph>
    <TTGlyph name="uni1789" xMin="200" yMin="-600" xMax="1750" yMax="1300">
      <contour>
        <pt x="1500" y="-266" on="1"/>
        <pt x="1500" y="-213" on="0"/>
        <pt x="1465" y="-213" on="1"/>
        <pt x="1403" y="-213" on="0"/>
        <pt x="1403" y="-156" on="1"/>
        <pt x="1403" y="-100" on="0"/>
        <pt x="1465" y="-100" on="1"/>
        <pt x="1750" y="-100" on="0"/>
        <pt x="1750" y="-266" on="1"/>
        <pt x="1750" y="-405" on="0"/>
        <pt x="1635" y="-486" on="1"/>
        <pt x="1474" y="-600" on="0"/>
        <pt x="1089" y="-600" on="1"/>
        <pt x="809" y="-600" on="0"/>
        <pt x="595" y="-502" on="1"/>
        <pt x="388" y="-408" on="0"/>
        <pt x="241" y="-225" on="1"/>
        <pt x="200" y="-183" on="0"/>
        <pt x="200" y="-141" on="1"/>
        <pt x="200" y="-100" on="0"/>
        <pt x="252" y="-100" on="1"/>
        <pt x="353" y="-100" on="0"/>
        <pt x="384" y="-141" on="1"/>
        <pt x="528" y="-294" on="0"/>
        <pt x="855" y="-400" on="0"/>
        <pt x="1089" y="-400" on="1"/>
        <pt x="1285" y="-400" on="0"/>
        <pt x="1500" y="-336" on="0"/>
      </contour>
      <contour>
        <pt x="450" y="100" on="1"/>
        <pt x="500" y="100" on="0"/>
        <pt x="550" y="173" on="0"/>
        <pt x="550" y="260" on="1"/>
        <pt x="550" y="303" on="0"/>
        <pt x="513" y="333" on="0"/>
        <pt x="475" y="333" on="1"/>
        <pt x="450" y="333" on="1"/>
      </contour>
      <contour>
        <pt x="1100" y="0" on="1"/>
        <pt x="850" y="0" on="1"/>
        <pt x="850" y="1000" on="1"/>
        <pt x="850" y="1108" on="0"/>
        <pt x="797" y="1108" on="1"/>
        <pt x="755" y="1108" on="0"/>
        <pt x="656" y="1000" on="1"/>
        <pt x="557" y="1108" on="0"/>
        <pt x="515" y="1108" on="1"/>
        <pt x="450" y="1108" on="0"/>
        <pt x="450" y="1000" on="1"/>
        <pt x="450" y="433" on="1"/>
        <pt x="475" y="433" on="1"/>
        <pt x="563" y="433" on="0"/>
        <pt x="606" y="390" on="1"/>
        <pt x="650" y="347" on="0"/>
        <pt x="650" y="260" on="1"/>
        <pt x="650" y="130" on="0"/>
        <pt x="600" y="65" on="1"/>
        <pt x="550" y="0" on="0"/>
        <pt x="450" y="0" on="1"/>
        <pt x="300" y="0" on="1"/>
        <pt x="200" y="0" on="0"/>
        <pt x="200" y="130" on="1"/>
        <pt x="200" y="1000" on="1"/>
        <pt x="200" y="1122" on="0"/>
        <pt x="410" y="1300" on="0"/>
        <pt x="464" y="1300" on="1"/>
        <pt x="509" y="1300" on="0"/>
        <pt x="656" y="1166" on="1"/>
        <pt x="804" y="1300" on="0"/>
        <pt x="849" y="1300" on="1"/>
        <pt x="903" y="1300" on="0"/>
        <pt x="1008" y="1211" on="1"/>
        <pt x="1023" y="1197" on="0"/>
        <pt x="1038" y="1182" on="1"/>
        <pt x="1069" y="1218" on="0"/>
        <pt x="1116" y="1245" on="1"/>
        <pt x="1215" y="1300" on="0"/>
        <pt x="1321" y="1300" on="1"/>
        <pt x="1750" y="1300" on="0"/>
        <pt x="1750" y="1000" on="1"/>
        <pt x="1750" y="0" on="1"/>
        <pt x="1500" y="0" on="1"/>
        <pt x="1500" y="1000" on="1"/>
        <pt x="1500" y="1200" on="0"/>
        <pt x="1321" y="1200" on="1"/>
        <pt x="1223" y="1200" on="0"/>
        <pt x="1100" y="1094" on="0"/>
        <pt x="1100" y="1000" on="1"/>
      </contour>
    </TTGlyph>
    <TTGlyph name="uni1789.alt" xMin="200" yMin="0" xMax="1750" yMax="1300">
      <contour>
        <pt x="450" y="100" on="1"/>
        <pt x="500" y="100" on="0"/>
        <pt x="550" y="173" on="0"/>
        <pt x="550" y="260" on="1"/>
        <pt x="550" y="303" on="0"/>
        <pt x="513" y="333" on="0"/>
        <pt x="475" y="333" on="1"/>
        <pt x="450" y="333" on="1"/>
      </contour>
      <contour>
        <pt x="1100" y="0" on="1"/>
        <pt x="850" y="0" on="1"/>
        <pt x="850" y="1000" on="1"/>
        <pt x="850" y="1108" on="0"/>
        <pt x="797" y="1108" on="1"/>
        <pt x="755" y="1108" on="0"/>
        <pt x="656" y="1000" on="1"/>
        <pt x="557" y="1108" on="0"/>
        <pt x="515" y="1108" on="1"/>
        <pt x="450" y="1108" on="0"/>
        <pt x="450" y="1000" on="1"/>
        <pt x="450" y="433" on="1"/>
        <pt x="475" y="433" on="1"/>
        <pt x="563" y="433" on="0"/>
        <pt x="606" y="390" on="1"/>
        <pt x="650" y="347" on="0"/>
        <pt x="650" y="260" on="1"/>
        <pt x="650" y="130" on="0"/>
        <pt x="600" y="65" on="1"/>
        <pt x="550" y="0" on="0"/>
        <pt x="450" y="0" on="1"/>
        <pt x="300" y="0" on="1"/>
        <pt x="200" y="0" on="0"/>
        <pt x="200" y="130" on="1"/>
        <pt x="200" y="1000" on="1"/>
        <pt x="200" y="1122" on="0"/>
        <pt x="410" y="1300" on="0"/>
        <pt x="464" y="1300" on="1"/>
        <pt x="509" y="1300" on="0"/>
        <pt x="656" y="1166" on="1"/>
        <pt x="804" y="1300" on="0"/>
        <pt x="849" y="1300" on="1"/>
        <pt x="903" y="1300" on="0"/>
        <pt x="1008" y="1211" on="1"/>
        <pt x="1023" y="1197" on="0"/>
        <pt x="1038" y="1182" on="1"/>
        <pt x="1069" y="1218" on="0"/>
        <pt x="1116" y="1245" on="1"/>
        <pt x="1215" y="1300" on="0"/>
        <pt x="1321" y="1300" on="1"/>
        <pt x="1750" y="1300" on="0"/>
        <pt x="1750" y="1000" on="1"/>
        <pt x="1750" y="0" on="1"/>
        <pt x="1500" y="0" on="1"/>
        <pt x="1500" y="1000" on="1"/>
        <pt x="1500" y="1200" on="0"/>
        <pt x="1321" y="1200" on="1"/>
        <pt x="1223" y="1200" on="0"/>
        <pt x="1100" y="1094" on="0"/>
        <pt x="1100" y="1000" on="1"/>
      </contour>
    </TTGlyph>
    <TTGlyph name="uni178917B6" xMin="200" yMin="-600" xMax="2400" yMax="1300">
      <contour>
        <pt x="1500" y="-336" on="0"/>
        <pt x="1500" y="-266" on="1"/>
        <pt x="1500" y="-213" on="0"/>
        <pt x="1465" y="-213" on="1"/>
        <pt x="1403" y="-213" on="0"/>
        <pt x="1403" y="-156" on="1"/>
        <pt x="1403" y="-100" on="0"/>
        <pt x="1465" y="-100" on="1"/>
        <pt x="1750" y="-100" on="0"/>
        <pt x="1750" y="-266" on="1"/>
        <pt x="1750" y="-405" on="0"/>
        <pt x="1635" y="-486" on="1"/>
        <pt x="1474" y="-600" on="0"/>
        <pt x="1089" y="-600" on="1"/>
        <pt x="809" y="-600" on="0"/>
        <pt x="595" y="-502" on="1"/>
        <pt x="388" y="-408" on="0"/>
        <pt x="241" y="-225" on="1"/>
        <pt x="200" y="-183" on="0"/>
        <pt x="200" y="-141" on="1"/>
        <pt x="200" y="-100" on="0"/>
        <pt x="252" y="-100" on="1"/>
        <pt x="353" y="-100" on="0"/>
        <pt x="384" y="-141" on="1"/>
        <pt x="528" y="-294" on="0"/>
        <pt x="855" y="-400" on="0"/>
        <pt x="1089" y="-400" on="1"/>
        <pt x="1285" y="-400" on="0"/>
      </contour>
      <contour>
        <pt x="450" y="100" on="1"/>
        <pt x="500" y="100" on="0"/>
        <pt x="550" y="173" on="0"/>
        <pt x="550" y="260" on="1"/>
        <pt x="550" y="303" on="0"/>
        <pt x="513" y="333" on="0"/>
        <pt x="475" y="333" on="1"/>
        <pt x="450" y="333" on="1"/>
      </contour>
      <contour>
        <pt x="1703" y="1166" on="1"/>
        <pt x="1701" y="1172" on="1"/>
        <pt x="1703" y="1211" on="0"/>
        <pt x="1753" y="1244" on="1"/>
        <pt x="1839" y="1300" on="0"/>
        <pt x="1924" y="1300" on="1"/>
        <pt x="2022" y="1300" on="0"/>
        <pt x="2119" y="1238" on="1"/>
        <pt x="2256" y="1151" on="1"/>
        <pt x="2400" y="1060" on="0"/>
        <pt x="2400" y="898" on="1"/>
        <pt x="2400" y="0" on="1"/>
        <pt x="2150" y="0" on="1"/>
        <pt x="2150" y="888" on="1"/>
        <pt x="2150" y="922" on="0"/>
        <pt x="2113" y="947" on="1"/>
        <pt x="2013" y="1009" on="1"/>
        <pt x="1937" y="1059" on="0"/>
        <pt x="1868" y="1059" on="1"/>
        <pt x="1823" y="1059" on="0"/>
        <pt x="1750" y="1020" on="1"/>
        <pt x="1750" y="0" on="1"/>
        <pt x="1500" y="0" on="1"/>
        <pt x="1500" y="1000" on="1"/>
        <pt x="1500" y="1200" on="0"/>
        <pt x="1321" y="1200" on="1"/>
        <pt x="1223" y="1200" on="0"/>
        <pt x="1100" y="1094" on="0"/>
        <pt x="1100" y="1000" on="1"/>
        <pt x="1100" y="0" on="1"/>
        <pt x="850" y="0" on="1"/>
        <pt x="850" y="1000" on="1"/>
        <pt x="850" y="1108" on="0"/>
        <pt x="797" y="1108" on="1"/>
        <pt x="755" y="1108" on="0"/>
        <pt x="656" y="1000" on="1"/>
        <pt x="557" y="1108" on="0"/>
        <pt x="515" y="1108" on="1"/>
        <pt x="450" y="1108" on="0"/>
        <pt x="450" y="1000" on="1"/>
        <pt x="450" y="433" on="1"/>
        <pt x="475" y="433" on="1"/>
        <pt x="563" y="433" on="0"/>
        <pt x="606" y="390" on="1"/>
        <pt x="650" y="347" on="0"/>
        <pt x="650" y="260" on="1"/>
        <pt x="650" y="130" on="0"/>
        <pt x="600" y="65" on="1"/>
        <pt x="550" y="0" on="0"/>
        <pt x="450" y="0" on="1"/>
        <pt x="300" y="0" on="1"/>
        <pt x="200" y="0" on="0"/>
        <pt x="200" y="130" on="1"/>
        <pt x="200" y="1000" on="1"/>
        <pt x="200" y="1122" on="0"/>
        <pt x="410" y="1300" on="0"/>
        <pt x="464" y="1300" on="1"/>
        <pt x="509" y="1300" on="0"/>
        <pt x="656" y="1166" on="1"/>
        <pt x="804" y="1300" on="0"/>
        <pt x="849" y="1300" on="1"/>
        <pt x="903" y="1300" on="0"/>
        <pt x="1008" y="1211" on="1"/>
        <pt x="1023" y="1197" on="0"/>
        <pt x="1038" y="1182" on="1"/>
        <pt x="1069" y="1218" on="0"/>
        <pt x="1116" y="1245" on="1"/>
        <pt x="1215" y="1300" on="0"/>
        <pt x="1321" y="1300" on="1"/>
        <pt x="1608" y="1300" on="0"/>
      </contour>
    </TTGlyph>
    <TTGlyph name="uni178917B6.alt" xMin="200" yMin="0" xMax="2400" yMax="1300">
      <contour>
        <pt x="450" y="100" on="1"/>
        <pt x="500" y="100" on="0"/>
        <pt x="550" y="173" on="0"/>
        <pt x="550" y="260" on="1"/>
        <pt x="550" y="303" on="0"/>
        <pt x="513" y="333" on="0"/>
        <pt x="475" y="333" on="1"/>
        <pt x="450" y="333" on="1"/>
      </contour>
      <contour>
        <pt x="1703" y="1166" on="1"/>
        <pt x="1701" y="1172" on="1"/>
        <pt x="1703" y="1211" on="0"/>
        <pt x="1753" y="1244" on="1"/>
        <pt x="1839" y="1300" on="0"/>
        <pt x="1924" y="1300" on="1"/>
        <pt x="2022" y="1300" on="0"/>
        <pt x="2119" y="1238" on="1"/>
        <pt x="2256" y="1151" on="1"/>
        <pt x="2400" y="1060" on="0"/>
        <pt x="2400" y="898" on="1"/>
        <pt x="2400" y="0" on="1"/>
        <pt x="2150" y="0" on="1"/>
        <pt x="2150" y="888" on="1"/>
        <pt x="2150" y="922" on="0"/>
        <pt x="2113" y="947" on="1"/>
        <pt x="2013" y="1009" on="1"/>
        <pt x="1937" y="1059" on="0"/>
        <pt x="1868" y="1059" on="1"/>
        <pt x="1823" y="1059" on="0"/>
        <pt x="1750" y="1020" on="1"/>
        <pt x="1750" y="0" on="1"/>
        <pt x="1500" y="0" on="1"/>
        <pt x="1500" y="1000" on="1"/>
        <pt x="1500" y="1200" on="0"/>
        <pt x="1321" y="1200" on="1"/>
        <pt x="1223" y="1200" on="0"/>
        <pt x="1100" y="1094" on="0"/>
        <pt x="1100" y="1000" on="1"/>
        <pt x="1100" y="0" on="1"/>
        <pt x="850" y="0" on="1"/>
        <pt x="850" y="1000" on="1"/>
        <pt x="850" y="1108" on="0"/>
        <pt x="797" y="1108" on="1"/>
        <pt x="755" y="1108" on="0"/>
        <pt x="656" y="1000" on="1"/>
        <pt x="557" y="1108" on="0"/>
        <pt x="515" y="1108" on="1"/>
        <pt x="450" y="1108" on="0"/>
        <pt x="450" y="1000" on="1"/>
        <pt x="450" y="433" on="1"/>
        <pt x="475" y="433" on="1"/>
        <pt x="563" y="433" on="0"/>
        <pt x="606" y="390" on="1"/>
        <pt x="650" y="347" on="0"/>
        <pt x="650" y="260" on="1"/>
        <pt x="650" y="130" on="0"/>
        <pt x="600" y="65" on="1"/>
        <pt x="550" y="0" on="0"/>
        <pt x="450" y="0" on="1"/>
        <pt x="300" y="0" on="1"/>
        <pt x="200" y="0" on="0"/>
        <pt x="200" y="130" on="1"/>
        <pt x="200" y="1000" on="1"/>
        <pt x="200" y="1122" on="0"/>
        <pt x="410" y="1300" on="0"/>
        <pt x="464" y="1300" on="1"/>
        <pt x="509" y="1300" on="0"/>
        <pt x="656" y="1166" on="1"/>
        <pt x="804" y="1300" on="0"/>
        <pt x="849" y="1300" on="1"/>
        <pt x="903" y="1300" on="0"/>
        <pt x="1008" y="1211" on="1"/>
        <pt x="1023" y="1197" on="0"/>
        <pt x="1038" y="1182" on="1"/>
        <pt x="1069" y="1218" on="0"/>
        <pt x="1116" y="1245" on="1"/>
        <pt x="1215" y="1300" on="0"/>
        <pt x="1321" y="1300" on="1"/>
        <pt x="1608" y="1300" on="0"/>
      </contour>
    </TTGlyph>
    <TTGlyph name="uni178917B6_17C917C6" xMin="200" yMin="-989" xMax="2400" yMax="1935">
      <contour>
        <pt x="1500" y="-336" on="0"/>
        <pt x="1500" y="-266" on="1"/>
        <pt x="1500" y="-213" on="0"/>
        <pt x="1465" y="-213" on="1"/>
        <pt x="1403" y="-213" on="0"/>
        <pt x="1403" y="-156" on="1"/>
        <pt x="1403" y="-100" on="0"/>
        <pt x="1465" y="-100" on="1"/>
        <pt x="1750" y="-100" on="0"/>
        <pt x="1750" y="-266" on="1"/>
        <pt x="1750" y="-405" on="0"/>
        <pt x="1635" y="-486" on="1"/>
        <pt x="1474" y="-600" on="0"/>
        <pt x="1089" y="-600" on="1"/>
        <pt x="809" y="-600" on="0"/>
        <pt x="595" y="-502" on="1"/>
        <pt x="388" y="-408" on="0"/>
        <pt x="241" y="-225" on="1"/>
        <pt x="200" y="-183" on="0"/>
        <pt x="200" y="-141" on="1"/>
        <pt x="200" y="-100" on="0"/>
        <pt x="252" y="-100" on="1"/>
        <pt x="353" y="-100" on="0"/>
        <pt x="384" y="-141" on="1"/>
        <pt x="528" y="-294" on="0"/>
        <pt x="855" y="-400" on="0"/>
        <pt x="1089" y="-400" on="1"/>
        <pt x="1285" y="-400" on="0"/>
      </contour>
      <contour>
        <pt x="450" y="100" on="1"/>
        <pt x="500" y="100" on="0"/>
        <pt x="550" y="173" on="0"/>
        <pt x="550" y="260" on="1"/>
        <pt x="550" y="303" on="0"/>
        <pt x="513" y="333" on="0"/>
        <pt x="475" y="333" on="1"/>
        <pt x="450" y="333" on="1"/>
      </contour>
      <contour>
        <pt x="1703" y="1166" on="1"/>
        <pt x="1701" y="1172" on="1"/>
        <pt x="1703" y="1211" on="0"/>
        <pt x="1753" y="1244" on="1"/>
        <pt x="1839" y="1300" on="0"/>
        <pt x="1924" y="1300" on="1"/>
        <pt x="2022" y="1300" on="0"/>
        <pt x="2119" y="1238" on="1"/>
        <pt x="2256" y="1151" on="1"/>
        <pt x="2400" y="1060" on="0"/>
        <pt x="2400" y="898" on="1"/>
        <pt x="2400" y="0" on="1"/>
        <pt x="2150" y="0" on="1"/>
        <pt x="2150" y="888" on="1"/>
        <pt x="2150" y="922" on="0"/>
        <pt x="2113" y="947" on="1"/>
        <pt x="2013" y="1009" on="1"/>
        <pt x="1937" y="1059" on="0"/>
        <pt x="1868" y="1059" on="1"/>
        <pt x="1823" y="1059" on="0"/>
        <pt x="1750" y="1020" on="1"/>
        <pt x="1750" y="0" on="1"/>
        <pt x="1500" y="0" on="1"/>
        <pt x="1500" y="1000" on="1"/>
        <pt x="1500" y="1200" on="0"/>
        <pt x="1321" y="1200" on="1"/>
        <pt x="1223" y="1200" on="0"/>
        <pt x="1100" y="1094" on="0"/>
        <pt x="1100" y="1000" on="1"/>
        <pt x="1100" y="0" on="1"/>
        <pt x="850" y="0" on="1"/>
        <pt x="850" y="1000" on="1"/>
        <pt x="850" y="1108" on="0"/>
        <pt x="797" y="1108" on="1"/>
        <pt x="755" y="1108" on="0"/>
        <pt x="656" y="1000" on="1"/>
        <pt x="557" y="1108" on="0"/>
        <pt x="515" y="1108" on="1"/>
        <pt x="450" y="1108" on="0"/>
        <pt x="450" y="1000" on="1"/>
        <pt x="450" y="433" on="1"/>
        <pt x="475" y="433" on="1"/>
        <pt x="563" y="433" on="0"/>
        <pt x="606" y="390" on="1"/>
        <pt x="650" y="347" on="0"/>
        <pt x="650" y="260" on="1"/>
        <pt x="650" y="130" on="0"/>
        <pt x="600" y="65" on="1"/>
        <pt x="550" y="0" on="0"/>
        <pt x="450" y="0" on="1"/>
        <pt x="300" y="0" on="1"/>
        <pt x="200" y="0" on="0"/>
        <pt x="200" y="130" on="1"/>
        <pt x="200" y="1000" on="1"/>
        <pt x="200" y="1122" on="0"/>
        <pt x="410" y="1300" on="0"/>
        <pt x="464" y="1300" on="1"/>
        <pt x="509" y="1300" on="0"/>
        <pt x="656" y="1166" on="1"/>
        <pt x="804" y="1300" on="0"/>
        <pt x="849" y="1300" on="1"/>
        <pt x="903" y="1300" on="0"/>
        <pt x="1008" y="1211" on="1"/>
        <pt x="1023" y="1197" on="0"/>
        <pt x="1038" y="1182" on="1"/>
        <pt x="1069" y="1218" on="0"/>
        <pt x="1116" y="1245" on="1"/>
        <pt x="1215" y="1300" on="0"/>
        <pt x="1321" y="1300" on="1"/>
        <pt x="1608" y="1300" on="0"/>
      </contour>
      <contour>
        <pt x="1662" y="-626" on="0"/>
        <pt x="1662" y="-692" on="1"/>
        <pt x="1662" y="-956" on="1"/>
        <pt x="1662" y="-989" on="0"/>
        <pt x="1562" y="-989" on="1"/>
        <pt x="1462" y="-989" on="0"/>
        <pt x="1462" y="-956" on="1"/>
        <pt x="1462" y="-780" on="1"/>
        <pt x="1382" y="-780" on="0"/>
        <pt x="1382" y="-703" on="1"/>
        <pt x="1382" y="-626" on="0"/>
        <pt x="1502" y="-626" on="1"/>
        <pt x="1582" y="-626" on="1"/>
      </contour>
      <contour>
        <pt x="1927" y="1785" on="0"/>
        <pt x="1895" y="1766" on="0"/>
        <pt x="1878" y="1730" on="0"/>
        <pt x="1878" y="1710" on="1"/>
        <pt x="1878" y="1691" on="0"/>
        <pt x="1895" y="1655" on="0"/>
        <pt x="1927" y="1635" on="0"/>
        <pt x="1943" y="1635" on="1"/>
        <pt x="1960" y="1635" on="0"/>
        <pt x="1992" y="1655" on="0"/>
        <pt x="2008" y="1691" on="0"/>
        <pt x="2008" y="1710" on="1"/>
        <pt x="2008" y="1730" on="0"/>
        <pt x="1991" y="1766" on="0"/>
        <pt x="1960" y="1785" on="0"/>
        <pt x="1943" y="1785" on="1"/>
      </contour>
      <contour>
        <pt x="1943" y="1935" on="1"/>
        <pt x="2006" y="1935" on="0"/>
        <pt x="2126" y="1877" on="0"/>
        <pt x="2193" y="1769" on="0"/>
        <pt x="2193" y="1710" on="1"/>
        <pt x="2193" y="1652" on="0"/>
        <pt x="2127" y="1544" on="0"/>
        <pt x="2009" y="1485" on="0"/>
        <pt x="1943" y="1485" on="1"/>
        <pt x="1879" y="1485" on="0"/>
        <pt x="1760" y="1544" on="0"/>
        <pt x="1693" y="1652" on="0"/>
        <pt x="1693" y="1710" on="1"/>
        <pt x="1693" y="1769" on="0"/>
        <pt x="1761" y="1877" on="0"/>
        <pt x="1880" y="1935" on="0"/>
      </contour>
    </TTGlyph>
    <TTGlyph name="uni178917C5" xMin="200" yMin="-600" xMax="2450" yMax="1647">
      <contour>
        <pt x="450" y="100" on="1"/>
        <pt x="500" y="100" on="0"/>
        <pt x="550" y="173" on="0"/>
        <pt x="550" y="260" on="1"/>
        <pt x="550" y="303" on="0"/>
        <pt x="513" y="333" on="0"/>
        <pt x="475" y="333" on="1"/>
        <pt x="450" y="333" on="1"/>
      </contour>
      <contour>
        <pt x="1500" y="-266" on="1"/>
        <pt x="1500" y="-213" on="0"/>
        <pt x="1465" y="-213" on="1"/>
        <pt x="1403" y="-213" on="0"/>
        <pt x="1403" y="-156" on="1"/>
        <pt x="1403" y="-100" on="0"/>
        <pt x="1465" y="-100" on="1"/>
        <pt x="1750" y="-100" on="0"/>
        <pt x="1750" y="-266" on="1"/>
        <pt x="1750" y="-405" on="0"/>
        <pt x="1635" y="-486" on="1"/>
        <pt x="1474" y="-600" on="0"/>
        <pt x="1089" y="-600" on="1"/>
        <pt x="809" y="-600" on="0"/>
        <pt x="595" y="-502" on="1"/>
        <pt x="388" y="-408" on="0"/>
        <pt x="241" y="-225" on="1"/>
        <pt x="200" y="-183" on="0"/>
        <pt x="200" y="-141" on="1"/>
        <pt x="200" y="-100" on="0"/>
        <pt x="252" y="-100" on="1"/>
        <pt x="353" y="-100" on="0"/>
        <pt x="384" y="-141" on="1"/>
        <pt x="528" y="-294" on="0"/>
        <pt x="855" y="-400" on="0"/>
        <pt x="1089" y="-400" on="1"/>
        <pt x="1285" y="-400" on="0"/>
        <pt x="1500" y="-336" on="0"/>
      </contour>
      <contour>
        <pt x="2373" y="1024" on="1"/>
        <pt x="2400" y="968" on="0"/>
        <pt x="2400" y="898" on="1"/>
        <pt x="2400" y="0" on="1"/>
        <pt x="2150" y="0" on="1"/>
        <pt x="2150" y="888" on="1"/>
        <pt x="2150" y="922" on="0"/>
        <pt x="2113" y="947" on="1"/>
        <pt x="2013" y="1009" on="1"/>
        <pt x="1937" y="1059" on="0"/>
        <pt x="1868" y="1059" on="1"/>
        <pt x="1823" y="1059" on="0"/>
        <pt x="1750" y="1020" on="1"/>
        <pt x="1750" y="0" on="1"/>
        <pt x="1500" y="0" on="1"/>
        <pt x="1500" y="1000" on="1"/>
        <pt x="1500" y="1200" on="0"/>
        <pt x="1321" y="1200" on="1"/>
        <pt x="1223" y="1200" on="0"/>
        <pt x="1100" y="1094" on="0"/>
        <pt x="1100" y="1000" on="1"/>
        <pt x="1100" y="0" on="1"/>
        <pt x="850" y="0" on="1"/>
        <pt x="850" y="1000" on="1"/>
        <pt x="850" y="1108" on="0"/>
        <pt x="797" y="1108" on="1"/>
        <pt x="755" y="1108" on="0"/>
        <pt x="656" y="1000" on="1"/>
        <pt x="557" y="1108" on="0"/>
        <pt x="515" y="1108" on="1"/>
        <pt x="450" y="1108" on="0"/>
        <pt x="450" y="1000" on="1"/>
        <pt x="450" y="433" on="1"/>
        <pt x="475" y="433" on="1"/>
        <pt x="563" y="433" on="0"/>
        <pt x="606" y="390" on="1"/>
        <pt x="650" y="347" on="0"/>
        <pt x="650" y="260" on="1"/>
        <pt x="650" y="130" on="0"/>
        <pt x="600" y="65" on="1"/>
        <pt x="550" y="0" on="0"/>
        <pt x="450" y="0" on="1"/>
        <pt x="300" y="0" on="1"/>
        <pt x="200" y="0" on="0"/>
        <pt x="200" y="130" on="1"/>
        <pt x="200" y="1000" on="1"/>
        <pt x="200" y="1122" on="0"/>
        <pt x="410" y="1300" on="0"/>
        <pt x="464" y="1300" on="1"/>
        <pt x="509" y="1300" on="0"/>
        <pt x="656" y="1166" on="1"/>
        <pt x="804" y="1300" on="0"/>
        <pt x="849" y="1300" on="1"/>
        <pt x="903" y="1300" on="0"/>
        <pt x="1008" y="1211" on="1"/>
        <pt x="1023" y="1197" on="0"/>
        <pt x="1038" y="1182" on="1"/>
        <pt x="1069" y="1218" on="0"/>
        <pt x="1116" y="1245" on="1"/>
        <pt x="1215" y="1300" on="0"/>
        <pt x="1321" y="1300" on="1"/>
        <pt x="1608" y="1300" on="0"/>
        <pt x="1703" y="1166" on="1"/>
        <pt x="1701" y="1172" on="1"/>
        <pt x="1703" y="1211" on="0"/>
        <pt x="1753" y="1244" on="1"/>
        <pt x="1839" y="1300" on="0"/>
        <pt x="1924" y="1300" on="1"/>
        <pt x="2022" y="1300" on="0"/>
        <pt x="2119" y="1238" on="1"/>
        <pt x="2200" y="1187" on="1"/>
        <pt x="2200" y="1474" on="1"/>
        <pt x="2200" y="1560" on="0"/>
        <pt x="2100" y="1560" on="1"/>
        <pt x="2100" y="1647" on="0"/>
        <pt x="2225" y="1647" on="1"/>
        <pt x="2338" y="1647" on="1"/>
        <pt x="2450" y="1647" on="0"/>
        <pt x="2450" y="1474" on="1"/>
        <pt x="2450" y="1214" on="1"/>
        <pt x="2450" y="1132" on="0"/>
      </contour>
    </TTGlyph>
    <TTGlyph name="uni178917C5.alt" xMin="200" yMin="0" xMax="2450" yMax="1647">
      <contour>
        <pt x="450" y="100" on="1"/>
        <pt x="500" y="100" on="0"/>
        <pt x="550" y="173" on="0"/>
        <pt x="550" y="260" on="1"/>
        <pt x="550" y="303" on="0"/>
        <pt x="513" y="333" on="0"/>
        <pt x="475" y="333" on="1"/>
        <pt x="450" y="333" on="1"/>
      </contour>
      <contour>
        <pt x="2373" y="1024" on="1"/>
        <pt x="2400" y="968" on="0"/>
        <pt x="2400" y="898" on="1"/>
        <pt x="2400" y="0" on="1"/>
        <pt x="2150" y="0" on="1"/>
        <pt x="2150" y="888" on="1"/>
        <pt x="2150" y="922" on="0"/>
        <pt x="2113" y="947" on="1"/>
        <pt x="2013" y="1009" on="1"/>
        <pt x="1937" y="1059" on="0"/>
        <pt x="1868" y="1059" on="1"/>
        <pt x="1823" y="1059" on="0"/>
        <pt x="1750" y="1020" on="1"/>
        <pt x="1750" y="0" on="1"/>
        <pt x="1500" y="0" on="1"/>
        <pt x="1500" y="1000" on="1"/>
        <pt x="1500" y="1200" on="0"/>
        <pt x="1321" y="1200" on="1"/>
        <pt x="1223" y="1200" on="0"/>
        <pt x="1100" y="1094" on="0"/>
        <pt x="1100" y="1000" on="1"/>
        <pt x="1100" y="0" on="1"/>
        <pt x="850" y="0" on="1"/>
        <pt x="850" y="1000" on="1"/>
        <pt x="850" y="1108" on="0"/>
        <pt x="797" y="1108" on="1"/>
        <pt x="755" y="1108" on="0"/>
        <pt x="656" y="1000" on="1"/>
        <pt x="557" y="1108" on="0"/>
        <pt x="515" y="1108" on="1"/>
        <pt x="450" y="1108" on="0"/>
        <pt x="450" y="1000" on="1"/>
        <pt x="450" y="433" on="1"/>
        <pt x="475" y="433" on="1"/>
        <pt x="563" y="433" on="0"/>
        <pt x="606" y="390" on="1"/>
        <pt x="650" y="347" on="0"/>
        <pt x="650" y="260" on="1"/>
        <pt x="650" y="130" on="0"/>
        <pt x="600" y="65" on="1"/>
        <pt x="550" y="0" on="0"/>
        <pt x="450" y="0" on="1"/>
        <pt x="300" y="0" on="1"/>
        <pt x="200" y="0" on="0"/>
        <pt x="200" y="130" on="1"/>
        <pt x="200" y="1000" on="1"/>
        <pt x="200" y="1122" on="0"/>
        <pt x="410" y="1300" on="0"/>
        <pt x="464" y="1300" on="1"/>
        <pt x="509" y="1300" on="0"/>
        <pt x="656" y="1166" on="1"/>
        <pt x="804" y="1300" on="0"/>
        <pt x="849" y="1300" on="1"/>
        <pt x="903" y="1300" on="0"/>
        <pt x="1008" y="1211" on="1"/>
        <pt x="1023" y="1197" on="0"/>
        <pt x="1038" y="1182" on="1"/>
        <pt x="1069" y="1218" on="0"/>
        <pt x="1116" y="1245" on="1"/>
        <pt x="1215" y="1300" on="0"/>
        <pt x="1321" y="1300" on="1"/>
        <pt x="1608" y="1300" on="0"/>
        <pt x="1703" y="1166" on="1"/>
        <pt x="1701" y="1172" on="1"/>
        <pt x="1703" y="1211" on="0"/>
        <pt x="1753" y="1244" on="1"/>
        <pt x="1839" y="1300" on="0"/>
        <pt x="1924" y="1300" on="1"/>
        <pt x="2022" y="1300" on="0"/>
        <pt x="2119" y="1238" on="1"/>
        <pt x="2200" y="1187" on="1"/>
        <pt x="2200" y="1474" on="1"/>
        <pt x="2200" y="1560" on="0"/>
        <pt x="2100" y="1560" on="1"/>
        <pt x="2100" y="1647" on="0"/>
        <pt x="2225" y="1647" on="1"/>
        <pt x="2338" y="1647" on="1"/>
        <pt x="2450" y="1647" on="0"/>
        <pt x="2450" y="1474" on="1"/>
        <pt x="2450" y="1214" on="1"/>
        <pt x="2450" y="1132" on="0"/>
      </contour>
    </TTGlyph>
    <TTGlyph name="uni178A" xMin="200" yMin="0" xMax="1100" yMax="1449">
      <contour>
        <pt x="660" y="1049" on="1"/>
        <pt x="792" y="1049" on="0"/>
        <pt x="880" y="1170" on="0"/>
        <pt x="880" y="1235" on="1"/>
        <pt x="880" y="1318" on="0"/>
        <pt x="800" y="1318" on="1"/>
        <pt x="730" y="1318" on="0"/>
        <pt x="730" y="1383" on="1"/>
        <pt x="730" y="1449" on="0"/>
        <pt x="850" y="1449" on="1"/>
        <pt x="1100" y="1449" on="0"/>
        <pt x="1100" y="1235" on="1"/>
        <pt x="1100" y="1123" on="0"/>
        <pt x="899" y="949" on="0"/>
        <pt x="660" y="949" on="1"/>
        <pt x="609" y="949" on="0"/>
        <pt x="564" y="951" on="1"/>
        <pt x="200" y="968" on="0"/>
        <pt x="200" y="1125" on="1"/>
        <pt x="200" y="1215" on="0"/>
        <pt x="247" y="1259" on="1"/>
        <pt x="290" y="1300" on="0"/>
        <pt x="375" y="1300" on="1"/>
        <pt x="471" y="1300" on="0"/>
        <pt x="511" y="1268" on="1"/>
        <pt x="550" y="1236" on="0"/>
        <pt x="550" y="1190" on="1"/>
        <pt x="550" y="1143" on="0"/>
        <pt x="528" y="1105" on="1"/>
        <pt x="555" y="1072" on="0"/>
        <pt x="615" y="1049" on="0"/>
      </contour>
      <contour>
        <pt x="200" y="863" on="1"/>
        <pt x="450" y="863" on="1"/>
        <pt x="450" y="172" on="1"/>
        <pt x="648" y="357" on="1"/>
        <pt x="850" y="162" on="1"/>
        <pt x="850" y="863" on="1"/>
        <pt x="1100" y="863" on="1"/>
        <pt x="1100" y="0" on="1"/>
        <pt x="850" y="0" on="1"/>
        <pt x="650" y="193" on="1"/>
        <pt x="450" y="0" on="1"/>
        <pt x="200" y="0" on="1"/>
      </contour>
    </TTGlyph>
    <TTGlyph name="uni178A17B6" xMin="200" yMin="0" xMax="1750" yMax="1449">
      <contour>
        <pt x="1100" y="1242" on="1"/>
        <pt x="1101" y="1243" on="0"/>
        <pt x="1103" y="1244" on="1"/>
        <pt x="1189" y="1300" on="0"/>
        <pt x="1274" y="1300" on="1"/>
        <pt x="1372" y="1300" on="0"/>
        <pt x="1469" y="1238" on="1"/>
        <pt x="1606" y="1151" on="1"/>
        <pt x="1750" y="1060" on="0"/>
        <pt x="1750" y="898" on="1"/>
        <pt x="1750" y="0" on="1"/>
        <pt x="1500" y="0" on="1"/>
        <pt x="1500" y="888" on="1"/>
        <pt x="1500" y="922" on="0"/>
        <pt x="1463" y="947" on="1"/>
        <pt x="1363" y="1009" on="1"/>
        <pt x="1287" y="1059" on="0"/>
        <pt x="1218" y="1059" on="1"/>
        <pt x="1181" y="1059" on="0"/>
        <pt x="988" y="1026" on="1"/>
        <pt x="885" y="949" on="0"/>
        <pt x="660" y="949" on="1"/>
        <pt x="609" y="949" on="0"/>
        <pt x="564" y="951" on="1"/>
        <pt x="200" y="968" on="0"/>
        <pt x="200" y="1125" on="1"/>
        <pt x="200" y="1215" on="0"/>
        <pt x="247" y="1259" on="1"/>
        <pt x="290" y="1300" on="0"/>
        <pt x="375" y="1300" on="1"/>
        <pt x="471" y="1300" on="0"/>
        <pt x="511" y="1268" on="1"/>
        <pt x="550" y="1236" on="0"/>
        <pt x="550" y="1190" on="1"/>
        <pt x="550" y="1143" on="0"/>
        <pt x="528" y="1105" on="1"/>
        <pt x="555" y="1072" on="0"/>
        <pt x="615" y="1049" on="0"/>
        <pt x="660" y="1049" on="1"/>
        <pt x="792" y="1049" on="0"/>
        <pt x="880" y="1170" on="0"/>
        <pt x="880" y="1235" on="1"/>
        <pt x="880" y="1318" on="0"/>
        <pt x="800" y="1318" on="1"/>
        <pt x="730" y="1318" on="0"/>
        <pt x="730" y="1383" on="1"/>
        <pt x="730" y="1449" on="0"/>
        <pt x="850" y="1449" on="1"/>
        <pt x="1096" y="1449" on="0"/>
      </contour>
      <contour>
        <pt x="200" y="863" on="1"/>
        <pt x="450" y="863" on="1"/>
        <pt x="450" y="172" on="1"/>
        <pt x="648" y="357" on="1"/>
        <pt x="850" y="162" on="1"/>
        <pt x="850" y="863" on="1"/>
        <pt x="1100" y="863" on="1"/>
        <pt x="1100" y="0" on="1"/>
        <pt x="850" y="0" on="1"/>
        <pt x="650" y="193" on="1"/>
        <pt x="450" y="0" on="1"/>
        <pt x="200" y="0" on="1"/>
      </contour>
    </TTGlyph>
    <TTGlyph name="uni178A17C5" xMin="200" yMin="0" xMax="1800" yMax="1647">
      <contour>
        <pt x="200" y="863" on="1"/>
        <pt x="450" y="863" on="1"/>
        <pt x="450" y="172" on="1"/>
        <pt x="648" y="357" on="1"/>
        <pt x="850" y="162" on="1"/>
        <pt x="850" y="863" on="1"/>
        <pt x="1100" y="863" on="1"/>
        <pt x="1100" y="0" on="1"/>
        <pt x="850" y="0" on="1"/>
        <pt x="650" y="193" on="1"/>
        <pt x="450" y="0" on="1"/>
        <pt x="200" y="0" on="1"/>
      </contour>
      <contour>
        <pt x="1723" y="1024" on="1"/>
        <pt x="1750" y="968" on="0"/>
        <pt x="1750" y="898" on="1"/>
        <pt x="1750" y="0" on="1"/>
        <pt x="1500" y="0" on="1"/>
        <pt x="1500" y="888" on="1"/>
        <pt x="1500" y="922" on="0"/>
        <pt x="1463" y="947" on="1"/>
        <pt x="1363" y="1009" on="1"/>
        <pt x="1287" y="1059" on="0"/>
        <pt x="1218" y="1059" on="1"/>
        <pt x="1181" y="1059" on="0"/>
        <pt x="988" y="1026" on="1"/>
        <pt x="885" y="949" on="0"/>
        <pt x="660" y="949" on="1"/>
        <pt x="609" y="949" on="0"/>
        <pt x="564" y="951" on="1"/>
        <pt x="200" y="968" on="0"/>
        <pt x="200" y="1125" on="1"/>
        <pt x="200" y="1215" on="0"/>
        <pt x="247" y="1259" on="1"/>
        <pt x="290" y="1300" on="0"/>
        <pt x="375" y="1300" on="1"/>
        <pt x="471" y="1300" on="0"/>
        <pt x="511" y="1268" on="1"/>
        <pt x="550" y="1236" on="0"/>
        <pt x="550" y="1190" on="1"/>
        <pt x="550" y="1143" on="0"/>
        <pt x="528" y="1105" on="1"/>
        <pt x="555" y="1072" on="0"/>
        <pt x="615" y="1049" on="0"/>
        <pt x="660" y="1049" on="1"/>
        <pt x="792" y="1049" on="0"/>
        <pt x="880" y="1170" on="0"/>
        <pt x="880" y="1235" on="1"/>
        <pt x="880" y="1318" on="0"/>
        <pt x="800" y="1318" on="1"/>
        <pt x="730" y="1318" on="0"/>
        <pt x="730" y="1383" on="1"/>
        <pt x="730" y="1449" on="0"/>
        <pt x="850" y="1449" on="1"/>
        <pt x="1096" y="1449" on="0"/>
        <pt x="1100" y="1242" on="1"/>
        <pt x="1101" y="1243" on="0"/>
        <pt x="1103" y="1244" on="1"/>
        <pt x="1189" y="1300" on="0"/>
        <pt x="1274" y="1300" on="1"/>
        <pt x="1372" y="1300" on="0"/>
        <pt x="1469" y="1238" on="1"/>
        <pt x="1550" y="1187" on="1"/>
        <pt x="1550" y="1474" on="1"/>
        <pt x="1550" y="1560" on="0"/>
        <pt x="1450" y="1560" on="1"/>
        <pt x="1450" y="1647" on="0"/>
        <pt x="1575" y="1647" on="1"/>
        <pt x="1688" y="1647" on="1"/>
        <pt x="1800" y="1647" on="0"/>
        <pt x="1800" y="1474" on="1"/>
        <pt x="1800" y="1214" on="1"/>
        <pt x="1800" y="1132" on="0"/>
      </contour>
    </TTGlyph>
</ttFont>
